<svg id="svg" version="1.1" xmlns="http://www.w3.org/2000/svg" xmlns:xlink="http://www.w3.org/1999/xlink" width="400" height="400" viewBox="0, 0, 400,400"><g id="svgg"><path id="path0" d="M24.819 3.500 C 24.837 6.799,25.132 11.275,26.042 22.000 C 26.257 24.530,26.526 28.490,26.641 30.800 C 26.756 33.110,27.019 35.171,27.225 35.380 C 27.431 35.589,27.600 37.578,27.600 39.800 C 27.600 42.022,27.769 44.011,27.975 44.220 C 28.181 44.429,28.452 46.580,28.578 49.000 C 28.703 51.420,28.906 55.335,29.028 57.700 C 29.150 60.065,29.419 62.000,29.625 62.000 C 29.836 62.000,30.000 63.929,30.000 66.400 C 30.000 69.067,30.158 70.800,30.400 70.800 C 30.642 70.800,30.800 72.525,30.800 75.176 C 30.800 77.663,30.973 79.660,31.200 79.800 C 31.425 79.939,31.600 81.863,31.600 84.200 C 31.600 86.537,31.775 88.461,32.000 88.600 C 32.225 88.739,32.400 90.671,32.400 93.024 C 32.400 95.541,32.559 97.200,32.800 97.200 C 33.042 97.200,33.200 98.925,33.200 101.576 C 33.200 104.063,33.373 106.060,33.600 106.200 C 33.825 106.339,34.000 108.263,34.000 110.600 C 34.000 112.937,34.175 114.861,34.400 115.000 C 34.625 115.139,34.800 117.071,34.800 119.424 C 34.800 121.941,34.959 123.600,35.200 123.600 C 35.442 123.600,35.600 125.325,35.600 127.976 C 35.600 130.463,35.773 132.460,36.000 132.600 C 36.227 132.740,36.400 134.737,36.400 137.224 C 36.400 139.875,36.558 141.600,36.800 141.600 C 37.042 141.600,37.200 143.333,37.200 146.000 C 37.200 148.667,37.358 150.400,37.600 150.400 C 37.841 150.400,38.000 152.067,38.000 154.600 C 38.000 157.133,38.159 158.800,38.400 158.800 C 38.643 158.800,38.800 160.592,38.800 163.376 C 38.800 165.996,38.971 168.058,39.200 168.200 C 39.425 168.339,39.600 170.271,39.600 172.624 C 39.600 175.141,39.759 176.800,40.000 176.800 C 40.242 176.800,40.400 178.533,40.400 181.200 C 40.400 183.867,40.558 185.600,40.800 185.600 C 41.035 185.600,41.200 186.986,41.200 188.958 C 41.200 190.804,41.391 194.173,41.624 196.444 C 42.127 201.353,42.774 210.234,43.034 215.800 C 43.136 218.000,43.391 220.160,43.600 220.600 C 43.809 221.040,44.075 223.245,44.190 225.500 C 44.728 236.010,44.877 237.825,45.226 238.180 C 45.432 238.389,45.600 240.504,45.600 242.880 C 45.600 245.493,45.758 247.200,46.000 247.200 C 46.242 247.200,46.400 248.925,46.400 251.576 C 46.400 254.063,46.573 256.060,46.800 256.200 C 47.025 256.339,47.200 258.263,47.200 260.600 C 47.200 262.937,47.375 264.861,47.600 265.000 C 47.825 265.139,48.000 267.071,48.000 269.424 C 48.000 271.941,48.159 273.600,48.400 273.600 C 48.642 273.600,48.800 275.325,48.800 277.976 C 48.800 280.463,48.973 282.460,49.200 282.600 C 49.425 282.739,49.600 284.663,49.600 287.000 C 49.600 289.337,49.775 291.261,50.000 291.400 C 50.227 291.540,50.400 293.537,50.400 296.024 C 50.400 298.675,50.558 300.400,50.800 300.400 C 51.041 300.400,51.200 302.067,51.200 304.600 C 51.200 307.133,51.359 308.800,51.600 308.800 C 51.842 308.800,52.000 310.525,52.000 313.176 C 52.000 315.663,52.173 317.660,52.400 317.800 C 52.627 317.940,52.800 319.937,52.800 322.424 C 52.800 325.075,52.958 326.800,53.200 326.800 C 53.442 326.800,53.600 328.533,53.600 331.200 C 53.600 333.867,53.758 335.600,54.000 335.600 C 54.241 335.600,54.400 337.259,54.400 339.776 C 54.400 342.129,54.575 344.061,54.800 344.200 C 55.027 344.340,55.200 346.330,55.200 348.800 C 55.200 351.270,55.373 353.260,55.600 353.400 C 55.820 353.536,56.000 355.089,56.000 356.852 C 56.000 360.462,56.403 361.200,58.371 361.200 C 59.047 361.200,59.600 361.380,59.600 361.600 C 59.600 361.820,60.230 362.000,61.000 362.000 C 61.770 362.000,62.400 362.180,62.400 362.400 C 62.400 362.620,63.030 362.800,63.800 362.800 C 64.570 362.800,65.200 362.980,65.200 363.200 C 65.200 363.420,65.819 363.600,66.576 363.600 C 67.333 363.600,68.064 363.780,68.200 364.000 C 68.336 364.220,68.977 364.400,69.624 364.400 C 70.271 364.400,70.800 364.580,70.800 364.800 C 70.800 365.020,71.520 365.200,72.400 365.200 C 73.280 365.200,74.000 365.380,74.000 365.600 C 74.000 365.820,74.540 366.000,75.200 366.000 C 75.860 366.000,76.400 366.180,76.400 366.400 C 76.400 366.620,77.030 366.800,77.800 366.800 C 78.570 366.800,79.200 366.980,79.200 367.200 C 79.200 367.420,79.819 367.600,80.576 367.600 C 81.333 367.600,82.064 367.780,82.200 368.000 C 82.336 368.220,82.977 368.400,83.624 368.400 C 84.271 368.400,84.800 368.580,84.800 368.800 C 84.800 369.020,85.520 369.200,86.400 369.200 C 87.280 369.200,88.000 369.380,88.000 369.600 C 88.000 369.820,88.540 370.000,89.200 370.000 C 89.860 370.000,90.400 370.180,90.400 370.400 C 90.400 370.620,91.019 370.800,91.776 370.800 C 92.533 370.800,93.264 370.980,93.400 371.200 C 93.536 371.420,94.166 371.600,94.800 371.600 C 95.434 371.600,96.064 371.780,96.200 372.000 C 96.336 372.220,96.966 372.400,97.600 372.400 C 98.234 372.400,98.864 372.580,99.000 372.800 C 99.136 373.020,99.766 373.200,100.400 373.200 C 101.034 373.200,101.652 373.360,101.773 373.556 C 101.894 373.751,102.579 374.015,103.296 374.141 C 108.974 375.139,110.000 375.372,110.000 375.666 C 110.000 375.850,110.630 376.000,111.400 376.000 C 112.170 376.000,112.800 376.180,112.800 376.400 C 112.800 376.620,113.329 376.800,113.976 376.800 C 114.623 376.800,115.264 376.980,115.400 377.200 C 115.536 377.420,116.267 377.600,117.024 377.600 C 117.781 377.600,118.400 377.780,118.400 378.000 C 118.400 378.220,119.019 378.400,119.776 378.400 C 120.533 378.400,121.264 378.580,121.400 378.800 C 121.536 379.020,122.177 379.200,122.824 379.200 C 123.471 379.200,124.000 379.380,124.000 379.600 C 124.000 379.820,124.630 380.000,125.400 380.000 C 126.170 380.000,126.800 380.180,126.800 380.400 C 126.800 380.620,127.329 380.800,127.976 380.800 C 128.623 380.800,129.264 380.980,129.400 381.200 C 129.536 381.420,130.267 381.600,131.024 381.600 C 131.781 381.600,132.400 381.780,132.400 382.000 C 132.400 382.220,132.929 382.400,133.576 382.400 C 134.223 382.400,134.864 382.580,135.000 382.800 C 135.136 383.020,135.867 383.200,136.624 383.200 C 137.381 383.200,138.000 383.380,138.000 383.600 C 138.000 383.820,138.720 384.000,139.600 384.000 C 140.480 384.000,141.200 384.180,141.200 384.400 C 141.200 384.620,141.740 384.800,142.400 384.800 C 143.060 384.800,143.600 384.980,143.600 385.200 C 143.600 385.420,144.230 385.600,145.000 385.600 C 145.770 385.600,146.400 385.780,146.400 386.000 C 146.400 386.220,146.929 386.400,147.576 386.400 C 148.223 386.400,148.864 386.580,149.000 386.800 C 149.136 387.020,149.867 387.200,150.624 387.200 C 151.381 387.200,152.000 387.380,152.000 387.600 C 152.000 387.820,152.619 388.000,153.376 388.000 C 154.133 388.000,154.864 388.180,155.000 388.400 C 155.136 388.620,155.777 388.800,156.424 388.800 C 157.071 388.800,157.600 388.980,157.600 389.200 C 157.600 389.420,158.142 389.600,158.805 389.600 C 159.468 389.600,160.323 389.772,160.705 389.982 C 161.586 390.465,166.368 391.600,167.526 391.600 C 168.007 391.600,168.400 391.780,168.400 392.000 C 168.400 392.220,169.120 392.400,170.000 392.400 C 170.880 392.400,171.600 392.580,171.600 392.800 C 171.600 393.020,172.219 393.200,172.976 393.200 C 173.733 393.200,174.464 393.380,174.600 393.600 C 174.736 393.820,175.276 394.000,175.800 394.000 C 176.324 394.000,176.864 394.180,177.000 394.400 C 177.136 394.620,177.867 394.800,178.624 394.800 C 179.381 394.800,180.000 394.980,180.000 395.200 C 180.000 395.420,180.540 395.600,181.200 395.600 C 181.860 395.600,182.400 395.780,182.400 396.000 C 182.400 396.220,183.120 396.400,184.000 396.400 C 184.880 396.400,185.600 396.580,185.600 396.800 C 185.600 397.020,186.129 397.200,186.776 397.200 C 187.423 397.200,188.064 397.380,188.200 397.600 C 188.336 397.820,189.067 398.000,189.824 398.000 C 190.581 398.000,191.200 398.180,191.200 398.400 C 191.200 398.620,191.815 398.800,192.567 398.800 C 193.318 398.800,194.008 399.025,194.100 399.300 C 194.339 400.016,205.661 400.016,205.900 399.300 C 205.992 399.025,206.682 398.800,207.433 398.800 C 208.185 398.800,208.800 398.620,208.800 398.400 C 208.800 398.180,209.419 398.000,210.176 398.000 C 210.933 398.000,211.664 397.820,211.800 397.600 C 211.936 397.380,212.577 397.200,213.224 397.200 C 213.871 397.200,214.400 397.020,214.400 396.800 C 214.400 396.580,215.120 396.400,216.000 396.400 C 216.880 396.400,217.600 396.220,217.600 396.000 C 217.600 395.780,218.140 395.600,218.800 395.600 C 219.460 395.600,220.000 395.420,220.000 395.200 C 220.000 394.980,220.619 394.800,221.376 394.800 C 222.133 394.800,222.864 394.620,223.000 394.400 C 223.136 394.180,223.676 394.000,224.200 394.000 C 224.724 394.000,225.264 393.820,225.400 393.600 C 225.536 393.380,226.267 393.200,227.024 393.200 C 227.781 393.200,228.400 393.020,228.400 392.800 C 228.400 392.580,229.120 392.400,230.000 392.400 C 230.880 392.400,231.600 392.220,231.600 392.000 C 231.600 391.780,231.993 391.600,232.474 391.600 C 233.632 391.600,238.414 390.465,239.295 389.982 C 239.677 389.772,240.532 389.600,241.195 389.600 C 241.858 389.600,242.400 389.420,242.400 389.200 C 242.400 388.980,242.929 388.800,243.576 388.800 C 244.223 388.800,244.864 388.620,245.000 388.400 C 245.136 388.180,245.867 388.000,246.624 388.000 C 247.381 388.000,248.000 387.820,248.000 387.600 C 248.000 387.380,248.619 387.200,249.376 387.200 C 250.133 387.200,250.864 387.020,251.000 386.800 C 251.136 386.580,251.777 386.400,252.424 386.400 C 253.071 386.400,253.600 386.220,253.600 386.000 C 253.600 385.780,254.230 385.600,255.000 385.600 C 255.770 385.600,256.400 385.420,256.400 385.200 C 256.400 384.980,256.929 384.800,257.576 384.800 C 258.223 384.800,258.864 384.620,259.000 384.400 C 259.136 384.180,259.867 384.000,260.624 384.000 C 261.381 384.000,262.000 383.820,262.000 383.600 C 262.000 383.380,262.619 383.200,263.376 383.200 C 264.133 383.200,264.864 383.020,265.000 382.800 C 265.136 382.580,265.777 382.400,266.424 382.400 C 267.071 382.400,267.600 382.220,267.600 382.000 C 267.600 381.780,268.219 381.600,268.976 381.600 C 269.733 381.600,270.464 381.420,270.600 381.200 C 270.736 380.980,271.377 380.800,272.024 380.800 C 272.671 380.800,273.200 380.620,273.200 380.400 C 273.200 380.180,273.830 380.000,274.600 380.000 C 275.370 380.000,276.000 379.820,276.000 379.600 C 276.000 379.380,276.529 379.200,277.176 379.200 C 277.823 379.200,278.464 379.020,278.600 378.800 C 278.736 378.580,279.467 378.400,280.224 378.400 C 280.981 378.400,281.600 378.220,281.600 378.000 C 281.600 377.780,282.219 377.600,282.976 377.600 C 283.733 377.600,284.464 377.420,284.600 377.200 C 284.736 376.980,285.377 376.800,286.024 376.800 C 286.671 376.800,287.200 376.620,287.200 376.400 C 287.200 376.180,287.830 376.000,288.600 376.000 C 289.370 376.000,290.000 375.850,290.000 375.666 C 290.000 375.372,291.026 375.139,296.704 374.141 C 297.421 374.015,298.106 373.751,298.227 373.556 C 298.348 373.360,298.966 373.200,299.600 373.200 C 300.234 373.200,300.864 373.020,301.000 372.800 C 301.136 372.580,301.629 372.400,302.095 372.400 C 302.996 372.400,305.339 371.735,306.495 371.151 C 306.877 370.958,307.732 370.800,308.395 370.800 C 309.058 370.800,309.600 370.620,309.600 370.400 C 309.600 370.180,310.129 370.000,310.776 370.000 C 311.423 370.000,312.064 369.820,312.200 369.600 C 312.336 369.380,313.067 369.200,313.824 369.200 C 314.581 369.200,315.200 369.020,315.200 368.800 C 315.200 368.580,315.819 368.400,316.576 368.400 C 317.333 368.400,318.064 368.220,318.200 368.000 C 318.336 367.780,318.977 367.600,319.624 367.600 C 320.271 367.600,320.800 367.420,320.800 367.200 C 320.800 366.980,321.430 366.800,322.200 366.800 C 322.970 366.800,323.600 366.620,323.600 366.400 C 323.600 366.180,324.140 366.000,324.800 366.000 C 325.460 366.000,326.000 365.820,326.000 365.600 C 326.000 365.380,326.720 365.200,327.600 365.200 C 328.480 365.200,329.200 365.020,329.200 364.800 C 329.200 364.580,329.830 364.400,330.600 364.400 C 331.370 364.400,332.000 364.220,332.000 364.000 C 332.000 363.780,332.630 363.600,333.400 363.600 C 334.170 363.600,334.800 363.420,334.800 363.200 C 334.800 362.980,335.419 362.800,336.176 362.800 C 336.933 362.800,337.664 362.620,337.800 362.400 C 337.936 362.180,338.577 362.000,339.224 362.000 C 339.871 362.000,340.400 361.820,340.400 361.600 C 340.400 361.380,340.953 361.200,341.629 361.200 C 343.648 361.200,344.000 360.492,344.000 356.429 C 344.000 354.276,344.163 352.800,344.400 352.800 C 344.642 352.800,344.800 351.067,344.800 348.400 C 344.800 345.733,344.958 344.000,345.200 344.000 C 345.442 344.000,345.600 342.267,345.600 339.600 C 345.600 336.933,345.758 335.200,346.000 335.200 C 346.243 335.200,346.400 333.400,346.400 330.600 C 346.400 327.800,346.557 326.000,346.800 326.000 C 347.041 326.000,347.200 324.333,347.200 321.800 C 347.200 319.267,347.359 317.600,347.600 317.600 C 347.842 317.600,348.000 315.867,348.000 313.200 C 348.000 310.533,348.158 308.800,348.400 308.800 C 348.642 308.800,348.800 307.075,348.800 304.424 C 348.800 301.937,348.973 299.940,349.200 299.800 C 349.427 299.660,349.600 297.663,349.600 295.176 C 349.600 292.525,349.758 290.800,350.000 290.800 C 350.241 290.800,350.400 289.141,350.400 286.624 C 350.400 284.271,350.575 282.339,350.800 282.200 C 351.025 282.061,351.200 280.137,351.200 277.800 C 351.200 275.463,351.375 273.539,351.600 273.400 C 351.827 273.260,352.000 271.263,352.000 268.776 C 352.000 266.125,352.158 264.400,352.400 264.400 C 352.642 264.400,352.800 262.667,352.800 260.000 C 352.800 257.333,352.958 255.600,353.200 255.600 C 353.441 255.600,353.600 253.941,353.600 251.424 C 353.600 249.071,353.775 247.139,354.000 247.000 C 354.227 246.860,354.400 244.870,354.400 242.400 C 354.400 239.930,354.573 237.940,354.800 237.800 C 355.025 237.661,355.200 235.756,355.200 233.456 C 355.200 231.203,355.368 229.189,355.574 228.980 C 355.780 228.771,356.045 226.800,356.163 224.600 C 356.281 222.400,356.551 218.620,356.763 216.200 C 356.974 213.780,357.335 209.100,357.564 205.800 C 357.793 202.500,358.165 198.142,358.390 196.116 C 358.616 194.089,358.800 190.894,358.800 189.016 C 358.800 187.005,358.965 185.600,359.200 185.600 C 359.442 185.600,359.600 183.875,359.600 181.224 C 359.600 178.737,359.773 176.740,360.000 176.600 C 360.227 176.460,360.400 174.463,360.400 171.976 C 360.400 169.325,360.558 167.600,360.800 167.600 C 361.042 167.600,361.200 165.867,361.200 163.200 C 361.200 160.533,361.358 158.800,361.600 158.800 C 361.841 158.800,362.000 157.141,362.000 154.624 C 362.000 152.271,362.175 150.339,362.400 150.200 C 362.627 150.060,362.800 148.070,362.800 145.600 C 362.800 143.130,362.973 141.140,363.200 141.000 C 363.425 140.861,363.600 138.929,363.600 136.576 C 363.600 134.059,363.759 132.400,364.000 132.400 C 364.242 132.400,364.400 130.667,364.400 128.000 C 364.400 125.333,364.558 123.600,364.800 123.600 C 365.041 123.600,365.200 121.941,365.200 119.424 C 365.200 117.071,365.375 115.139,365.600 115.000 C 365.827 114.860,366.000 112.870,366.000 110.400 C 366.000 107.930,366.173 105.940,366.400 105.800 C 366.625 105.661,366.800 103.729,366.800 101.376 C 366.800 98.859,366.959 97.200,367.200 97.200 C 367.442 97.200,367.600 95.467,367.600 92.800 C 367.600 90.133,367.758 88.400,368.000 88.400 C 368.242 88.400,368.400 86.675,368.400 84.024 C 368.400 81.537,368.573 79.540,368.800 79.400 C 369.025 79.261,369.200 77.337,369.200 75.000 C 369.200 72.663,369.375 70.739,369.600 70.600 C 369.825 70.461,370.000 68.537,370.000 66.200 C 370.000 63.863,370.175 61.939,370.400 61.800 C 370.625 61.661,370.800 59.737,370.800 57.400 C 370.800 55.063,370.975 53.139,371.200 53.000 C 371.425 52.861,371.600 50.937,371.600 48.600 C 371.600 46.263,371.775 44.339,372.000 44.200 C 372.225 44.061,372.400 42.156,372.400 39.856 C 372.400 37.603,372.569 35.589,372.775 35.380 C 372.981 35.171,373.244 33.110,373.359 30.800 C 373.474 28.490,373.743 24.530,373.958 22.000 C 374.868 11.275,375.163 6.799,375.181 3.500 L 375.200 0.000 200.000 0.000 L 24.800 0.000 24.819 3.500 M309.600 77.374 C 309.600 78.790,309.437 80.377,309.238 80.901 C 309.039 81.425,308.744 85.486,308.583 89.927 C 308.422 94.367,308.135 98.000,307.945 98.000 C 307.755 98.000,307.600 99.980,307.600 102.400 C 307.600 105.067,307.442 106.800,307.200 106.800 C 306.959 106.800,306.800 108.467,306.800 111.000 C 306.800 113.533,306.641 115.200,306.400 115.200 C 306.158 115.200,306.000 116.933,306.000 119.600 C 306.000 122.267,305.842 124.000,305.600 124.000 C 305.358 124.000,305.200 125.725,305.200 128.376 C 305.200 130.863,305.027 132.860,304.800 133.000 C 304.573 133.140,304.400 135.137,304.400 137.624 C 304.400 140.275,304.242 142.000,304.000 142.000 C 303.759 142.000,303.600 143.667,303.600 146.200 C 303.600 148.733,303.441 150.400,303.200 150.400 C 302.958 150.400,302.800 152.133,302.800 154.800 C 302.800 157.467,302.642 159.200,302.400 159.200 C 302.158 159.200,302.000 160.925,302.000 163.576 C 302.000 166.063,301.827 168.060,301.600 168.200 C 301.375 168.339,301.200 170.263,301.200 172.600 C 301.200 174.937,301.025 176.861,300.800 177.000 C 300.575 177.139,300.400 179.071,300.400 181.424 C 300.400 183.941,300.241 185.600,300.000 185.600 C 299.758 185.600,299.600 187.333,299.600 190.000 C 299.600 192.667,299.442 194.400,299.200 194.400 C 298.959 194.400,298.800 196.059,298.800 198.576 C 298.800 200.929,298.625 202.861,298.400 203.000 C 298.175 203.139,298.000 205.063,298.000 207.400 C 298.000 209.737,297.825 211.661,297.600 211.800 C 297.375 211.939,297.200 213.863,297.200 216.200 C 297.200 218.537,297.025 220.461,296.800 220.600 C 296.575 220.739,296.400 222.663,296.400 225.000 C 296.400 227.337,296.225 229.261,296.000 229.400 C 295.775 229.539,295.600 231.444,295.600 233.744 C 295.600 235.997,295.432 238.011,295.226 238.220 C 295.020 238.429,294.755 240.400,294.637 242.600 C 294.519 244.800,294.239 248.580,294.015 251.000 C 293.327 258.419,292.871 263.941,292.444 270.000 C 292.219 273.190,291.849 277.420,291.621 279.400 C 291.393 281.380,291.205 284.665,291.203 286.700 C 291.201 288.898,291.038 290.400,290.800 290.400 C 290.561 290.400,290.400 291.933,290.400 294.200 L 290.400 298.000 289.200 298.000 C 288.540 298.000,288.000 298.180,288.000 298.400 C 288.000 298.620,287.280 298.800,286.400 298.800 C 285.520 298.800,284.800 298.980,284.800 299.200 C 284.800 299.420,284.271 299.600,283.624 299.600 C 282.977 299.600,282.336 299.780,282.200 300.000 C 282.064 300.220,281.333 300.400,280.576 300.400 C 279.819 300.400,279.200 300.580,279.200 300.800 C 279.200 301.020,278.570 301.200,277.800 301.200 C 277.030 301.200,276.400 301.380,276.400 301.600 C 276.400 301.820,275.860 302.000,275.200 302.000 C 274.540 302.000,274.000 302.180,274.000 302.400 C 274.000 302.620,273.280 302.800,272.400 302.800 C 271.520 302.800,270.800 302.980,270.800 303.200 C 270.800 303.420,270.181 303.600,269.424 303.600 C 268.667 303.600,267.936 303.780,267.800 304.000 C 267.664 304.220,267.023 304.400,266.376 304.400 C 265.729 304.400,265.200 304.580,265.200 304.800 C 265.200 305.020,264.581 305.200,263.824 305.200 C 263.067 305.200,262.336 305.380,262.200 305.600 C 262.064 305.820,261.434 306.000,260.800 306.000 C 260.166 306.000,259.536 306.180,259.400 306.400 C 259.264 306.620,258.623 306.800,257.976 306.800 C 257.329 306.800,256.800 306.980,256.800 307.200 C 256.800 307.420,256.080 307.600,255.200 307.600 C 254.320 307.600,253.600 307.750,253.600 307.934 C 253.600 308.118,252.475 308.461,251.100 308.697 C 249.725 308.933,247.880 309.339,247.000 309.600 C 246.120 309.861,244.815 310.167,244.100 310.281 C 243.385 310.395,242.800 310.648,242.800 310.844 C 242.800 311.040,242.181 311.200,241.424 311.200 C 240.667 311.200,239.936 311.380,239.800 311.600 C 239.664 311.820,239.023 312.000,238.376 312.000 C 237.729 312.000,237.200 312.180,237.200 312.400 C 237.200 312.620,236.480 312.800,235.600 312.800 C 234.720 312.800,234.000 312.980,234.000 313.200 C 234.000 313.420,233.381 313.600,232.624 313.600 C 231.867 313.600,231.136 313.780,231.000 314.000 C 230.864 314.220,230.223 314.400,229.576 314.400 C 228.929 314.400,228.400 314.580,228.400 314.800 C 228.400 315.020,227.770 315.200,227.000 315.200 C 226.230 315.200,225.600 315.360,225.600 315.556 C 225.600 315.752,224.970 316.022,224.200 316.156 C 223.430 316.290,222.170 316.510,221.400 316.644 C 220.630 316.778,220.000 317.048,220.000 317.244 C 220.000 317.440,219.280 317.600,218.400 317.600 C 217.520 317.600,216.800 317.780,216.800 318.000 C 216.800 318.220,216.260 318.400,215.600 318.400 C 214.940 318.400,214.400 318.580,214.400 318.800 C 214.400 319.020,213.680 319.200,212.800 319.200 C 211.920 319.200,211.200 319.380,211.200 319.600 C 211.200 319.820,210.570 320.000,209.800 320.000 C 209.030 320.000,208.400 320.180,208.400 320.400 C 208.400 320.620,207.860 320.800,207.200 320.800 C 206.540 320.800,206.000 320.980,206.000 321.200 C 206.000 321.420,205.280 321.600,204.400 321.600 C 203.520 321.600,202.800 321.780,202.800 322.000 C 202.800 322.220,202.296 322.400,201.680 322.400 C 201.064 322.400,200.344 322.616,200.080 322.880 C 199.707 323.253,199.600 323.253,199.600 322.880 C 199.600 322.613,199.067 322.400,198.400 322.400 C 197.740 322.400,197.200 322.220,197.200 322.000 C 197.200 321.780,196.480 321.600,195.600 321.600 C 194.720 321.600,194.000 321.420,194.000 321.200 C 194.000 320.980,193.370 320.800,192.600 320.800 C 191.830 320.800,191.200 320.620,191.200 320.400 C 191.200 320.180,190.671 320.000,190.024 320.000 C 189.377 320.000,188.736 319.820,188.600 319.600 C 188.464 319.380,187.733 319.200,186.976 319.200 C 186.219 319.200,185.600 319.020,185.600 318.800 C 185.600 318.580,185.071 318.400,184.424 318.400 C 183.777 318.400,183.136 318.220,183.000 318.000 C 182.864 317.780,182.133 317.600,181.376 317.600 C 180.619 317.600,180.000 317.420,180.000 317.200 C 180.000 316.980,179.280 316.800,178.400 316.800 C 177.520 316.800,176.800 316.620,176.800 316.400 C 176.800 316.180,176.260 316.000,175.600 316.000 C 174.940 316.000,174.400 315.820,174.400 315.600 C 174.400 315.380,173.770 315.200,173.000 315.200 C 172.230 315.200,171.600 315.020,171.600 314.800 C 171.600 314.580,170.981 314.400,170.224 314.400 C 169.467 314.400,168.736 314.220,168.600 314.000 C 168.464 313.780,167.823 313.600,167.176 313.600 C 166.529 313.600,166.000 313.420,166.000 313.200 C 166.000 312.980,165.280 312.800,164.400 312.800 C 163.520 312.800,162.800 312.620,162.800 312.400 C 162.800 312.180,162.271 312.000,161.624 312.000 C 160.977 312.000,160.336 311.820,160.200 311.600 C 160.064 311.380,159.333 311.200,158.576 311.200 C 157.819 311.200,157.200 311.040,157.200 310.844 C 157.200 310.648,156.615 310.395,155.900 310.281 C 155.185 310.167,153.880 309.861,153.000 309.600 C 152.120 309.339,150.275 308.933,148.900 308.697 C 147.525 308.461,146.400 308.118,146.400 307.934 C 146.400 307.750,145.680 307.600,144.800 307.600 C 143.920 307.600,143.200 307.420,143.200 307.200 C 143.200 306.980,142.671 306.800,142.024 306.800 C 141.377 306.800,140.736 306.620,140.600 306.400 C 140.464 306.180,139.823 306.000,139.176 306.000 C 138.529 306.000,138.000 305.820,138.000 305.600 C 138.000 305.380,137.280 305.200,136.400 305.200 C 135.520 305.200,134.800 305.020,134.800 304.800 C 134.800 304.580,134.271 304.400,133.624 304.400 C 132.977 304.400,132.336 304.220,132.200 304.000 C 132.064 303.780,131.333 303.600,130.576 303.600 C 129.819 303.600,129.200 303.420,129.200 303.200 C 129.200 302.980,128.480 302.800,127.600 302.800 C 126.720 302.800,126.000 302.620,126.000 302.400 C 126.000 302.180,125.460 302.000,124.800 302.000 C 124.140 302.000,123.600 301.820,123.600 301.600 C 123.600 301.380,122.970 301.200,122.200 301.200 C 121.430 301.200,120.800 301.020,120.800 300.800 C 120.800 300.580,120.170 300.400,119.400 300.400 C 118.630 300.400,118.000 300.220,118.000 300.000 C 118.000 299.780,117.370 299.600,116.600 299.600 C 115.830 299.600,115.200 299.420,115.200 299.200 C 115.200 298.980,114.480 298.800,113.600 298.800 C 112.720 298.800,112.000 298.620,112.000 298.400 C 112.000 298.180,111.460 298.000,110.800 298.000 L 109.600 298.000 109.600 294.224 C 109.600 292.137,109.421 290.337,109.200 290.200 C 108.980 290.064,108.800 288.336,108.800 286.361 C 108.800 284.385,108.617 281.111,108.393 279.084 C 107.907 274.694,107.204 265.365,106.939 259.800 C 106.834 257.600,106.580 255.629,106.374 255.420 C 106.168 255.211,106.000 253.197,106.000 250.944 C 106.000 248.644,105.825 246.739,105.600 246.600 C 105.375 246.461,105.200 244.537,105.200 242.200 C 105.200 239.863,105.025 237.939,104.800 237.800 C 104.575 237.661,104.400 235.756,104.400 233.456 C 104.400 230.804,104.231 229.191,103.920 228.880 C 103.547 228.507,108.204 228.400,124.876 228.400 L 146.312 228.400 146.594 229.900 C 146.749 230.725,146.960 233.200,147.064 235.400 C 147.167 237.600,147.420 239.571,147.626 239.780 C 147.832 239.989,148.000 242.003,148.000 244.256 C 148.000 246.556,148.175 248.461,148.400 248.600 C 148.625 248.739,148.800 250.671,148.800 253.024 C 148.800 255.541,148.959 257.200,149.200 257.200 C 149.440 257.200,149.600 258.800,149.600 261.200 L 149.600 265.200 150.800 265.200 C 151.460 265.200,152.000 265.380,152.000 265.600 C 152.000 265.820,152.540 266.000,153.200 266.000 C 153.860 266.000,154.400 266.180,154.400 266.400 C 154.400 266.620,155.120 266.800,156.000 266.800 C 156.880 266.800,157.600 266.980,157.600 267.200 C 157.600 267.420,158.230 267.600,159.000 267.600 C 159.770 267.600,160.400 267.780,160.400 268.000 C 160.400 268.220,161.019 268.400,161.776 268.400 C 162.533 268.400,163.264 268.580,163.400 268.800 C 163.536 269.020,164.177 269.200,164.824 269.200 C 165.471 269.200,166.000 269.380,166.000 269.600 C 166.000 269.820,166.720 270.000,167.600 270.000 C 168.480 270.000,169.200 270.180,169.200 270.400 C 169.200 270.620,169.819 270.800,170.576 270.800 C 171.333 270.800,172.064 270.980,172.200 271.200 C 172.336 271.420,172.966 271.600,173.600 271.600 C 174.234 271.600,174.864 271.780,175.000 272.000 C 175.136 272.220,175.766 272.400,176.400 272.400 C 177.034 272.400,177.664 272.580,177.800 272.800 C 177.936 273.020,178.579 273.200,179.229 273.200 C 179.879 273.200,180.723 273.372,181.105 273.582 C 182.124 274.141,186.848 275.200,188.326 275.200 C 189.027 275.200,189.600 275.380,189.600 275.600 C 189.600 275.820,190.140 276.000,190.800 276.000 C 191.460 276.000,192.000 276.180,192.000 276.400 C 192.000 276.620,192.630 276.800,193.400 276.800 C 194.170 276.800,194.800 276.980,194.800 277.200 C 194.800 277.420,195.520 277.600,196.400 277.600 C 197.280 277.600,198.000 277.780,198.000 278.000 C 198.000 278.220,198.900 278.400,200.000 278.400 C 201.100 278.400,202.000 278.220,202.000 278.000 C 202.000 277.780,202.630 277.600,203.400 277.600 C 204.170 277.600,204.800 277.420,204.800 277.200 C 204.800 276.980,205.329 276.800,205.976 276.800 C 206.623 276.800,207.264 276.620,207.400 276.400 C 207.536 276.180,208.267 276.000,209.024 276.000 C 209.781 276.000,210.400 275.820,210.400 275.600 C 210.400 275.380,211.075 275.192,211.900 275.182 C 212.725 275.173,214.120 274.905,215.000 274.588 C 215.880 274.271,217.084 274.009,217.676 274.006 C 218.268 274.003,218.852 273.840,218.973 273.644 C 219.094 273.449,219.779 273.195,220.496 273.081 C 221.213 272.968,222.520 272.661,223.400 272.400 C 224.280 272.139,225.585 271.833,226.300 271.719 C 227.015 271.605,227.600 271.352,227.600 271.156 C 227.600 270.960,228.320 270.800,229.200 270.800 C 230.080 270.800,230.800 270.620,230.800 270.400 C 230.800 270.180,231.419 270.000,232.176 270.000 C 232.933 270.000,233.664 269.820,233.800 269.600 C 233.936 269.380,234.577 269.200,235.224 269.200 C 235.871 269.200,236.400 269.020,236.400 268.800 C 236.400 268.580,237.019 268.400,237.776 268.400 C 238.533 268.400,239.264 268.220,239.400 268.000 C 239.536 267.780,240.267 267.600,241.024 267.600 C 241.781 267.600,242.400 267.420,242.400 267.200 C 242.400 266.980,242.929 266.800,243.576 266.800 C 244.223 266.800,244.864 266.620,245.000 266.400 C 245.136 266.180,245.867 266.000,246.624 266.000 C 247.381 266.000,248.000 265.820,248.000 265.600 C 248.000 265.380,248.527 265.200,249.171 265.200 L 250.341 265.200 250.575 261.700 C 250.703 259.775,250.909 256.625,251.032 254.700 C 251.156 252.775,251.424 251.200,251.628 251.200 C 251.833 251.200,252.000 249.580,252.000 247.600 C 252.000 245.467,252.163 244.000,252.400 244.000 C 252.635 244.000,252.800 242.608,252.800 240.624 C 252.800 238.767,252.980 237.136,253.200 237.000 C 253.420 236.864,253.600 235.233,253.600 233.376 C 253.600 231.392,253.765 230.000,254.000 230.000 C 254.237 230.000,254.400 228.533,254.400 226.400 C 254.400 224.267,254.563 222.800,254.800 222.800 C 255.035 222.800,255.200 221.427,255.200 219.480 C 255.200 217.654,255.367 215.989,255.572 215.780 C 255.776 215.571,256.039 213.870,256.156 212.000 C 256.272 210.130,256.482 207.556,256.622 206.279 C 256.762 205.003,256.763 203.506,256.624 202.952 L 256.371 201.946 252.486 202.203 C 250.349 202.345,215.480 202.492,175.000 202.530 L 101.400 202.600 101.296 199.200 C 101.239 197.330,101.020 195.440,100.809 195.000 C 100.447 194.246,100.297 192.622,99.766 183.700 C 99.644 181.665,99.377 180.000,99.173 180.000 C 98.968 180.000,98.800 178.290,98.800 176.200 C 98.800 173.933,98.639 172.400,98.400 172.400 C 98.163 172.400,98.000 170.933,98.000 168.800 C 98.000 166.667,97.837 165.200,97.600 165.200 C 97.380 165.200,97.200 164.480,97.200 163.600 L 97.200 162.000 124.976 162.000 C 143.063 162.000,152.839 161.860,153.000 161.600 C 153.162 161.339,164.737 161.200,186.424 161.200 C 208.275 161.200,219.600 161.063,219.600 160.800 C 219.600 160.539,226.667 160.400,240.000 160.400 L 260.400 160.400 260.400 157.600 C 260.400 156.000,260.571 154.800,260.800 154.800 C 261.047 154.800,261.200 152.733,261.200 149.400 C 261.200 146.067,261.353 144.000,261.600 144.000 C 261.845 144.000,262.000 142.075,262.000 139.024 C 262.000 136.137,262.168 133.943,262.400 133.800 C 262.633 133.656,262.800 131.423,262.800 128.456 C 262.800 125.476,262.972 123.188,263.214 122.946 C 263.464 122.696,263.583 120.800,263.514 118.166 L 263.400 113.800 260.600 113.926 C 259.060 113.995,220.585 114.133,175.100 114.232 L 92.400 114.413 92.400 109.806 C 92.400 107.273,92.244 105.200,92.054 105.200 C 91.864 105.200,91.576 100.501,91.414 94.758 C 91.252 89.015,90.958 83.751,90.760 83.061 C 90.562 82.370,90.400 80.229,90.400 78.303 L 90.400 74.800 200.000 74.800 L 309.600 74.800 309.600 77.374 " stroke="none" fill="#040404" fill-rule="evenodd"></path><path id="path1" d="" stroke="none" fill="#080404" fill-rule="evenodd"></path><path id="path2" d="" stroke="none" fill="#080404" fill-rule="evenodd"></path><path id="path3" d="" stroke="none" fill="#080404" fill-rule="evenodd"></path><path id="path4" d="" stroke="none" fill="#080404" fill-rule="evenodd"></path></g></svg>