<svg id="svg" version="1.1" xmlns="http://www.w3.org/2000/svg" xmlns:xlink="http://www.w3.org/1999/xlink" width="400" height="400" viewBox="0, 0, 400,400"><g id="svgg"><path id="path0" d="M121.600 133.700 C 121.600 133.865,120.700 134.000,119.600 134.000 C 118.500 134.000,117.600 134.180,117.600 134.400 C 117.600 134.620,116.981 134.800,116.224 134.800 C 115.467 134.800,114.736 134.980,114.600 135.200 C 114.464 135.420,113.924 135.600,113.400 135.600 C 112.876 135.600,112.336 135.780,112.200 136.000 C 112.064 136.220,111.513 136.400,110.976 136.400 C 110.439 136.400,110.000 136.580,110.000 136.800 C 110.000 137.020,109.640 137.200,109.200 137.200 C 108.760 137.200,108.400 137.380,108.400 137.600 C 108.400 137.820,107.860 138.000,107.200 138.000 C 106.540 138.000,106.000 138.180,106.000 138.400 C 106.000 138.620,105.640 138.800,105.200 138.800 C 104.760 138.800,104.400 138.980,104.400 139.200 C 104.400 139.420,104.040 139.600,103.600 139.600 C 103.160 139.600,102.800 139.780,102.800 140.000 C 102.800 140.220,102.440 140.400,102.000 140.400 C 101.560 140.400,101.200 140.580,101.200 140.800 C 101.200 141.020,101.043 141.200,100.850 141.200 C 100.550 141.200,99.487 141.778,96.064 143.800 C 94.799 144.548,92.215 146.596,90.892 147.900 C 90.167 148.615,89.408 149.200,89.206 149.200 C 88.722 149.200,83.200 154.654,83.200 155.132 C 83.200 155.337,82.525 156.206,81.700 157.064 C 80.206 158.618,78.161 161.183,77.400 162.458 C 76.157 164.541,74.000 168.619,74.000 168.887 C 74.000 169.059,73.820 169.200,73.600 169.200 C 73.380 169.200,73.200 169.549,73.200 169.976 C 73.200 170.403,73.020 170.864,72.800 171.000 C 72.580 171.136,72.400 171.687,72.400 172.224 C 72.400 172.761,72.220 173.200,72.000 173.200 C 71.780 173.200,71.600 173.560,71.600 174.000 C 71.600 174.440,71.420 174.800,71.200 174.800 C 70.980 174.800,70.800 175.250,70.800 175.800 C 70.800 176.350,70.620 176.800,70.400 176.800 C 70.180 176.800,70.000 177.340,70.000 178.000 C 70.000 178.660,69.820 179.200,69.600 179.200 C 69.380 179.200,69.200 179.740,69.200 180.400 C 69.200 181.060,69.020 181.600,68.800 181.600 C 68.580 181.600,68.400 182.320,68.400 183.200 C 68.400 184.080,68.220 184.800,68.000 184.800 C 67.780 184.800,67.600 185.664,67.600 186.720 C 67.600 187.776,67.431 188.811,67.225 189.020 C 66.231 190.028,66.231 209.972,67.225 210.980 C 67.431 211.189,67.600 212.224,67.600 213.280 C 67.600 214.336,67.780 215.200,68.000 215.200 C 68.220 215.200,68.400 215.920,68.400 216.800 C 68.400 217.680,68.580 218.400,68.800 218.400 C 69.020 218.400,69.200 218.940,69.200 219.600 C 69.200 220.260,69.380 220.800,69.600 220.800 C 69.820 220.800,70.000 221.340,70.000 222.000 C 70.000 222.660,70.180 223.200,70.400 223.200 C 70.620 223.200,70.800 223.650,70.800 224.200 C 70.800 224.750,70.980 225.200,71.200 225.200 C 71.420 225.200,71.600 225.560,71.600 226.000 C 71.600 226.440,71.780 226.800,72.000 226.800 C 72.220 226.800,72.400 227.239,72.400 227.776 C 72.400 228.313,72.580 228.864,72.800 229.000 C 73.020 229.136,73.200 229.597,73.200 230.024 C 73.200 230.451,73.380 230.800,73.600 230.800 C 73.820 230.800,74.000 230.941,74.000 231.113 C 74.000 231.381,76.157 235.459,77.400 237.542 C 78.140 238.782,80.189 241.392,81.214 242.400 C 81.773 242.950,82.672 244.030,83.211 244.800 C 84.413 246.517,88.249 250.400,88.743 250.400 C 88.941 250.400,89.806 251.075,90.664 251.900 C 93.303 254.437,95.260 255.837,98.844 257.751 C 100.030 258.384,101.060 259.059,101.133 259.251 C 101.207 259.443,101.612 259.600,102.033 259.600 C 102.455 259.600,102.800 259.780,102.800 260.000 C 102.800 260.220,103.160 260.400,103.600 260.400 C 104.040 260.400,104.400 260.580,104.400 260.800 C 104.400 261.020,104.760 261.200,105.200 261.200 C 105.640 261.200,106.000 261.380,106.000 261.600 C 106.000 261.820,106.540 262.000,107.200 262.000 C 107.860 262.000,108.400 262.180,108.400 262.400 C 108.400 262.620,108.760 262.800,109.200 262.800 C 109.640 262.800,110.000 262.980,110.000 263.200 C 110.000 263.420,110.439 263.600,110.976 263.600 C 111.513 263.600,112.064 263.780,112.200 264.000 C 112.336 264.220,112.966 264.400,113.600 264.400 C 114.234 264.400,114.864 264.580,115.000 264.800 C 115.136 265.020,115.766 265.200,116.400 265.200 C 117.034 265.200,117.664 265.380,117.800 265.600 C 117.936 265.820,118.847 266.000,119.824 266.000 C 120.830 266.000,121.600 266.187,121.600 266.432 C 121.600 266.736,124.142 266.801,130.100 266.650 C 134.775 266.532,152.670 266.427,169.866 266.418 L 201.132 266.400 201.132 200.174 C 201.131 150.168,201.017 133.908,200.666 133.783 C 199.808 133.478,121.600 133.396,121.600 133.700 M267.113 133.495 C 268.276 133.576,270.076 133.576,271.113 133.493 C 272.151 133.411,271.200 133.345,269.000 133.346 C 266.800 133.347,265.951 133.414,267.113 133.495 " stroke="none" fill="#b35cfc" fill-rule="evenodd"></path><path id="path1" d="M120.000 267.200 C 120.000 267.420,119.280 267.600,118.400 267.600 C 117.520 267.600,116.800 267.780,116.800 268.000 C 116.800 268.220,116.170 268.400,115.400 268.400 C 114.630 268.400,114.000 268.580,114.000 268.800 C 114.000 269.020,113.460 269.200,112.800 269.200 C 112.140 269.200,111.600 269.380,111.600 269.600 C 111.600 269.820,111.161 270.000,110.624 270.000 C 110.087 270.000,109.536 270.180,109.400 270.400 C 109.264 270.620,108.803 270.800,108.376 270.800 C 107.949 270.800,107.600 270.980,107.600 271.200 C 107.600 271.420,107.240 271.600,106.800 271.600 C 106.360 271.600,106.000 271.780,106.000 272.000 C 106.000 272.220,105.449 272.400,104.776 272.400 C 104.063 272.400,103.656 272.567,103.800 272.800 C 103.936 273.020,103.711 273.200,103.299 273.200 C 102.888 273.200,102.164 273.560,101.692 274.000 C 101.220 274.440,100.556 274.800,100.217 274.800 C 99.878 274.800,99.600 274.980,99.600 275.200 C 99.600 275.420,99.465 275.564,99.300 275.521 C 98.790 275.386,97.200 276.035,97.200 276.378 C 97.200 276.557,96.660 276.927,96.000 277.200 C 95.340 277.473,94.800 277.855,94.800 278.049 C 94.800 278.242,94.594 278.400,94.343 278.400 C 94.092 278.400,93.370 278.941,92.738 279.602 C 92.107 280.263,91.380 280.848,91.125 280.902 C 90.401 281.055,81.869 289.686,81.232 290.909 C 80.920 291.509,80.528 292.000,80.361 292.000 C 80.022 292.000,76.000 297.887,76.000 298.385 C 76.000 298.559,75.730 298.926,75.400 299.200 C 75.070 299.474,74.800 300.036,74.800 300.449 C 74.800 300.862,74.620 301.200,74.400 301.200 C 74.180 301.200,74.000 301.560,74.000 302.000 C 74.000 302.440,73.820 302.800,73.600 302.800 C 73.380 302.800,73.200 303.160,73.200 303.600 C 73.200 304.040,73.020 304.400,72.800 304.400 C 72.580 304.400,72.400 304.749,72.400 305.176 C 72.400 305.603,72.220 306.064,72.000 306.200 C 71.780 306.336,71.600 306.887,71.600 307.424 C 71.600 307.961,71.420 308.400,71.200 308.400 C 70.980 308.400,70.800 308.730,70.800 309.133 C 70.800 309.537,70.677 309.990,70.526 310.141 C 70.082 310.585,69.213 313.324,69.206 314.300 C 69.203 314.795,69.020 315.200,68.800 315.200 C 68.580 315.200,68.400 315.920,68.400 316.800 C 68.400 317.680,68.220 318.400,68.000 318.400 C 67.780 318.400,67.600 319.300,67.600 320.400 C 67.600 321.500,67.420 322.400,67.200 322.400 C 66.959 322.400,66.800 324.059,66.800 326.576 C 66.800 328.873,66.653 330.844,66.472 330.955 C 65.979 331.260,65.901 335.092,66.382 335.389 C 66.630 335.542,66.800 337.350,66.800 339.824 C 66.800 342.341,66.959 344.000,67.200 344.000 C 67.420 344.000,67.600 344.979,67.600 346.176 C 67.600 347.373,67.780 348.464,68.000 348.600 C 68.220 348.736,68.400 349.456,68.400 350.200 C 68.400 350.944,68.580 351.664,68.800 351.800 C 69.020 351.936,69.200 352.577,69.200 353.224 C 69.200 353.871,69.380 354.400,69.600 354.400 C 69.820 354.400,70.000 354.839,70.000 355.376 C 70.000 355.913,70.180 356.464,70.400 356.600 C 70.620 356.736,70.800 357.287,70.800 357.824 C 70.800 358.361,70.980 358.800,71.200 358.800 C 71.420 358.800,71.600 359.160,71.600 359.600 C 71.600 360.040,71.780 360.400,72.000 360.400 C 72.220 360.400,72.400 360.760,72.400 361.200 C 72.400 361.640,72.580 362.000,72.800 362.000 C 73.020 362.000,73.200 362.360,73.200 362.800 C 73.200 363.240,73.380 363.600,73.600 363.600 C 73.820 363.600,74.000 363.960,74.000 364.400 C 74.000 364.840,74.180 365.200,74.400 365.200 C 74.620 365.200,74.800 365.560,74.800 366.000 C 74.800 366.440,74.966 366.800,75.168 366.800 C 75.371 366.800,75.655 367.340,75.800 368.000 C 75.945 368.660,76.229 369.200,76.432 369.200 C 76.634 369.200,76.800 369.436,76.800 369.725 C 76.800 370.013,77.115 370.598,77.500 371.025 C 77.885 371.451,78.740 372.596,79.400 373.569 C 80.572 375.297,91.296 386.400,91.793 386.400 C 91.931 386.400,92.619 386.939,93.322 387.598 C 94.025 388.257,94.825 388.797,95.100 388.798 C 95.375 388.799,95.600 388.967,95.600 389.171 C 95.600 389.375,96.320 389.860,97.200 390.248 C 98.080 390.636,98.800 391.099,98.800 391.277 C 98.800 391.455,99.160 391.600,99.600 391.600 C 100.040 391.600,100.400 391.780,100.400 392.000 C 100.400 392.220,100.760 392.400,101.200 392.400 C 101.640 392.400,102.000 392.580,102.000 392.800 C 102.000 393.020,102.360 393.200,102.800 393.200 C 103.240 393.200,103.600 393.380,103.600 393.600 C 103.600 393.820,103.960 394.000,104.400 394.000 C 104.840 394.000,105.200 394.180,105.200 394.400 C 105.200 394.620,105.560 394.800,106.000 394.800 C 106.440 394.800,106.800 394.980,106.800 395.200 C 106.800 395.420,107.250 395.600,107.800 395.600 C 108.350 395.600,108.800 395.780,108.800 396.000 C 108.800 396.220,109.149 396.400,109.576 396.400 C 110.003 396.400,110.464 396.580,110.600 396.800 C 110.736 397.020,111.287 397.200,111.824 397.200 C 112.361 397.200,112.800 397.380,112.800 397.600 C 112.800 397.820,113.520 398.000,114.400 398.000 C 115.280 398.000,116.000 398.180,116.000 398.400 C 116.000 398.620,116.705 398.800,117.567 398.800 C 118.464 398.800,119.205 399.013,119.300 399.300 C 119.429 399.688,122.729 399.800,134.000 399.800 C 145.271 399.800,148.571 399.688,148.700 399.300 C 148.796 399.013,149.536 398.800,150.433 398.800 C 151.295 398.800,152.000 398.620,152.000 398.400 C 152.000 398.180,152.540 398.000,153.200 398.000 C 153.860 398.000,154.400 397.820,154.400 397.600 C 154.400 397.380,154.839 397.200,155.376 397.200 C 155.913 397.200,156.464 397.020,156.600 396.800 C 156.736 396.580,157.287 396.400,157.824 396.400 C 158.361 396.400,158.800 396.220,158.800 396.000 C 158.800 395.780,159.072 395.600,159.405 395.600 C 159.738 395.600,160.323 395.441,160.705 395.246 C 161.444 394.869,165.329 392.925,168.537 391.327 C 169.602 390.797,170.820 390.040,171.244 389.645 C 171.667 389.251,172.505 388.674,173.107 388.364 C 173.708 388.054,174.834 387.170,175.609 386.400 C 176.384 385.630,177.259 384.948,177.554 384.885 C 178.177 384.751,185.200 377.657,185.200 377.161 C 185.200 376.977,185.830 376.197,186.600 375.427 C 187.370 374.657,188.000 373.872,188.000 373.683 C 188.000 373.494,188.450 372.917,189.000 372.400 C 189.550 371.883,190.000 371.250,190.000 370.992 C 190.000 370.735,190.360 370.198,190.800 369.800 C 191.240 369.402,191.600 368.744,191.600 368.338 C 191.600 367.932,191.780 367.600,192.000 367.600 C 192.220 367.600,192.400 367.240,192.400 366.800 C 192.400 366.360,192.580 366.000,192.800 366.000 C 193.020 366.000,193.200 365.640,193.200 365.200 C 193.200 364.760,193.380 364.400,193.600 364.400 C 193.820 364.400,194.000 364.040,194.000 363.600 C 194.000 363.160,194.180 362.800,194.400 362.800 C 194.620 362.800,194.800 362.440,194.800 362.000 C 194.800 361.560,194.980 361.200,195.200 361.200 C 195.420 361.200,195.600 360.840,195.600 360.400 C 195.600 359.960,195.780 359.600,196.000 359.600 C 196.220 359.600,196.400 359.049,196.400 358.376 C 196.400 357.663,196.567 357.256,196.800 357.400 C 197.027 357.540,197.200 357.204,197.200 356.624 C 197.200 356.061,197.380 355.600,197.600 355.600 C 197.820 355.600,198.000 355.071,198.000 354.424 C 198.000 353.777,198.180 353.136,198.400 353.000 C 198.620 352.864,198.800 352.223,198.800 351.576 C 198.800 350.929,198.980 350.400,199.200 350.400 C 199.420 350.400,199.600 349.500,199.600 348.400 C 199.600 347.300,199.780 346.400,200.000 346.400 C 200.222 346.400,200.400 345.333,200.400 344.000 C 200.400 342.680,200.576 341.600,200.792 341.600 C 201.045 341.600,201.188 328.349,201.196 304.200 L 201.208 266.800 160.604 266.800 C 133.801 266.800,120.000 266.936,120.000 267.200 " stroke="none" fill="#04cc7c" fill-rule="evenodd"></path><path id="path2" d="M262.211 133.631 C 255.075 133.831,251.373 134.080,251.278 134.367 C 251.198 134.605,250.428 134.800,249.567 134.800 C 248.705 134.800,248.000 134.980,248.000 135.200 C 248.000 135.420,247.460 135.600,246.800 135.600 C 246.140 135.600,245.600 135.780,245.600 136.000 C 245.600 136.220,245.060 136.400,244.400 136.400 C 243.740 136.400,243.200 136.580,243.200 136.800 C 243.200 137.020,242.750 137.200,242.200 137.200 C 241.650 137.200,241.200 137.380,241.200 137.600 C 241.200 137.820,240.840 138.000,240.400 138.000 C 239.960 138.000,239.600 138.180,239.600 138.400 C 239.600 138.620,239.240 138.800,238.800 138.800 C 238.360 138.800,238.000 138.980,238.000 139.200 C 238.000 139.420,237.640 139.600,237.200 139.600 C 236.760 139.600,236.400 139.780,236.400 140.000 C 236.400 140.220,236.040 140.400,235.600 140.400 C 235.160 140.400,234.800 140.580,234.800 140.800 C 234.800 141.020,234.440 141.200,234.000 141.200 C 233.560 141.200,233.200 141.380,233.200 141.600 C 233.200 141.820,232.938 142.000,232.618 142.000 C 231.789 142.000,228.042 144.497,225.565 146.700 C 224.761 147.415,223.981 148.000,223.832 148.000 C 223.429 148.000,214.400 157.198,214.400 157.610 C 214.400 157.804,213.995 158.388,213.500 158.906 C 212.183 160.284,210.416 162.556,210.407 162.882 C 210.403 163.037,209.950 163.828,209.400 164.638 C 208.850 165.449,208.400 166.447,208.400 166.856 C 208.400 167.265,208.220 167.600,208.000 167.600 C 207.780 167.600,207.600 167.960,207.600 168.400 C 207.600 168.840,207.420 169.200,207.200 169.200 C 206.980 169.200,206.800 169.560,206.800 170.000 C 206.800 170.440,206.620 170.800,206.400 170.800 C 206.180 170.800,206.000 171.160,206.000 171.600 C 206.000 172.040,205.820 172.400,205.600 172.400 C 205.380 172.400,205.200 172.760,205.200 173.200 C 205.200 173.640,205.020 174.000,204.800 174.000 C 204.580 174.000,204.400 174.450,204.400 175.000 C 204.400 175.550,204.220 176.000,204.000 176.000 C 203.780 176.000,203.600 176.540,203.600 177.200 C 203.600 177.860,203.420 178.400,203.200 178.400 C 202.980 178.400,202.800 178.940,202.800 179.600 C 202.800 180.260,202.620 180.800,202.400 180.800 C 202.180 180.800,202.000 181.394,202.000 182.120 C 202.000 182.846,201.775 183.665,201.500 183.940 C 201.117 184.323,201.000 188.103,201.000 200.087 C 201.000 212.248,201.111 215.770,201.500 215.900 C 201.787 215.996,202.000 216.736,202.000 217.633 C 202.000 218.495,202.180 219.200,202.400 219.200 C 202.620 219.200,202.800 219.740,202.800 220.400 C 202.800 221.060,202.980 221.600,203.200 221.600 C 203.420 221.600,203.600 222.140,203.600 222.800 C 203.600 223.460,203.780 224.000,204.000 224.000 C 204.220 224.000,204.400 224.450,204.400 225.000 C 204.400 225.550,204.580 226.000,204.800 226.000 C 205.020 226.000,205.200 226.360,205.200 226.800 C 205.200 227.240,205.380 227.600,205.600 227.600 C 205.820 227.600,206.000 227.960,206.000 228.400 C 206.000 228.840,206.180 229.200,206.400 229.200 C 206.620 229.200,206.800 229.560,206.800 230.000 C 206.800 230.440,206.980 230.800,207.200 230.800 C 207.420 230.800,207.600 231.160,207.600 231.600 C 207.600 232.040,207.780 232.400,208.000 232.400 C 208.220 232.400,208.400 232.735,208.400 233.144 C 208.400 233.553,208.850 234.551,209.400 235.362 C 209.950 236.172,210.400 236.963,210.400 237.118 C 210.401 237.401,211.545 238.845,213.403 240.907 C 213.951 241.516,214.400 242.178,214.400 242.379 C 214.400 242.798,223.422 252.000,223.832 252.000 C 223.981 252.000,224.761 252.585,225.565 253.300 C 228.042 255.503,231.789 258.000,232.618 258.000 C 232.938 258.000,233.200 258.180,233.200 258.400 C 233.200 258.620,233.560 258.800,234.000 258.800 C 234.440 258.800,234.800 258.980,234.800 259.200 C 234.800 259.420,235.160 259.600,235.600 259.600 C 236.040 259.600,236.400 259.780,236.400 260.000 C 236.400 260.220,236.760 260.400,237.200 260.400 C 237.640 260.400,238.000 260.580,238.000 260.800 C 238.000 261.020,238.360 261.200,238.800 261.200 C 239.240 261.200,239.600 261.380,239.600 261.600 C 239.600 261.820,239.960 262.000,240.400 262.000 C 240.840 262.000,241.200 262.180,241.200 262.400 C 241.200 262.620,241.650 262.800,242.200 262.800 C 242.750 262.800,243.200 262.980,243.200 263.200 C 243.200 263.420,243.740 263.600,244.400 263.600 C 245.060 263.600,245.600 263.780,245.600 264.000 C 245.600 264.220,246.140 264.400,246.800 264.400 C 247.460 264.400,248.000 264.580,248.000 264.800 C 248.000 265.020,248.720 265.200,249.600 265.200 C 250.480 265.200,251.200 265.380,251.200 265.600 C 251.200 265.820,252.100 266.000,253.200 266.000 C 254.300 266.000,255.200 266.180,255.200 266.400 C 255.200 266.631,256.459 266.800,258.176 266.800 C 259.813 266.800,261.264 266.980,261.400 267.200 C 261.546 267.436,263.930 267.600,267.200 267.600 C 270.470 267.600,272.854 267.436,273.000 267.200 C 273.136 266.980,274.587 266.800,276.224 266.800 C 277.941 266.800,279.200 266.631,279.200 266.400 C 279.200 266.180,280.100 266.000,281.200 266.000 C 282.300 266.000,283.200 265.820,283.200 265.600 C 283.200 265.380,283.819 265.200,284.576 265.200 C 285.333 265.200,286.064 265.020,286.200 264.800 C 286.336 264.580,286.977 264.400,287.624 264.400 C 288.271 264.400,288.800 264.220,288.800 264.000 C 288.800 263.780,289.250 263.600,289.800 263.600 C 290.350 263.600,290.800 263.420,290.800 263.200 C 290.800 262.980,291.340 262.800,292.000 262.800 C 292.660 262.800,293.200 262.620,293.200 262.400 C 293.200 262.180,293.560 262.000,294.000 262.000 C 294.440 262.000,294.800 261.820,294.800 261.600 C 294.800 261.380,295.160 261.200,295.600 261.200 C 296.040 261.200,296.400 261.020,296.400 260.800 C 296.400 260.580,296.760 260.400,297.200 260.400 C 297.640 260.400,298.000 260.220,298.000 260.000 C 298.000 259.780,298.360 259.600,298.800 259.600 C 299.240 259.600,299.600 259.420,299.600 259.200 C 299.600 258.980,299.960 258.800,300.400 258.800 C 300.840 258.800,301.200 258.632,301.200 258.427 C 301.200 258.222,301.605 257.927,302.100 257.772 C 303.128 257.450,306.533 255.210,306.733 254.723 C 306.807 254.545,307.049 254.400,307.273 254.400 C 307.496 254.400,308.183 253.860,308.800 253.200 C 309.417 252.540,310.112 252.000,310.347 252.000 C 310.902 252.000,319.200 243.702,319.200 243.147 C 319.200 242.912,319.740 242.217,320.400 241.600 C 321.060 240.983,321.600 240.364,321.600 240.223 C 321.600 240.082,321.950 239.591,322.378 239.131 C 322.806 238.672,323.661 237.330,324.278 236.149 C 324.895 234.968,325.535 234.001,325.700 234.001 C 325.865 234.000,326.000 233.640,326.000 233.200 C 326.000 232.760,326.180 232.400,326.400 232.400 C 326.620 232.400,326.800 232.040,326.800 231.600 C 326.800 231.160,326.980 230.800,327.200 230.800 C 327.420 230.800,327.600 230.440,327.600 230.000 C 327.600 229.560,327.780 229.200,328.000 229.200 C 328.220 229.200,328.400 228.840,328.400 228.400 C 328.400 227.960,328.580 227.600,328.800 227.600 C 329.020 227.600,329.200 227.060,329.200 226.400 C 329.200 225.740,329.380 225.200,329.600 225.200 C 329.820 225.200,330.000 224.840,330.000 224.400 C 330.000 223.960,330.180 223.600,330.400 223.600 C 330.620 223.600,330.800 223.150,330.800 222.600 C 330.800 222.050,330.980 221.600,331.200 221.600 C 331.420 221.600,331.600 221.071,331.600 220.424 C 331.600 219.777,331.780 219.136,332.000 219.000 C 332.220 218.864,332.400 218.144,332.400 217.400 C 332.400 216.656,332.580 215.936,332.800 215.800 C 333.020 215.664,333.200 214.753,333.200 213.776 C 333.200 212.799,333.380 212.000,333.600 212.000 C 333.835 212.000,334.000 210.600,334.000 208.600 C 334.000 206.600,334.165 205.200,334.400 205.200 C 334.646 205.200,334.800 203.200,334.800 200.000 C 334.800 196.800,334.646 194.800,334.400 194.800 C 334.165 194.800,334.000 193.400,334.000 191.400 C 334.000 189.400,333.835 188.000,333.600 188.000 C 333.380 188.000,333.200 187.100,333.200 186.000 C 333.200 184.900,333.020 184.000,332.800 184.000 C 332.580 184.000,332.400 183.381,332.400 182.624 C 332.400 181.867,332.220 181.136,332.000 181.000 C 331.780 180.864,331.600 180.223,331.600 179.576 C 331.600 178.929,331.420 178.400,331.200 178.400 C 330.980 178.400,330.800 177.950,330.800 177.400 C 330.800 176.850,330.620 176.400,330.400 176.400 C 330.180 176.400,330.000 176.051,330.000 175.624 C 330.000 175.197,329.820 174.736,329.600 174.600 C 329.380 174.464,329.200 173.913,329.200 173.376 C 329.200 172.839,329.020 172.400,328.800 172.400 C 328.580 172.400,328.400 172.040,328.400 171.600 C 328.400 171.160,328.220 170.800,328.000 170.800 C 327.780 170.800,327.600 170.440,327.600 170.000 C 327.600 169.560,327.420 169.200,327.200 169.200 C 326.980 169.200,326.800 168.840,326.800 168.400 C 326.800 167.960,326.620 167.600,326.400 167.600 C 326.180 167.600,326.000 167.240,326.000 166.800 C 326.000 166.360,325.865 166.000,325.700 165.999 C 325.535 165.999,324.895 165.032,324.278 163.851 C 323.661 162.670,322.806 161.328,322.378 160.869 C 321.950 160.409,321.600 159.918,321.600 159.777 C 321.600 159.636,321.060 159.017,320.400 158.400 C 319.740 157.783,319.200 157.088,319.200 156.853 C 319.200 156.298,310.902 148.000,310.347 148.000 C 310.112 148.000,309.444 147.492,308.860 146.871 C 307.593 145.522,302.419 142.000,301.704 142.000 C 301.427 142.000,301.200 141.820,301.200 141.600 C 301.200 141.380,300.840 141.200,300.400 141.200 C 299.960 141.200,299.600 141.020,299.600 140.800 C 299.600 140.580,299.240 140.400,298.800 140.400 C 298.360 140.400,298.000 140.220,298.000 140.000 C 298.000 139.780,297.640 139.600,297.200 139.600 C 296.760 139.600,296.400 139.420,296.400 139.200 C 296.400 138.980,296.040 138.800,295.600 138.800 C 295.160 138.800,294.800 138.620,294.800 138.400 C 294.800 138.180,294.440 138.000,294.000 138.000 C 293.560 138.000,293.200 137.820,293.200 137.600 C 293.200 137.380,292.660 137.200,292.000 137.200 C 291.340 137.200,290.800 137.020,290.800 136.800 C 290.800 136.580,290.350 136.400,289.800 136.400 C 289.250 136.400,288.800 136.220,288.800 136.000 C 288.800 135.780,288.260 135.600,287.600 135.600 C 286.940 135.600,286.400 135.420,286.400 135.200 C 286.400 134.980,285.680 134.800,284.800 134.800 C 283.920 134.800,283.200 134.620,283.200 134.400 C 283.200 134.180,282.300 134.000,281.200 134.000 C 280.100 134.000,279.200 133.820,279.200 133.600 C 279.200 133.166,278.754 133.167,262.211 133.631 M151.130 266.700 C 160.441 266.760,175.561 266.760,184.730 266.700 C 193.898 266.640,186.280 266.591,167.800 266.591 C 149.320 266.591,141.818 266.640,151.130 266.700 " stroke="none" fill="#04bcfc" fill-rule="evenodd"></path><path id="path3" d="M200.685 0.249 C 200.528 0.405,200.400 30.293,200.400 66.667 L 200.400 132.800 165.700 132.850 C 146.615 132.877,129.740 133.014,128.200 133.155 C 123.320 133.601,252.279 134.053,260.400 133.619 C 264.470 133.401,270.444 133.218,273.676 133.211 C 277.150 133.205,279.654 133.036,279.800 132.800 C 279.936 132.580,280.757 132.400,281.624 132.400 C 282.491 132.400,283.200 132.220,283.200 132.000 C 283.200 131.780,283.819 131.600,284.576 131.600 C 285.333 131.600,286.064 131.420,286.200 131.200 C 286.336 130.980,286.887 130.800,287.424 130.800 C 287.961 130.800,288.400 130.620,288.400 130.400 C 288.400 130.180,288.839 130.000,289.376 130.000 C 289.913 130.000,290.464 129.820,290.600 129.600 C 290.736 129.380,291.197 129.200,291.624 129.200 C 292.051 129.200,292.400 129.020,292.400 128.800 C 292.400 128.580,292.760 128.400,293.200 128.400 C 293.640 128.400,294.000 128.220,294.000 128.000 C 294.000 127.780,294.253 127.600,294.562 127.600 C 295.228 127.600,298.541 125.932,298.733 125.500 C 298.807 125.335,299.124 125.200,299.439 125.200 C 300.339 125.200,306.298 121.409,307.600 120.008 C 307.930 119.653,308.830 118.925,309.600 118.391 C 311.352 117.176,318.400 110.077,318.400 109.527 C 318.400 109.304,318.940 108.617,319.600 108.000 C 320.260 107.383,320.800 106.761,320.800 106.616 C 320.800 106.471,321.317 105.689,321.950 104.877 C 322.582 104.064,323.617 102.410,324.250 101.200 C 324.882 99.990,325.535 98.940,325.700 98.867 C 325.865 98.793,326.000 98.388,326.000 97.967 C 326.000 97.545,326.180 97.200,326.400 97.200 C 326.620 97.200,326.800 96.840,326.800 96.400 C 326.800 95.960,326.980 95.600,327.200 95.600 C 327.420 95.600,327.600 95.240,327.600 94.800 C 327.600 94.360,327.780 94.000,328.000 94.000 C 328.220 94.000,328.400 93.460,328.400 92.800 C 328.400 92.140,328.580 91.600,328.800 91.600 C 329.020 91.600,329.200 91.251,329.200 90.824 C 329.200 90.397,329.380 89.936,329.600 89.800 C 329.820 89.664,330.000 89.113,330.000 88.576 C 330.000 88.039,330.180 87.600,330.400 87.600 C 330.620 87.600,330.800 86.970,330.800 86.200 C 330.800 85.430,330.980 84.800,331.200 84.800 C 331.420 84.800,331.600 84.080,331.600 83.200 C 331.600 82.320,331.780 81.600,332.000 81.600 C 332.220 81.600,332.400 80.736,332.400 79.680 C 332.400 78.624,332.569 77.589,332.775 77.380 C 333.728 76.416,333.729 56.000,332.776 56.000 C 332.569 56.000,332.400 55.111,332.400 54.024 C 332.400 52.937,332.220 51.936,332.000 51.800 C 331.780 51.664,331.600 50.944,331.600 50.200 C 331.600 49.456,331.420 48.736,331.200 48.600 C 330.980 48.464,330.800 47.834,330.800 47.200 C 330.800 46.566,330.620 45.936,330.400 45.800 C 330.180 45.664,330.000 45.113,330.000 44.576 C 330.000 44.039,329.820 43.600,329.600 43.600 C 329.380 43.600,329.200 43.251,329.200 42.824 C 329.200 42.397,329.020 41.936,328.800 41.800 C 328.580 41.664,328.400 41.113,328.400 40.576 C 328.400 40.039,328.220 39.600,328.000 39.600 C 327.780 39.600,327.600 39.240,327.600 38.800 C 327.600 38.360,327.420 38.000,327.200 38.000 C 326.980 38.000,326.800 37.640,326.800 37.200 C 326.800 36.760,326.620 36.400,326.400 36.400 C 326.180 36.400,326.000 36.040,326.000 35.600 C 326.000 35.160,325.820 34.800,325.600 34.800 C 325.380 34.800,325.200 34.533,325.200 34.206 C 325.200 31.893,310.128 13.600,308.222 13.600 C 308.120 13.600,306.891 12.745,305.492 11.700 C 304.092 10.655,302.239 9.440,301.374 9.000 C 300.508 8.560,299.740 8.065,299.667 7.900 C 299.593 7.735,299.188 7.600,298.767 7.600 C 298.345 7.600,298.000 7.420,298.000 7.200 C 298.000 6.980,297.640 6.800,297.200 6.800 C 296.760 6.800,296.400 6.620,296.400 6.400 C 296.400 6.180,296.040 6.000,295.600 6.000 C 295.160 6.000,294.800 5.820,294.800 5.600 C 294.800 5.380,294.440 5.200,294.000 5.200 C 293.560 5.200,293.200 5.020,293.200 4.800 C 293.200 4.580,292.660 4.400,292.000 4.400 C 291.340 4.400,290.800 4.220,290.800 4.000 C 290.800 3.780,290.440 3.600,290.000 3.600 C 289.560 3.600,289.200 3.420,289.200 3.200 C 289.200 2.980,288.761 2.800,288.224 2.800 C 287.687 2.800,287.136 2.620,287.000 2.400 C 286.864 2.180,286.133 2.000,285.376 2.000 C 284.619 2.000,284.000 1.820,284.000 1.600 C 284.000 1.380,283.295 1.200,282.433 1.200 C 281.536 1.200,280.796 0.987,280.700 0.700 C 280.515 0.146,201.235 -0.301,200.685 0.249 " stroke="none" fill="#fc7464" fill-rule="evenodd"></path><path id="path4" d="M120.400 0.297 C 119.190 0.379,118.029 0.616,117.820 0.823 C 117.611 1.030,116.857 1.200,116.144 1.200 C 115.431 1.200,114.736 1.380,114.600 1.600 C 114.464 1.820,113.823 2.000,113.176 2.000 C 112.529 2.000,112.000 2.180,112.000 2.400 C 112.000 2.620,111.561 2.800,111.024 2.800 C 110.487 2.800,109.936 2.980,109.800 3.200 C 109.664 3.420,109.113 3.600,108.576 3.600 C 108.039 3.600,107.600 3.780,107.600 4.000 C 107.600 4.220,107.240 4.400,106.800 4.400 C 106.360 4.400,106.000 4.580,106.000 4.800 C 106.000 5.020,105.640 5.200,105.200 5.200 C 104.760 5.200,104.400 5.380,104.400 5.600 C 104.400 5.820,104.166 6.000,103.880 6.000 C 103.144 6.000,101.207 6.941,101.203 7.300 C 101.201 7.465,100.840 7.600,100.400 7.600 C 99.960 7.600,99.600 7.780,99.600 8.000 C 99.600 8.220,99.317 8.400,98.970 8.400 C 98.624 8.400,97.062 9.255,95.500 10.300 C 93.938 11.345,92.389 12.380,92.059 12.600 C 91.728 12.820,90.703 13.720,89.783 14.600 C 87.799 16.496,86.472 17.600,86.177 17.600 C 85.838 17.600,84.000 19.530,84.000 19.886 C 84.000 20.063,83.640 20.432,83.200 20.707 C 82.760 20.982,82.400 21.399,82.400 21.635 C 82.400 21.870,81.716 22.724,80.880 23.531 C 78.741 25.598,74.800 31.415,74.800 32.506 C 74.800 32.791,74.440 33.283,74.000 33.600 C 73.560 33.917,73.200 34.497,73.200 34.888 C 73.200 35.280,73.020 35.600,72.800 35.600 C 72.580 35.600,72.400 35.960,72.400 36.400 C 72.400 36.840,72.220 37.200,72.000 37.200 C 71.780 37.200,71.600 37.639,71.600 38.176 C 71.600 38.713,71.420 39.264,71.200 39.400 C 70.980 39.536,70.800 39.997,70.800 40.424 C 70.800 40.851,70.620 41.200,70.400 41.200 C 70.180 41.200,70.000 41.560,70.000 42.000 C 70.000 42.440,69.820 42.800,69.600 42.800 C 69.380 42.800,69.200 43.340,69.200 44.000 C 69.200 44.660,69.020 45.200,68.800 45.200 C 68.580 45.200,68.400 45.830,68.400 46.600 C 68.400 47.370,68.220 48.000,68.000 48.000 C 67.780 48.000,67.600 48.594,67.600 49.320 C 67.600 50.046,67.430 50.811,67.222 51.020 C 67.015 51.229,66.801 52.255,66.748 53.300 C 66.694 54.345,66.504 55.200,66.325 55.200 C 66.146 55.200,66.000 56.539,66.000 58.176 C 66.000 59.813,65.820 61.264,65.600 61.400 C 65.063 61.732,65.063 72.000,65.600 72.000 C 65.833 72.000,66.000 73.333,66.000 75.200 C 66.000 77.067,66.167 78.400,66.400 78.400 C 66.620 78.400,66.800 79.300,66.800 80.400 C 66.800 81.500,66.980 82.400,67.200 82.400 C 67.420 82.400,67.600 83.120,67.600 84.000 C 67.600 84.880,67.780 85.600,68.000 85.600 C 68.220 85.600,68.400 86.140,68.400 86.800 C 68.400 87.460,68.580 88.000,68.800 88.000 C 69.020 88.000,69.200 88.540,69.200 89.200 C 69.200 89.860,69.380 90.400,69.600 90.400 C 69.820 90.400,70.000 90.850,70.000 91.400 C 70.000 91.950,70.180 92.400,70.400 92.400 C 70.620 92.400,70.800 92.760,70.800 93.200 C 70.800 93.640,70.980 94.000,71.200 94.000 C 71.420 94.000,71.600 94.360,71.600 94.800 C 71.600 95.240,71.780 95.600,72.000 95.600 C 72.220 95.600,72.400 95.960,72.400 96.400 C 72.400 96.840,72.580 97.200,72.800 97.200 C 73.020 97.200,73.200 97.560,73.200 98.000 C 73.200 98.440,73.380 98.800,73.600 98.800 C 73.820 98.800,74.000 99.160,74.000 99.600 C 74.000 100.040,74.180 100.400,74.400 100.400 C 74.620 100.400,74.800 100.749,74.800 101.176 C 74.800 101.603,74.975 102.061,75.189 102.193 C 75.403 102.326,75.874 103.056,76.235 103.817 C 76.596 104.578,77.051 105.200,77.246 105.200 C 77.441 105.200,77.600 105.406,77.600 105.657 C 77.600 105.908,78.140 106.629,78.800 107.260 C 79.460 107.891,80.000 108.587,80.000 108.807 C 80.000 109.400,89.638 118.906,90.909 119.568 C 91.509 119.880,92.000 120.278,92.000 120.453 C 92.000 120.860,95.954 123.523,98.800 125.033 C 100.010 125.675,101.060 126.335,101.133 126.500 C 101.207 126.665,101.612 126.800,102.033 126.800 C 102.455 126.800,102.800 126.980,102.800 127.200 C 102.800 127.420,103.160 127.600,103.600 127.600 C 104.040 127.600,104.400 127.780,104.400 128.000 C 104.400 128.220,104.940 128.400,105.600 128.400 C 106.260 128.400,106.800 128.580,106.800 128.800 C 106.800 129.020,107.160 129.200,107.600 129.200 C 108.040 129.200,108.400 129.380,108.400 129.600 C 108.400 129.820,108.850 130.000,109.400 130.000 C 109.950 130.000,110.400 130.180,110.400 130.400 C 110.400 130.620,110.940 130.800,111.600 130.800 C 112.260 130.800,112.800 130.980,112.800 131.200 C 112.800 131.420,113.520 131.600,114.400 131.600 C 115.280 131.600,116.000 131.780,116.000 132.000 C 116.000 132.220,116.705 132.400,117.567 132.400 C 118.428 132.400,119.193 132.538,119.267 132.707 C 119.340 132.876,137.624 132.947,159.898 132.864 L 200.395 132.714 200.498 66.357 L 200.600 -0.000 161.600 0.074 C 140.150 0.115,121.610 0.215,120.400 0.297 " stroke="none" fill="#fc4c14" fill-rule="evenodd"></path></g></svg>