<svg id="svg" version="1.1" xmlns="http://www.w3.org/2000/svg" xmlns:xlink="http://www.w3.org/1999/xlink" width="400" height="400" viewBox="0, 0, 400,400"><g id="svgg"><path id="path0" d="M220.097 217.584 C 220.192 217.932,220.889 218.228,221.828 218.319 C 223.636 218.494,223.610 218.148,221.800 217.940 C 221.140 217.865,220.451 217.622,220.270 217.401 C 220.070 217.160,220.002 217.232,220.097 217.584 M275.483 219.700 L 275.656 220.600 268.728 220.501 C 249.958 220.233,228.496 220.233,228.662 220.500 C 228.764 220.665,228.657 220.800,228.424 220.800 C 227.778 220.800,227.919 221.483,228.621 221.753 C 228.962 221.884,229.144 221.833,229.025 221.641 C 228.906 221.448,229.193 221.191,229.662 221.068 C 230.302 220.900,230.401 220.959,230.058 221.302 C 229.218 222.142,229.587 222.535,230.500 221.773 C 230.995 221.359,231.175 221.277,230.900 221.591 C 230.222 222.363,230.270 222.825,231.000 222.545 C 231.333 222.417,231.600 222.533,231.600 222.806 C 231.600 223.173,231.772 223.158,232.275 222.749 C 232.874 222.262,232.919 222.290,232.674 223.000 C 232.402 223.788,232.407 223.788,232.999 223.024 C 233.330 222.596,233.621 222.416,233.646 222.624 C 233.672 222.831,233.717 223.267,233.746 223.593 C 233.776 223.920,234.160 224.256,234.600 224.340 C 235.040 224.424,235.532 224.697,235.694 224.946 C 235.900 225.264,235.990 225.242,235.994 224.871 C 235.998 224.507,236.328 224.600,237.054 225.171 C 237.634 225.627,238.454 226.000,238.878 226.000 C 239.301 226.000,239.536 226.180,239.400 226.400 C 239.260 226.627,239.596 226.800,240.176 226.800 C 240.739 226.800,241.200 226.980,241.200 227.200 C 241.200 227.420,241.335 227.579,241.500 227.553 C 242.524 227.391,243.561 227.704,244.308 228.400 C 244.780 228.840,245.330 229.200,245.530 229.200 C 247.081 229.200,249.876 230.930,249.777 231.829 C 249.718 232.363,249.835 232.800,250.035 232.800 C 250.236 232.800,250.400 233.880,250.400 235.200 C 250.400 236.533,250.578 237.600,250.800 237.600 C 251.020 237.600,251.200 238.052,251.200 238.605 C 251.200 239.158,251.380 239.968,251.600 240.405 C 251.820 240.842,252.180 241.558,252.400 241.995 C 252.620 242.432,252.800 243.152,252.800 243.595 C 252.800 244.038,252.980 244.400,253.200 244.400 C 253.420 244.400,253.600 244.749,253.600 245.176 C 253.600 245.603,253.780 246.064,254.000 246.200 C 254.220 246.336,254.400 246.797,254.400 247.224 C 254.400 247.651,254.580 248.000,254.800 248.000 C 255.020 248.000,255.200 248.360,255.200 248.800 C 255.200 249.240,255.380 249.600,255.600 249.600 C 255.820 249.600,256.000 249.971,256.000 250.424 C 256.000 250.877,256.159 251.149,256.354 251.029 C 256.548 250.909,256.930 251.348,257.202 252.005 C 257.474 252.662,257.855 253.200,258.049 253.200 C 258.242 253.200,258.400 253.451,258.400 253.758 C 258.400 254.064,258.940 254.893,259.600 255.600 C 260.260 256.307,260.800 257.006,260.800 257.153 C 260.800 257.301,261.115 257.698,261.500 258.035 C 261.885 258.371,262.854 259.401,263.654 260.324 C 264.454 261.246,265.228 262.000,265.373 262.000 C 265.519 262.000,266.534 262.896,267.629 263.990 C 268.723 265.085,269.660 265.946,269.710 265.902 C 269.864 265.768,273.792 268.535,273.933 268.877 C 274.007 269.055,274.282 269.200,274.544 269.200 C 274.807 269.200,276.097 269.758,277.411 270.441 C 278.725 271.124,280.129 271.746,280.532 271.824 C 281.990 272.107,282.800 272.461,282.800 272.814 C 282.800 273.013,283.056 273.077,283.369 272.957 C 283.682 272.837,284.357 272.966,284.869 273.245 C 285.922 273.817,286.279 273.908,288.800 274.248 C 289.790 274.381,290.782 274.636,291.004 274.814 C 291.548 275.251,308.400 275.320,308.400 274.886 C 308.400 274.697,309.331 274.500,310.469 274.449 C 311.607 274.397,312.867 274.178,313.269 273.963 C 313.671 273.748,314.000 273.673,314.000 273.796 C 314.000 273.920,314.545 273.739,315.212 273.394 C 315.878 273.049,316.578 272.863,316.766 272.979 C 316.955 273.096,317.332 272.923,317.604 272.596 C 317.876 272.268,318.352 272.000,318.662 272.000 C 318.972 272.000,320.524 271.370,322.111 270.600 C 323.699 269.830,325.204 269.200,325.456 269.200 C 325.708 269.200,326.014 268.939,326.137 268.621 C 326.259 268.302,326.953 267.737,327.679 267.365 C 328.406 266.993,329.092 266.548,329.204 266.376 C 329.316 266.205,329.659 266.005,329.966 265.932 C 330.274 265.859,331.397 264.947,332.463 263.905 C 333.528 262.863,334.400 262.080,334.400 262.166 C 334.400 262.251,335.293 261.501,336.385 260.499 C 337.477 259.496,338.276 258.522,338.160 258.335 C 338.044 258.148,338.231 257.886,338.575 257.754 C 338.919 257.622,339.200 257.373,339.200 257.200 C 339.200 257.026,339.695 256.354,340.300 255.706 C 340.905 255.057,341.669 254.003,341.997 253.363 C 342.326 252.724,342.911 251.909,343.297 251.553 C 343.684 251.197,344.000 250.738,344.000 250.533 C 344.000 249.912,344.979 248.006,345.300 248.003 C 345.465 248.001,345.600 247.678,345.600 247.285 C 345.600 246.891,345.960 245.863,346.400 245.000 C 346.840 244.137,347.200 243.120,347.200 242.739 C 347.200 242.359,347.380 241.936,347.600 241.800 C 347.820 241.664,348.000 241.203,348.000 240.776 C 348.000 240.349,348.141 240.000,348.313 240.000 C 348.485 240.000,348.666 239.515,348.715 238.922 C 348.764 238.330,348.938 237.745,349.102 237.622 C 349.266 237.500,349.435 236.950,349.477 236.400 C 349.741 232.969,349.832 232.401,350.116 232.401 C 350.289 232.400,350.405 230.241,350.374 227.602 C 350.332 224.118,350.191 222.880,349.858 223.079 C 349.606 223.230,349.640 223.058,349.933 222.696 C 350.443 222.067,350.255 220.404,349.673 220.397 C 331.178 220.168,324.133 220.252,324.133 220.700 C 324.133 220.975,324.328 221.203,324.567 221.206 C 324.805 221.209,324.760 221.364,324.466 221.550 C 324.044 221.818,324.078 221.944,324.628 222.155 C 325.275 222.404,325.270 222.461,324.561 222.984 C 323.951 223.435,323.899 223.647,324.300 224.053 C 324.896 224.657,324.969 225.352,324.400 225.000 C 324.169 224.857,324.003 225.228,324.006 225.876 C 324.011 226.749,324.099 226.866,324.400 226.400 C 324.731 225.887,324.789 225.902,324.794 226.500 C 324.797 226.885,324.620 227.200,324.400 227.200 C 324.180 227.200,324.000 228.201,324.000 229.424 C 324.000 230.804,323.848 231.553,323.600 231.400 C 323.374 231.260,323.200 231.588,323.200 232.153 C 323.200 232.703,323.020 233.264,322.800 233.400 C 322.580 233.536,322.400 233.997,322.400 234.424 C 322.400 234.851,322.220 235.200,322.000 235.200 C 321.780 235.200,321.600 235.470,321.600 235.800 C 321.600 236.130,321.409 236.400,321.176 236.400 C 320.943 236.400,320.850 236.557,320.968 236.748 C 321.087 236.940,320.827 237.508,320.392 238.010 C 319.956 238.512,319.600 239.075,319.600 239.261 C 319.600 239.654,315.792 243.403,314.130 244.645 C 312.725 245.696,308.264 247.964,307.309 248.113 C 306.919 248.173,306.385 248.357,306.122 248.522 C 305.859 248.686,304.554 248.851,303.222 248.888 C 301.890 248.926,300.800 249.090,300.800 249.253 C 300.800 249.417,300.440 249.523,300.000 249.490 C 299.560 249.457,299.199 249.333,299.197 249.215 C 299.196 249.097,298.251 248.957,297.097 248.905 C 294.769 248.800,291.600 247.997,291.600 247.513 C 291.600 247.341,291.150 247.200,290.600 247.200 C 290.050 247.200,289.600 247.040,289.600 246.843 C 289.600 246.647,289.116 246.365,288.524 246.217 C 286.740 245.769,280.000 239.719,280.000 238.565 C 280.000 238.254,279.820 238.000,279.600 238.000 C 279.380 238.000,279.200 237.629,279.200 237.176 C 279.200 236.723,279.020 236.464,278.800 236.600 C 278.580 236.736,278.400 236.567,278.400 236.224 C 278.400 235.881,278.220 235.600,278.000 235.600 C 277.780 235.600,277.600 235.251,277.600 234.824 C 277.600 234.397,277.420 233.936,277.200 233.800 C 276.980 233.664,276.800 232.933,276.800 232.176 C 276.800 231.419,276.620 230.800,276.400 230.800 C 276.180 230.800,276.000 229.900,276.000 228.800 C 276.000 227.470,275.833 226.798,275.500 226.794 C 275.166 226.790,275.199 226.657,275.600 226.394 C 275.976 226.147,276.051 225.888,275.800 225.700 C 275.197 225.248,275.132 224.401,275.700 224.394 C 276.034 224.390,276.001 224.257,275.600 223.994 C 275.067 223.644,275.067 223.556,275.600 223.206 C 276.132 222.857,275.903 222.634,275.125 222.744 C 274.975 222.766,274.876 222.447,274.907 222.035 C 274.940 221.600,275.180 221.371,275.482 221.487 C 275.847 221.627,276.000 221.260,276.000 220.243 C 276.000 219.449,275.845 218.800,275.655 218.800 C 275.466 218.800,275.389 219.205,275.483 219.700 M225.408 220.413 C 225.574 220.681,228.000 220.427,228.000 220.142 C 228.000 220.050,227.382 220.017,226.626 220.067 C 225.870 220.118,225.322 220.274,225.408 220.413 M75.059 222.500 C 74.920 223.655,74.805 237.163,74.803 252.518 L 74.800 280.436 73.881 281.318 C 73.376 281.803,72.431 282.510,71.781 282.890 C 71.131 283.269,70.643 283.758,70.695 283.975 C 70.748 284.193,70.531 284.272,70.213 284.150 C 69.867 284.017,69.013 284.584,68.080 285.564 C 67.224 286.464,66.305 287.200,66.038 287.200 C 65.771 287.200,65.664 287.380,65.800 287.600 C 65.936 287.820,65.756 288.000,65.400 288.000 C 65.044 288.000,64.864 288.180,65.000 288.400 C 65.136 288.620,65.012 288.805,64.724 288.811 C 64.436 288.817,63.750 289.429,63.200 290.172 C 62.650 290.914,62.037 291.421,61.838 291.299 C 61.639 291.177,61.590 291.260,61.729 291.485 C 61.868 291.709,61.625 292.215,61.191 292.609 C 60.756 293.002,60.400 293.566,60.400 293.862 C 60.400 294.158,60.200 294.355,59.955 294.300 C 59.710 294.245,59.435 294.646,59.343 295.191 C 59.252 295.737,58.992 296.367,58.765 296.591 C 58.482 296.871,58.440 296.748,58.630 296.200 L 58.908 295.400 58.267 296.200 C 57.914 296.640,57.620 297.225,57.613 297.500 C 57.606 297.775,57.390 298.000,57.133 298.000 C 56.877 298.000,56.801 298.135,56.966 298.299 C 57.131 298.464,57.521 298.250,57.833 297.823 C 58.352 297.113,58.558 297.297,58.481 298.400 C 58.473 298.510,77.144 298.600,99.971 298.600 L 141.475 298.600 141.916 297.665 C 142.284 296.886,142.257 296.769,141.754 296.962 C 141.309 297.133,141.183 296.959,141.275 296.297 C 141.367 295.641,141.208 295.416,140.686 295.458 C 140.141 295.502,140.034 295.323,140.233 294.697 C 140.435 294.060,140.352 293.933,139.857 294.123 C 139.061 294.428,138.015 293.028,138.281 292.013 C 138.410 291.518,138.202 291.191,137.645 291.014 C 137.189 290.870,136.857 290.627,136.908 290.476 C 137.036 290.089,134.604 287.600,134.098 287.600 C 133.870 287.600,133.130 286.970,132.454 286.200 C 131.778 285.430,130.904 284.786,130.512 284.768 C 130.096 284.750,130.007 284.653,130.298 284.536 C 130.572 284.425,129.942 283.885,128.898 283.337 C 127.854 282.788,126.595 281.910,126.100 281.387 L 125.200 280.435 125.197 252.517 C 125.195 237.163,125.080 223.655,124.941 222.500 L 124.689 220.400 100.000 220.400 L 75.311 220.400 75.059 222.500 M56.000 299.196 C 56.000 299.413,56.437 299.555,56.971 299.511 C 57.505 299.466,57.855 299.288,57.748 299.115 C 57.466 298.660,56.000 298.727,56.000 299.196 M98.403 299.989 C 97.967 300.265,97.926 300.486,98.250 300.810 C 98.574 301.134,98.751 301.031,98.909 300.426 C 99.028 299.972,99.097 299.603,99.063 299.606 C 99.028 299.609,98.732 299.782,98.403 299.989 M101.206 299.924 C 101.203 300.212,101.020 300.336,100.800 300.200 C 100.580 300.064,100.400 300.132,100.400 300.352 C 100.400 300.571,100.715 300.754,101.100 300.758 C 101.485 300.763,102.295 300.848,102.900 300.948 C 103.571 301.059,104.002 300.948,104.006 300.665 C 104.010 300.401,104.175 300.457,104.388 300.795 C 104.687 301.267,104.751 301.213,104.700 300.530 C 104.642 299.766,104.550 299.730,103.872 300.205 C 103.086 300.755,102.025 300.586,101.506 299.829 C 101.312 299.545,101.210 299.577,101.206 299.924 M105.600 300.508 C 105.600 301.378,106.686 301.674,106.988 300.887 C 107.128 300.523,107.114 300.352,106.958 300.509 C 106.802 300.665,106.432 300.593,106.137 300.348 C 105.728 300.008,105.600 300.046,105.600 300.508 M90.695 301.920 C 90.925 302.535,90.878 302.542,90.198 302.000 C 89.785 301.670,89.570 301.606,89.721 301.858 C 89.872 302.110,89.726 302.419,89.398 302.546 C 88.716 302.807,88.585 303.600,89.224 303.600 C 89.457 303.600,89.536 303.420,89.400 303.200 C 89.256 302.967,89.663 302.800,90.376 302.800 C 91.660 302.800,92.104 301.879,91.020 301.463 C 90.606 301.304,90.513 301.435,90.695 301.920 M108.573 301.899 C 108.631 302.293,109.118 302.579,109.834 302.638 C 110.475 302.691,110.685 302.645,110.300 302.538 C 109.915 302.430,109.600 302.194,109.600 302.013 C 109.600 301.833,109.348 301.589,109.039 301.470 C 108.685 301.334,108.514 301.492,108.573 301.899 M86.400 304.371 C 86.400 304.575,86.085 304.824,85.700 304.924 C 85.109 305.079,85.102 305.114,85.651 305.154 C 86.009 305.179,86.526 304.930,86.800 304.600 C 87.144 304.185,87.159 304.000,86.849 304.000 C 86.602 304.000,86.400 304.167,86.400 304.371 " stroke="none" fill="#fcae04" fill-rule="evenodd"></path><path id="path1" d="M98.980 24.379 C 98.771 24.588,96.755 24.790,94.500 24.828 C 92.099 24.870,90.400 25.063,90.400 25.296 C 90.400 25.514,89.907 25.599,89.304 25.484 C 88.702 25.369,87.857 25.463,87.427 25.693 C 86.997 25.923,86.185 26.156,85.623 26.212 C 85.060 26.267,84.060 26.540,83.400 26.818 C 82.066 27.379,81.248 27.625,80.500 27.690 C 80.225 27.714,80.000 27.883,80.000 28.067 C 80.000 28.250,79.640 28.400,79.200 28.400 C 78.760 28.400,78.400 28.580,78.400 28.800 C 78.400 29.020,78.085 29.204,77.700 29.209 C 77.315 29.214,76.550 29.570,76.000 30.000 C 75.450 30.430,74.852 30.786,74.671 30.791 C 74.491 30.796,74.071 31.072,73.739 31.404 C 73.407 31.736,72.942 31.888,72.706 31.742 C 72.451 31.585,72.393 31.664,72.562 31.938 C 72.719 32.192,72.644 32.400,72.395 32.400 C 72.146 32.400,71.671 32.672,71.339 33.004 C 71.007 33.336,70.542 33.488,70.306 33.342 C 70.051 33.185,69.993 33.264,70.162 33.538 C 70.319 33.792,70.278 34.000,70.071 34.000 C 69.864 34.000,69.107 34.585,68.388 35.300 C 67.669 36.015,67.216 36.362,67.382 36.070 C 67.632 35.632,67.539 35.631,66.842 36.067 C 66.379 36.356,66.000 36.699,66.000 36.830 C 66.000 37.091,62.981 40.181,61.621 41.311 C 61.151 41.702,60.874 42.197,61.007 42.411 C 61.139 42.625,61.083 42.800,60.882 42.800 C 60.681 42.800,60.004 43.610,59.378 44.600 C 58.752 45.590,58.096 46.400,57.920 46.400 C 57.744 46.400,57.600 46.732,57.600 47.138 C 57.600 47.544,57.240 48.202,56.800 48.600 C 56.360 48.998,56.000 49.566,56.000 49.862 C 56.000 50.158,55.820 50.400,55.600 50.400 C 55.380 50.400,55.200 50.760,55.200 51.200 C 55.200 51.640,55.020 52.000,54.800 52.000 C 54.580 52.000,54.400 52.360,54.400 52.800 C 54.400 53.240,54.220 53.600,54.000 53.600 C 53.780 53.600,53.600 54.050,53.600 54.600 C 53.600 55.150,53.420 55.600,53.200 55.600 C 52.980 55.600,52.800 56.014,52.800 56.520 C 52.800 57.026,52.625 57.615,52.411 57.829 C 52.198 58.042,51.962 58.614,51.888 59.098 C 51.814 59.583,51.629 60.104,51.477 60.256 C 51.325 60.409,51.200 60.964,51.200 61.490 C 51.200 62.017,51.065 62.364,50.900 62.262 C 50.735 62.160,50.548 62.993,50.485 64.115 C 50.422 65.236,50.207 66.350,50.007 66.592 C 49.560 67.131,49.547 78.800,49.994 78.800 C 50.170 78.800,50.428 79.095,50.566 79.457 C 50.763 79.969,50.701 80.016,50.284 79.669 C 49.852 79.311,49.759 79.529,49.799 80.804 C 49.850 82.440,50.400 83.596,50.400 82.067 L 50.400 81.200 63.200 81.200 C 70.240 81.200,76.000 81.344,76.000 81.520 C 76.000 81.696,75.808 82.032,75.573 82.267 C 75.271 82.569,75.323 82.762,75.753 82.927 C 76.188 83.093,76.289 82.977,76.112 82.514 C 75.952 82.098,76.023 81.967,76.311 82.145 C 76.604 82.326,76.700 82.118,76.588 81.540 C 76.495 81.055,76.215 80.533,75.965 80.378 C 75.662 80.191,75.603 79.432,75.787 78.092 C 75.971 76.758,75.912 75.993,75.612 75.808 C 75.285 75.605,75.303 75.353,75.681 74.888 C 76.070 74.407,76.075 74.322,75.700 74.547 C 75.425 74.712,75.200 74.657,75.200 74.424 C 75.200 74.191,75.379 74.000,75.597 74.000 C 75.816 74.000,75.936 73.611,75.863 73.135 C 75.748 72.382,76.059 70.321,76.577 68.400 C 76.666 68.070,76.753 67.474,76.769 67.076 C 76.786 66.678,76.980 66.464,77.200 66.600 C 77.547 66.814,77.809 65.657,77.637 64.670 C 77.606 64.489,77.765 64.455,77.990 64.594 C 78.216 64.733,78.400 64.567,78.400 64.224 C 78.400 63.881,78.580 63.600,78.800 63.600 C 79.020 63.600,79.200 63.268,79.200 62.862 C 79.200 62.456,79.560 61.798,80.000 61.400 C 80.440 61.002,80.800 60.434,80.800 60.138 C 80.800 59.842,80.968 59.600,81.173 59.600 C 81.378 59.600,81.660 59.240,81.800 58.800 C 81.940 58.360,82.312 58.000,82.627 58.000 C 82.942 58.000,83.200 57.809,83.200 57.576 C 83.200 57.343,83.360 57.251,83.555 57.372 C 83.750 57.492,84.003 57.233,84.117 56.796 C 84.249 56.290,84.666 55.998,85.263 55.994 C 85.941 55.989,86.050 55.893,85.657 55.644 C 85.010 55.234,85.515 54.858,86.500 55.016 C 86.900 55.081,87.200 54.878,87.200 54.541 C 87.200 54.217,87.380 54.064,87.600 54.200 C 87.820 54.336,88.000 54.257,88.000 54.024 C 88.000 53.791,88.208 53.600,88.461 53.600 C 88.715 53.600,89.861 53.156,91.007 52.614 C 95.216 50.623,109.767 50.511,108.551 52.480 C 108.442 52.656,108.723 52.800,109.176 52.800 C 109.629 52.800,110.000 52.972,110.000 53.182 C 110.000 53.392,110.630 53.682,111.400 53.826 C 112.234 53.983,112.800 54.323,112.800 54.668 C 112.800 54.987,112.969 55.143,113.175 55.015 C 113.382 54.888,113.697 55.016,113.875 55.300 C 114.054 55.584,114.705 56.039,115.323 56.310 C 115.940 56.581,116.332 56.987,116.193 57.212 C 116.054 57.436,116.104 57.570,116.304 57.510 C 116.694 57.392,119.767 60.295,119.850 60.860 C 119.878 61.047,119.922 61.391,119.950 61.624 C 119.978 61.857,120.180 61.936,120.400 61.800 C 120.789 61.560,120.962 62.083,120.830 63.100 C 120.794 63.375,120.953 63.600,121.182 63.600 C 121.412 63.600,121.600 63.870,121.600 64.200 C 121.600 64.530,121.751 64.800,121.936 64.800 C 122.121 64.800,122.498 65.565,122.775 66.500 C 123.052 67.435,123.440 68.513,123.639 68.895 C 123.838 69.277,124.000 70.301,124.000 71.171 C 124.000 72.041,124.180 72.864,124.400 73.000 C 124.620 73.136,124.787 73.552,124.772 73.924 C 124.749 74.475,124.680 74.453,124.398 73.800 C 124.096 73.102,124.060 73.136,124.111 74.071 C 124.143 74.660,124.312 75.055,124.485 74.948 C 124.658 74.840,124.800 75.108,124.800 75.543 C 124.800 75.978,124.596 76.401,124.346 76.485 C 124.053 76.582,124.134 76.877,124.575 77.318 C 125.172 77.915,125.179 78.000,124.629 78.000 C 124.283 78.000,124.000 78.191,124.000 78.424 C 124.000 78.657,124.135 78.764,124.300 78.662 C 124.465 78.560,124.587 79.134,124.570 79.938 L 124.541 81.400 136.756 81.283 C 147.950 81.176,149.029 81.105,149.648 80.441 C 150.340 79.698,150.731 66.148,150.048 66.571 C 149.758 66.750,149.711 66.460,149.584 63.705 C 149.541 62.774,149.347 62.109,149.153 62.229 C 148.959 62.349,148.800 61.897,148.800 61.224 C 148.800 60.551,148.658 60.000,148.485 60.000 C 148.312 60.000,148.129 59.460,148.079 58.799 C 148.028 58.139,147.631 57.014,147.195 56.299 C 146.759 55.585,146.402 54.685,146.401 54.300 C 146.401 53.915,146.220 53.600,146.000 53.600 C 145.780 53.600,145.600 53.240,145.600 52.800 C 145.600 52.360,145.420 52.000,145.200 52.000 C 144.980 52.000,144.800 51.640,144.800 51.200 C 144.800 50.760,144.620 50.400,144.400 50.400 C 144.180 50.400,144.000 50.130,144.000 49.800 C 144.000 49.470,143.820 49.200,143.600 49.200 C 143.380 49.200,143.200 48.739,143.200 48.176 C 143.200 47.596,143.027 47.260,142.800 47.400 C 142.580 47.536,142.400 47.410,142.400 47.120 C 142.400 46.830,142.040 46.368,141.600 46.093 C 141.160 45.818,140.800 45.351,140.800 45.055 C 140.800 44.759,140.395 44.065,139.900 43.512 C 139.405 42.960,138.941 42.260,138.868 41.958 C 138.705 41.281,137.953 40.782,137.509 41.056 C 137.328 41.168,137.230 41.092,137.290 40.887 C 137.351 40.683,136.545 39.597,135.500 38.475 C 134.455 37.352,133.600 36.529,133.600 36.646 C 133.600 36.762,133.336 36.619,133.014 36.329 C 131.668 35.114,131.211 34.800,130.793 34.800 C 130.551 34.800,130.435 34.665,130.534 34.500 C 130.745 34.153,130.003 33.450,129.258 33.291 C 128.978 33.232,128.366 32.827,127.899 32.391 C 127.431 31.956,126.891 31.600,126.697 31.600 C 126.503 31.600,125.559 31.060,124.600 30.400 C 123.641 29.740,122.573 29.200,122.228 29.200 C 121.883 29.200,121.600 29.020,121.600 28.800 C 121.600 28.580,121.139 28.400,120.576 28.400 C 119.996 28.400,119.660 28.227,119.800 28.000 C 119.936 27.780,119.677 27.578,119.224 27.550 C 118.771 27.523,118.265 27.462,118.100 27.415 C 117.427 27.226,116.161 26.721,115.550 26.399 C 115.193 26.210,114.563 26.108,114.150 26.172 C 113.738 26.236,113.059 26.053,112.642 25.766 C 112.207 25.466,111.396 25.341,110.742 25.472 C 110.094 25.601,109.600 25.527,109.600 25.299 C 109.600 25.062,107.925 24.870,105.500 24.828 C 103.245 24.790,101.229 24.588,101.020 24.379 C 100.811 24.171,100.352 24.000,100.000 24.000 C 99.648 24.000,99.189 24.171,98.980 24.379 M149.362 81.269 C 148.943 81.747,148.825 82.006,149.100 81.845 C 149.416 81.660,149.600 81.796,149.600 82.214 C 149.600 82.577,149.242 82.969,148.804 83.083 C 148.095 83.269,148.029 84.009,148.724 83.994 C 149.647 83.973,151.092 80.400,150.176 80.400 C 150.148 80.400,149.781 80.791,149.362 81.269 M50.508 86.828 C 50.476 87.252,50.619 87.600,50.825 87.600 C 51.280 87.600,51.327 86.525,50.883 86.251 C 50.709 86.144,50.540 86.403,50.508 86.828 " stroke="none" fill="#fc6f04" fill-rule="evenodd"></path><path id="path2" d="M124.185 74.639 C 124.176 75.607,124.300 76.400,124.460 76.400 C 124.814 76.400,124.807 73.252,124.453 73.033 C 124.314 72.947,124.193 73.670,124.185 74.639 M75.326 74.790 C 75.514 76.025,76.013 76.261,75.914 75.068 C 75.865 74.481,75.686 74.000,75.515 74.000 C 75.345 74.000,75.259 74.355,75.326 74.790 M75.693 79.200 C 75.693 79.970,75.775 80.285,75.876 79.900 C 75.976 79.515,75.976 78.885,75.876 78.500 C 75.775 78.115,75.693 78.430,75.693 79.200 M124.267 78.667 C 124.120 78.813,124.000 79.454,124.000 80.090 C 124.000 80.821,123.840 81.148,123.565 80.979 C 123.287 80.807,123.178 81.065,123.261 81.699 C 123.332 82.244,123.122 83.018,122.795 83.421 C 122.385 83.925,122.365 84.054,122.730 83.835 C 123.165 83.573,123.168 83.662,122.749 84.332 C 122.469 84.781,122.096 85.059,121.920 84.951 C 121.744 84.842,121.600 85.404,121.600 86.200 C 121.600 86.996,121.465 87.580,121.300 87.498 C 121.135 87.416,120.601 87.765,120.114 88.274 C 119.627 88.783,119.402 89.200,119.614 89.200 C 119.826 89.200,120.000 89.391,120.000 89.624 C 120.000 89.857,119.820 89.936,119.600 89.800 C 119.380 89.664,119.200 89.833,119.200 90.176 C 119.200 90.519,119.048 90.800,118.861 90.800 C 118.187 90.800,116.603 92.491,116.727 93.078 C 116.801 93.431,116.672 93.568,116.415 93.409 C 116.174 93.260,115.577 93.523,115.088 93.993 C 114.600 94.464,114.020 94.870,113.800 94.896 C 113.580 94.922,113.160 95.182,112.868 95.475 C 112.575 95.768,112.170 95.905,111.968 95.780 C 111.765 95.655,111.600 95.743,111.600 95.976 C 111.600 96.209,111.352 96.400,111.049 96.400 C 110.746 96.400,110.276 96.668,110.004 96.996 C 109.732 97.323,109.330 97.480,109.110 97.344 C 108.890 97.209,108.579 97.310,108.419 97.569 C 108.259 97.828,107.694 98.067,107.164 98.101 C 106.634 98.134,106.102 98.301,105.983 98.471 C 105.863 98.640,104.821 98.813,103.667 98.854 C 102.513 98.895,101.475 99.079,101.360 99.264 C 101.025 99.807,100.325 99.649,100.635 99.100 C 100.861 98.700,100.810 98.700,100.379 99.100 C 99.771 99.664,98.400 99.777,98.400 99.263 C 98.400 99.078,97.463 98.894,96.317 98.853 C 95.172 98.813,94.137 98.640,94.017 98.471 C 93.898 98.301,93.366 98.134,92.836 98.101 C 92.306 98.067,91.766 97.896,91.636 97.720 C 91.389 97.385,90.551 97.109,89.700 97.082 C 89.425 97.074,89.200 96.906,89.200 96.710 C 89.200 96.513,89.020 96.464,88.800 96.600 C 88.580 96.736,88.400 96.556,88.400 96.200 C 88.400 95.844,88.235 95.655,88.032 95.780 C 87.830 95.905,87.401 95.744,87.080 95.423 C 86.758 95.101,86.418 94.915,86.324 95.009 C 85.965 95.368,80.800 90.098,80.794 89.367 C 80.789 88.725,80.724 88.698,80.400 89.200 C 80.048 89.745,79.907 89.494,80.034 88.545 C 80.053 88.404,79.918 88.179,79.734 88.045 C 79.079 87.565,78.026 85.307,78.311 84.992 C 78.470 84.816,78.313 84.775,77.962 84.900 C 77.454 85.081,77.366 84.911,77.527 84.063 C 77.698 83.165,77.638 83.075,77.143 83.484 C 76.649 83.892,76.569 83.782,76.638 82.785 C 76.685 82.106,76.555 81.704,76.333 81.842 C 76.120 81.973,76.039 82.324,76.152 82.620 C 76.289 82.975,76.152 83.080,75.753 82.927 C 75.323 82.762,75.271 82.569,75.573 82.267 C 75.808 82.032,76.000 81.696,76.000 81.520 C 76.000 81.344,70.276 81.200,63.280 81.200 C 55.436 81.200,50.409 81.049,50.165 80.805 C 49.904 80.544,49.747 80.713,49.702 81.300 C 49.650 82.000,49.716 82.063,50.012 81.595 C 50.310 81.123,50.389 81.191,50.394 81.924 C 50.397 82.439,50.223 82.738,50.000 82.600 C 49.780 82.464,49.600 82.639,49.600 82.989 C 49.600 83.339,49.869 83.728,50.199 83.855 C 50.619 84.016,50.747 84.490,50.628 85.448 C 50.532 86.224,50.618 86.712,50.829 86.582 C 51.033 86.456,51.227 86.993,51.260 87.776 C 51.357 90.079,51.378 90.176,51.883 90.712 C 52.149 90.993,52.264 91.488,52.140 91.812 C 52.016 92.135,52.114 92.400,52.357 92.400 C 52.601 92.400,52.800 92.951,52.800 93.624 C 52.800 94.337,52.967 94.744,53.200 94.600 C 53.427 94.460,53.600 94.796,53.600 95.376 C 53.600 95.939,53.780 96.400,54.000 96.400 C 54.220 96.400,54.400 96.760,54.400 97.200 C 54.400 97.640,54.536 98.000,54.702 98.000 C 55.065 98.000,56.221 100.460,56.079 100.930 C 56.025 101.111,56.165 101.145,56.390 101.006 C 56.616 100.867,56.800 101.033,56.800 101.376 C 56.800 101.719,56.958 102.000,57.151 102.000 C 57.345 102.000,57.727 102.540,58.000 103.200 C 58.273 103.860,59.060 104.967,59.749 105.660 C 60.437 106.353,60.730 106.788,60.400 106.628 C 60.070 106.467,60.305 106.800,60.922 107.368 C 61.540 107.935,61.948 108.400,61.829 108.400 C 61.711 108.400,62.226 109.030,62.974 109.800 C 63.721 110.570,64.451 111.200,64.595 111.200 C 64.739 111.200,65.127 111.470,65.457 111.800 C 65.787 112.130,65.913 112.400,65.736 112.400 C 65.559 112.400,66.086 112.856,66.907 113.414 C 67.728 113.972,68.400 114.613,68.400 114.838 C 68.400 115.063,68.580 115.136,68.800 115.000 C 69.020 114.864,69.200 115.044,69.200 115.400 C 69.200 115.756,69.360 115.949,69.555 115.828 C 69.750 115.707,70.132 115.877,70.404 116.204 C 70.676 116.532,71.131 116.800,71.416 116.800 C 71.700 116.800,71.993 116.935,72.067 117.100 C 72.140 117.265,72.740 117.704,73.400 118.075 L 74.600 118.749 74.807 133.875 C 74.921 142.194,75.056 147.426,75.107 145.502 L 75.200 142.003 124.267 141.902 C 173.255 141.800,174.819 141.754,172.759 140.467 C 172.296 140.178,172.034 140.132,172.179 140.366 C 172.339 140.625,172.201 140.698,171.823 140.554 C 171.483 140.423,171.315 140.137,171.451 139.918 C 171.586 139.699,171.279 139.744,170.768 140.017 C 169.957 140.451,169.768 140.406,169.271 139.657 C 168.958 139.186,168.454 138.800,168.151 138.800 C 167.848 138.800,167.600 138.609,167.600 138.376 C 167.600 138.143,167.420 138.064,167.200 138.200 C 166.980 138.336,166.800 138.262,166.800 138.036 C 166.800 137.810,166.500 137.740,166.134 137.881 C 165.687 138.052,165.564 137.983,165.758 137.668 C 165.932 137.387,165.798 137.200,165.424 137.200 C 165.081 137.200,164.800 137.020,164.800 136.800 C 164.800 136.580,164.451 136.400,164.024 136.400 C 163.597 136.400,163.145 136.234,163.019 136.031 C 162.894 135.828,162.211 135.534,161.501 135.378 C 160.223 135.098,158.425 134.133,157.957 133.479 C 157.824 133.292,157.374 133.197,156.957 133.269 C 156.541 133.341,156.235 133.205,156.278 132.967 C 156.321 132.728,156.141 132.514,155.878 132.490 C 155.615 132.466,155.040 132.360,154.600 132.254 C 154.160 132.148,153.575 132.047,153.300 132.031 C 153.025 132.014,152.800 131.718,152.800 131.373 C 152.800 130.941,152.566 130.820,152.047 130.985 C 151.572 131.136,151.208 130.998,151.060 130.612 C 150.931 130.275,150.359 130.000,149.789 130.000 C 149.183 130.000,148.858 129.830,149.006 129.590 C 149.145 129.365,149.111 129.206,148.930 129.237 C 147.835 129.428,146.784 129.150,147.038 128.738 C 147.220 128.444,147.147 128.385,146.837 128.577 C 146.564 128.746,146.019 128.579,145.600 128.200 C 145.188 127.827,144.678 127.628,144.467 127.759 C 144.256 127.889,143.973 127.708,143.839 127.356 C 143.702 126.999,143.335 126.816,143.009 126.941 C 142.688 127.064,142.319 126.993,142.189 126.783 C 142.059 126.572,141.593 126.400,141.153 126.400 C 140.713 126.400,140.464 126.220,140.600 126.000 C 140.745 125.766,140.330 125.600,139.600 125.600 C 138.870 125.600,138.455 125.434,138.600 125.200 C 138.736 124.980,138.487 124.800,138.047 124.800 C 137.607 124.800,137.136 124.620,137.000 124.400 C 136.864 124.180,136.393 124.000,135.953 124.000 C 135.513 124.000,135.264 123.820,135.400 123.600 C 135.630 123.228,134.509 123.008,133.260 123.179 C 132.963 123.220,132.838 123.061,132.983 122.827 C 133.145 122.566,132.840 122.400,132.200 122.400 C 131.604 122.400,131.259 122.228,131.400 122.000 C 131.536 121.780,131.402 121.600,131.103 121.600 C 130.325 121.600,128.407 120.660,128.403 120.276 C 128.401 120.098,128.243 120.050,128.052 120.168 C 127.860 120.287,127.297 120.031,126.800 119.600 C 126.303 119.169,125.712 118.931,125.487 119.070 C 125.251 119.216,125.198 119.127,125.362 118.862 C 125.519 118.608,125.892 118.400,126.190 118.400 C 126.489 118.400,126.793 118.233,126.867 118.030 C 126.940 117.826,127.270 117.601,127.600 117.530 C 127.930 117.458,128.491 117.085,128.847 116.700 C 129.203 116.315,129.788 116.000,130.147 116.000 C 130.506 116.000,130.800 115.700,130.800 115.333 C 130.800 114.967,130.907 114.774,131.038 114.904 C 131.168 115.035,131.800 114.544,132.442 113.813 C 133.084 113.082,134.012 112.383,134.504 112.258 C 134.997 112.133,135.638 111.489,135.929 110.825 C 136.220 110.162,136.670 109.660,136.929 109.710 C 137.188 109.759,137.355 109.575,137.300 109.300 C 137.245 109.025,137.500 108.800,137.867 108.800 C 138.233 108.800,138.414 108.681,138.269 108.536 C 138.124 108.391,138.367 108.018,138.809 107.709 C 139.252 107.399,139.507 106.973,139.377 106.763 C 139.247 106.552,139.379 106.430,139.670 106.490 C 139.962 106.551,140.155 106.375,140.100 106.100 C 140.045 105.825,140.158 105.600,140.351 105.600 C 140.545 105.600,140.927 105.060,141.200 104.400 C 141.473 103.740,141.855 103.200,142.049 103.200 C 142.242 103.200,142.400 102.919,142.400 102.576 C 142.400 102.233,142.580 102.064,142.800 102.200 C 143.030 102.342,143.203 101.970,143.206 101.324 C 143.211 100.451,143.299 100.334,143.600 100.800 C 143.936 101.320,143.989 101.312,143.994 100.738 C 144.001 99.992,145.638 96.672,146.100 96.467 C 146.265 96.393,146.400 95.888,146.400 95.343 C 146.400 94.785,146.574 94.461,146.800 94.600 C 147.033 94.744,147.200 94.337,147.200 93.624 C 147.200 92.951,147.360 92.400,147.556 92.400 C 147.752 92.400,148.014 91.815,148.137 91.100 C 148.670 88.019,148.911 87.221,149.245 87.428 C 149.440 87.548,149.600 86.837,149.600 85.847 C 149.600 84.857,149.780 83.936,150.000 83.800 C 150.220 83.664,150.400 83.371,150.400 83.148 C 150.400 82.925,150.117 83.026,149.771 83.371 C 149.064 84.079,148.552 84.170,148.228 83.645 C 148.108 83.450,148.367 83.197,148.804 83.083 C 149.242 82.969,149.600 82.577,149.600 82.214 C 149.600 81.791,149.419 81.661,149.100 81.853 C 148.795 82.037,148.826 81.875,149.181 81.438 C 149.738 80.752,149.774 80.753,150.055 81.461 C 150.278 82.024,150.333 81.938,150.287 81.100 C 150.217 79.847,150.071 79.758,149.444 80.589 C 149.073 81.081,146.983 81.197,136.770 81.289 L 124.541 81.400 124.570 79.900 C 124.587 79.075,124.585 78.400,124.567 78.400 C 124.548 78.400,124.413 78.520,124.267 78.667 M173.838 141.495 C 173.442 141.891,174.017 142.369,174.613 142.140 C 174.936 142.016,175.200 142.133,175.200 142.400 C 175.200 142.667,175.449 142.790,175.754 142.673 C 176.059 142.556,176.671 142.714,177.113 143.024 C 177.814 143.515,177.950 143.508,178.155 142.973 C 178.290 142.622,178.221 142.463,177.995 142.603 C 177.778 142.737,177.600 142.653,177.600 142.416 C 177.600 142.177,177.165 142.063,176.623 142.161 C 176.086 142.259,175.581 142.143,175.501 141.904 C 175.344 141.431,174.187 141.147,173.838 141.495 M179.733 143.771 C 179.733 144.098,179.883 144.272,180.067 144.159 C 180.250 144.045,180.403 144.278,180.406 144.676 C 180.411 145.291,180.471 145.310,180.806 144.800 C 181.156 144.267,181.244 144.267,181.594 144.800 C 181.937 145.322,181.989 145.315,181.994 144.747 C 181.997 144.387,181.685 143.982,181.300 143.846 C 180.915 143.711,180.405 143.505,180.167 143.389 C 179.928 143.273,179.733 143.445,179.733 143.771 M185.600 146.011 C 185.600 146.358,187.153 146.981,187.401 146.732 C 187.478 146.655,187.105 146.385,186.571 146.133 C 186.037 145.881,185.600 145.826,185.600 146.011 M189.902 148.266 C 190.179 148.377,190.305 148.631,190.182 148.830 C 190.059 149.028,190.237 149.084,190.577 148.954 C 191.350 148.657,190.987 147.989,190.076 148.032 C 189.656 148.051,189.590 148.140,189.902 148.266 " stroke="none" fill="#fc7f04" fill-rule="evenodd"></path><path id="path3" d="M132.857 286.604 C 133.438 287.204,134.106 287.629,134.341 287.548 C 134.576 287.466,134.100 286.975,133.284 286.456 L 131.800 285.512 132.857 286.604 M61.800 291.506 C 61.580 291.668,61.135 292.160,60.812 292.600 C 60.378 293.191,60.509 293.146,61.312 292.430 C 62.291 291.558,62.589 291.188,62.300 291.206 C 62.245 291.209,62.020 291.344,61.800 291.506 M138.267 292.169 C 137.944 293.011,139.361 294.710,139.798 294.003 C 140.029 293.629,139.970 293.572,139.594 293.804 C 139.224 294.032,139.132 293.955,139.288 293.549 C 139.410 293.229,139.282 292.654,139.003 292.271 C 138.573 291.683,138.460 291.668,138.267 292.169 M58.767 294.900 C 58.564 295.509,58.602 296.722,58.820 296.588 C 59.273 296.308,59.562 294.800,59.163 294.800 C 58.963 294.800,58.785 294.845,58.767 294.900 M57.560 298.018 C 56.973 298.625,56.973 298.718,57.560 299.134 C 57.912 299.383,58.020 299.569,57.800 299.546 C 56.574 299.421,56.047 299.721,55.600 300.800 C 55.327 301.460,54.945 302.000,54.751 302.000 C 54.558 302.000,54.400 302.360,54.400 302.800 C 54.400 303.240,54.220 303.600,54.000 303.600 C 53.780 303.600,53.600 303.881,53.600 304.224 C 53.600 304.616,53.785 304.736,54.100 304.547 C 54.444 304.340,54.430 304.456,54.055 304.919 C 53.755 305.289,53.330 305.481,53.112 305.346 C 52.871 305.196,52.815 305.417,52.971 305.908 C 53.120 306.377,52.997 306.946,52.678 307.265 C 52.376 307.567,52.022 308.261,51.892 308.807 C 51.762 309.353,51.452 310.520,51.204 311.400 C 50.955 312.280,50.664 313.625,50.557 314.388 C 50.449 315.152,50.216 315.872,50.038 315.988 C 49.600 316.275,49.456 333.600,49.892 333.600 C 50.081 333.600,50.281 334.256,50.335 335.057 C 50.389 335.858,50.605 336.836,50.816 337.231 C 51.027 337.625,51.200 338.489,51.200 339.150 C 51.200 339.812,51.380 340.464,51.600 340.600 C 51.820 340.736,52.000 341.276,52.000 341.800 C 52.000 342.324,52.180 342.864,52.400 343.000 C 52.620 343.136,52.800 343.597,52.800 344.024 C 52.800 344.451,52.980 344.800,53.200 344.800 C 53.420 344.800,53.600 345.160,53.600 345.600 C 53.600 346.040,53.780 346.400,54.000 346.400 C 54.220 346.400,54.400 346.760,54.400 347.200 C 54.400 347.640,54.580 348.000,54.800 348.000 C 55.020 348.000,55.200 348.360,55.200 348.800 C 55.200 349.240,55.380 349.600,55.600 349.600 C 55.820 349.600,56.000 349.960,56.000 350.400 C 56.000 350.840,56.180 351.200,56.400 351.200 C 56.620 351.200,56.800 351.443,56.800 351.741 C 56.800 352.038,57.340 352.846,58.000 353.537 C 58.660 354.228,59.200 355.039,59.200 355.340 C 59.200 355.642,59.650 356.226,60.200 356.639 C 60.750 357.052,61.200 357.605,61.200 357.868 C 61.200 358.131,61.584 358.468,62.053 358.617 C 62.558 358.777,62.729 358.996,62.474 359.154 C 62.214 359.315,62.504 359.732,63.202 360.201 C 63.840 360.630,64.577 361.384,64.841 361.877 C 65.105 362.369,65.473 362.678,65.660 362.563 C 65.847 362.447,66.000 362.644,66.000 363.000 C 66.000 363.356,66.145 363.558,66.322 363.448 C 66.499 363.339,67.526 364.048,68.605 365.025 C 69.684 366.001,70.799 366.800,71.083 366.800 C 71.367 366.800,71.600 366.980,71.600 367.200 C 71.600 367.420,72.005 367.603,72.500 367.606 C 73.228 367.611,73.285 367.686,72.800 368.000 C 72.288 368.331,72.304 368.389,72.905 368.394 C 73.575 368.400,75.169 369.132,75.600 369.632 C 75.710 369.760,76.385 370.119,77.100 370.430 C 77.815 370.741,78.400 371.131,78.400 371.298 C 78.400 371.464,78.755 371.600,79.188 371.600 C 79.621 371.600,80.594 371.947,81.350 372.372 C 82.105 372.796,82.815 373.051,82.927 372.939 C 83.040 372.827,83.552 372.962,84.066 373.239 C 84.580 373.517,85.456 373.766,86.013 373.794 C 86.570 373.822,87.272 373.998,87.574 374.184 C 89.390 375.306,106.254 375.651,110.800 374.660 C 111.350 374.540,112.565 374.319,113.500 374.168 C 114.435 374.018,115.200 373.708,115.200 373.481 C 115.200 373.253,115.318 373.185,115.463 373.330 C 115.608 373.475,115.949 373.408,116.221 373.182 C 116.493 372.957,116.870 372.807,117.058 372.849 C 117.438 372.936,118.633 372.537,119.695 371.971 C 120.077 371.767,120.662 371.600,120.995 371.600 C 121.328 371.600,121.600 371.420,121.600 371.200 C 121.600 370.980,121.960 370.800,122.400 370.800 C 122.840 370.800,123.200 370.620,123.200 370.400 C 123.200 370.180,123.470 370.000,123.800 370.000 C 124.130 370.000,124.401 369.865,124.403 369.700 C 124.406 369.379,126.312 368.400,126.933 368.400 C 127.138 368.400,127.609 368.051,127.978 367.625 C 128.348 367.199,128.908 366.794,129.222 366.725 C 129.535 366.656,130.271 366.105,130.857 365.500 C 131.442 364.895,132.099 364.400,132.318 364.400 C 132.536 364.400,132.828 364.104,132.967 363.743 C 133.105 363.381,133.310 363.177,133.421 363.288 C 133.618 363.485,138.000 359.373,138.000 358.992 C 138.000 358.818,138.369 358.381,140.219 356.366 C 140.538 356.018,140.800 355.523,140.800 355.266 C 140.800 355.010,140.980 354.800,141.200 354.800 C 141.420 354.800,141.600 354.530,141.600 354.200 C 141.600 353.870,141.737 353.600,141.904 353.600 C 142.071 353.600,142.444 353.221,142.733 352.758 C 143.169 352.061,143.168 351.963,142.730 352.189 C 142.438 352.338,142.605 352.103,143.100 351.666 C 143.595 351.229,144.000 350.712,144.000 350.516 C 144.000 349.908,144.984 348.006,145.300 348.003 C 145.465 348.001,145.600 347.640,145.600 347.200 C 145.600 346.760,145.780 346.400,146.000 346.400 C 146.220 346.400,146.400 346.040,146.400 345.600 C 146.400 345.160,146.580 344.800,146.800 344.800 C 147.020 344.800,147.200 344.451,147.200 344.024 C 147.200 343.597,147.380 343.136,147.600 343.000 C 147.820 342.864,148.000 342.343,148.000 341.843 C 148.000 341.343,148.125 340.809,148.277 340.656 C 148.429 340.504,148.606 339.979,148.669 339.490 C 148.732 339.000,148.953 337.970,149.160 337.200 C 149.367 336.430,149.736 335.042,149.980 334.115 C 150.465 332.271,150.536 316.000,150.059 316.000 C 149.902 316.000,149.534 314.695,149.242 313.100 C 148.694 310.115,148.207 308.818,147.440 308.306 C 147.142 308.107,147.170 308.010,147.529 308.006 C 147.921 308.002,147.891 307.834,147.415 307.358 C 147.019 306.962,146.871 306.406,147.029 305.908 C 147.194 305.390,147.134 305.194,146.863 305.361 C 146.630 305.505,146.233 305.236,145.980 304.763 C 145.608 304.068,145.623 303.957,146.060 304.181 C 146.357 304.334,146.282 304.199,145.893 303.880 C 145.440 303.509,145.285 303.045,145.461 302.585 C 145.650 302.093,145.589 301.959,145.268 302.158 C 144.982 302.335,144.800 302.188,144.800 301.781 C 144.800 301.353,144.585 301.197,144.200 301.345 C 143.870 301.471,143.600 301.401,143.600 301.187 C 143.600 300.974,143.776 300.800,143.991 300.800 C 144.231 300.800,144.208 300.417,143.933 299.813 C 143.685 299.269,143.329 298.920,143.142 299.036 C 142.954 299.152,142.800 298.787,142.800 298.224 C 142.800 297.055,142.115 296.856,141.687 297.900 C 141.416 298.560,139.050 298.600,99.938 298.600 C 77.134 298.600,58.537 298.501,58.612 298.381 C 59.009 297.738,58.126 297.433,57.560 298.018 M98.903 300.448 C 98.690 301.264,98.719 301.272,99.673 300.647 C 100.218 300.289,100.784 300.118,100.932 300.265 C 101.079 300.413,101.203 300.278,101.206 299.967 C 101.210 299.628,101.331 299.561,101.506 299.800 C 101.885 300.315,103.754 301.372,103.468 300.910 C 103.349 300.717,103.601 300.342,104.027 300.076 C 104.454 299.809,104.781 299.728,104.754 299.896 C 104.636 300.631,104.831 301.200,105.200 301.200 C 105.420 301.200,105.600 300.908,105.600 300.551 C 105.600 300.053,105.725 300.006,106.137 300.348 C 106.432 300.593,106.802 300.665,106.958 300.509 C 107.114 300.352,107.124 300.533,106.979 300.910 C 106.835 301.287,106.555 301.496,106.358 301.374 C 106.161 301.252,106.000 301.343,106.000 301.576 C 106.000 301.809,106.360 302.000,106.800 302.000 C 107.240 302.000,107.600 301.813,107.600 301.584 C 107.600 301.344,107.836 301.387,108.158 301.684 C 108.465 301.968,108.644 302.319,108.556 302.465 C 108.468 302.611,108.981 302.662,109.698 302.577 C 110.414 302.492,110.775 302.523,110.500 302.645 C 109.970 302.880,109.791 303.659,110.300 303.515 C 110.465 303.468,111.009 303.657,111.508 303.934 C 112.008 304.210,112.621 304.311,112.870 304.157 C 113.162 303.976,113.212 304.056,113.011 304.383 C 112.634 304.993,113.449 305.585,114.676 305.594 C 115.158 305.597,115.681 305.808,115.838 306.062 C 116.015 306.348,115.948 306.415,115.662 306.238 C 115.408 306.081,115.200 306.131,115.200 306.349 C 115.200 306.568,115.542 306.855,115.960 306.987 C 117.030 307.327,118.714 309.098,119.459 310.668 C 119.807 311.401,120.251 312.000,120.446 312.000 C 120.641 312.000,120.800 312.270,120.800 312.600 C 120.800 312.930,120.980 313.200,121.200 313.200 C 121.420 313.200,121.600 313.549,121.600 313.976 C 121.600 314.403,121.780 314.864,122.000 315.000 C 122.220 315.136,122.400 315.597,122.400 316.024 C 122.400 316.451,122.580 316.800,122.800 316.800 C 123.020 316.800,123.200 317.171,123.200 317.624 C 123.200 318.166,123.370 318.351,123.700 318.165 C 124.096 317.942,124.098 317.993,123.710 318.412 C 123.404 318.741,123.358 319.108,123.585 319.382 C 123.787 319.625,123.989 320.898,124.034 322.212 C 124.079 323.525,124.279 324.809,124.478 325.064 C 124.698 325.348,124.675 325.630,124.419 325.788 C 124.189 325.931,124.000 327.027,124.000 328.224 C 124.000 329.421,123.820 330.400,123.600 330.400 C 123.380 330.400,123.200 331.030,123.200 331.800 C 123.200 332.570,123.020 333.200,122.800 333.200 C 122.580 333.200,122.400 333.560,122.400 334.000 C 122.400 334.440,122.220 334.800,122.000 334.800 C 121.780 334.800,121.600 335.034,121.600 335.320 C 121.600 336.056,120.659 337.993,120.300 337.997 C 120.135 337.999,120.000 338.281,120.000 338.624 C 120.000 338.967,119.820 339.136,119.600 339.000 C 119.380 338.864,119.200 339.048,119.200 339.408 C 119.200 339.768,118.486 340.724,117.613 341.531 C 115.283 343.687,114.878 344.000,114.417 344.000 C 114.188 344.000,114.000 344.180,114.000 344.400 C 114.000 344.620,113.745 344.800,113.433 344.800 C 113.122 344.800,112.807 344.941,112.733 345.113 C 112.530 345.590,109.632 347.200,108.977 347.200 C 108.660 347.200,108.400 347.380,108.400 347.600 C 108.400 347.820,107.938 348.000,107.374 348.000 C 106.809 348.000,106.043 348.163,105.670 348.362 C 105.298 348.562,104.185 348.774,103.196 348.833 C 102.208 348.892,101.140 349.134,100.823 349.370 C 100.403 349.684,100.320 349.676,100.520 349.344 C 100.714 349.019,99.903 348.874,97.714 348.841 C 96.020 348.816,94.456 348.616,94.237 348.397 C 94.019 348.179,93.280 348.000,92.595 348.000 C 91.911 348.000,90.976 347.651,90.518 347.224 C 90.060 346.797,89.602 346.532,89.500 346.634 C 89.398 346.736,89.086 346.545,88.808 346.210 C 88.530 345.874,88.054 345.600,87.751 345.600 C 87.448 345.600,87.200 345.463,87.200 345.296 C 87.200 345.129,86.821 344.756,86.358 344.467 C 85.661 344.031,85.567 344.032,85.811 344.470 C 85.973 344.762,85.676 344.596,85.153 344.102 C 84.629 343.608,83.435 342.497,82.500 341.633 C 81.565 340.770,80.800 339.914,80.799 339.731 C 80.799 339.549,80.259 338.770,79.600 338.000 C 78.941 337.230,78.401 336.296,78.401 335.924 C 78.400 335.552,78.220 335.136,78.000 335.000 C 77.780 334.864,77.600 334.393,77.600 333.953 C 77.600 333.513,77.420 333.264,77.200 333.400 C 76.962 333.547,76.800 333.071,76.800 332.224 C 76.800 331.441,76.620 330.800,76.400 330.800 C 76.178 330.800,76.000 329.733,76.000 328.400 C 76.000 327.067,75.822 326.000,75.600 326.000 C 75.380 326.000,75.203 325.685,75.206 325.300 C 75.211 324.702,75.269 324.687,75.600 325.200 C 75.813 325.530,75.991 325.611,75.994 325.380 C 75.997 325.149,75.784 324.744,75.520 324.480 C 75.147 324.107,75.147 323.893,75.520 323.520 C 75.784 323.256,76.000 322.086,76.000 320.920 C 76.000 319.754,76.142 318.800,76.315 318.800 C 76.488 318.800,76.660 318.398,76.697 317.906 C 76.734 317.414,76.952 316.949,77.182 316.873 C 77.412 316.796,77.600 316.512,77.600 316.242 C 77.600 315.485,79.181 312.386,80.036 311.469 C 80.456 311.018,80.800 310.489,80.800 310.293 C 80.800 309.798,83.876 306.800,84.384 306.800 C 84.613 306.800,84.800 306.553,84.800 306.250 C 84.800 305.947,85.340 305.592,86.000 305.460 C 86.660 305.328,87.200 305.013,87.200 304.761 C 87.200 304.428,87.039 304.436,86.613 304.789 C 86.291 305.057,85.796 305.183,85.513 305.069 C 85.191 304.940,85.260 304.851,85.700 304.832 C 86.085 304.814,86.400 304.601,86.400 304.357 C 86.400 304.114,86.670 304.018,87.000 304.145 C 87.829 304.463,88.800 304.031,88.800 303.345 C 88.800 303.031,89.069 302.672,89.398 302.546 C 89.726 302.419,89.872 302.110,89.721 301.858 C 89.570 301.606,89.785 301.670,90.198 302.000 C 90.881 302.545,90.925 302.535,90.684 301.891 C 90.469 301.318,90.551 301.250,91.109 301.536 C 91.489 301.731,92.160 301.824,92.600 301.742 C 93.040 301.661,94.210 301.481,95.200 301.342 C 96.680 301.134,96.858 301.026,96.200 300.736 L 95.400 300.384 96.200 300.546 C 96.640 300.636,97.345 300.850,97.766 301.023 C 98.335 301.256,98.450 301.205,98.214 300.823 C 97.968 300.425,98.501 299.661,99.063 299.606 C 99.097 299.603,99.025 299.982,98.903 300.448 " stroke="none" fill="#fcc004" fill-rule="evenodd"></path><path id="path4" d="M169.217 139.631 C 169.484 140.131,169.900 140.371,170.260 140.232 C 170.589 140.106,171.201 140.186,171.620 140.411 C 172.220 140.732,172.336 140.698,172.164 140.251 C 172.036 139.917,171.482 139.716,170.816 139.762 C 170.033 139.816,169.748 139.681,169.886 139.320 C 170.000 139.023,169.803 138.800,169.429 138.800 C 168.888 138.800,168.850 138.946,169.217 139.631 M173.400 141.600 C 173.237 141.863,156.416 142.000,124.238 142.000 L 75.323 142.000 75.063 147.100 C 74.791 152.437,74.818 224.512,75.091 221.900 L 75.248 220.400 100.000 220.400 L 124.752 220.400 124.909 221.900 C 124.995 222.725,125.110 212.510,125.164 199.200 C 125.219 185.890,125.354 175.225,125.465 175.500 C 125.576 175.775,126.012 176.000,126.433 176.000 C 126.855 176.000,127.200 176.180,127.200 176.400 C 127.200 176.620,127.740 176.800,128.400 176.800 C 129.060 176.800,129.600 176.980,129.600 177.200 C 129.600 177.420,129.870 177.600,130.200 177.600 C 130.530 177.600,130.800 177.780,130.800 178.000 C 130.800 178.220,131.036 178.400,131.325 178.400 C 131.614 178.400,132.595 178.760,133.506 179.200 C 134.416 179.640,135.440 180.000,135.781 180.000 C 136.121 180.000,136.400 180.180,136.400 180.400 C 136.400 180.620,136.760 180.800,137.200 180.800 C 137.640 180.800,138.000 180.980,138.000 181.200 C 138.000 181.420,138.461 181.600,139.024 181.600 C 139.587 181.600,139.955 181.750,139.842 181.933 C 139.729 182.116,140.528 182.508,141.618 182.805 C 142.708 183.102,143.600 183.492,143.600 183.672 C 143.600 183.853,143.960 184.000,144.400 184.000 C 144.840 184.000,145.200 184.160,145.200 184.357 C 145.200 184.553,145.666 184.830,146.235 184.973 C 147.847 185.378,150.400 186.555,150.400 186.894 C 150.400 187.062,150.672 187.200,151.005 187.200 C 151.338 187.200,151.923 187.371,152.305 187.580 C 154.693 188.885,158.467 190.406,158.803 190.198 C 159.021 190.063,159.201 190.098,159.203 190.276 C 159.207 190.654,161.120 191.600,161.880 191.600 C 162.166 191.600,162.400 191.780,162.400 192.000 C 162.400 192.220,162.672 192.400,163.005 192.400 C 163.338 192.400,163.923 192.568,164.305 192.774 C 164.687 192.979,165.585 193.383,166.300 193.671 C 167.015 193.960,167.600 194.331,167.600 194.498 C 167.600 194.664,167.960 194.800,168.400 194.800 C 168.840 194.800,169.200 195.010,169.200 195.267 C 169.200 195.523,169.315 195.618,169.456 195.477 C 169.597 195.336,170.182 195.464,170.756 195.762 C 171.767 196.285,172.340 196.537,175.100 197.664 C 175.815 197.956,176.400 198.331,176.400 198.498 C 176.400 198.664,176.724 198.800,177.120 198.800 C 178.014 198.800,179.993 199.694,179.997 200.100 C 179.999 200.265,180.362 200.400,180.805 200.400 C 181.539 200.400,183.107 201.083,183.600 201.617 C 183.710 201.736,184.565 202.080,185.500 202.381 C 186.435 202.682,187.200 203.098,187.200 203.307 C 187.200 203.515,187.477 203.579,187.815 203.450 C 188.172 203.312,188.531 203.475,188.669 203.836 C 188.841 204.284,189.202 204.386,189.953 204.197 C 190.528 204.053,190.868 204.065,190.710 204.224 C 190.448 204.485,192.792 205.976,193.789 206.182 C 194.015 206.229,194.740 206.501,195.400 206.786 C 197.857 207.850,201.823 209.659,202.495 210.023 C 202.877 210.230,203.462 210.400,203.795 210.400 C 204.128 210.400,204.400 210.580,204.400 210.800 C 204.400 211.020,204.760 211.200,205.200 211.200 C 205.640 211.200,206.000 211.380,206.000 211.600 C 206.000 211.820,206.450 212.000,207.000 212.000 C 207.550 212.000,208.000 212.180,208.000 212.400 C 208.000 212.620,208.349 212.800,208.776 212.800 C 209.203 212.800,209.664 212.980,209.800 213.200 C 209.936 213.420,210.487 213.600,211.024 213.600 C 211.561 213.600,212.000 213.758,212.000 213.951 C 212.000 214.145,212.495 214.488,213.100 214.714 C 213.705 214.940,214.560 215.261,215.000 215.428 C 215.440 215.595,215.935 215.769,216.100 215.815 C 216.265 215.862,216.535 215.944,216.700 215.997 C 216.865 216.051,217.135 216.073,217.300 216.047 C 217.465 216.021,217.600 216.191,217.600 216.424 C 217.600 216.657,217.761 216.748,217.958 216.626 C 218.155 216.504,218.424 216.687,218.557 217.032 C 218.689 217.377,219.113 217.594,219.499 217.515 C 219.884 217.436,220.438 217.647,220.730 217.985 C 221.021 218.323,221.165 218.408,221.051 218.172 C 220.916 217.895,221.293 217.815,222.121 217.943 C 223.342 218.133,223.355 218.153,222.404 218.388 C 221.269 218.669,221.750 219.085,223.090 218.980 C 223.579 218.942,223.882 219.067,223.764 219.258 C 223.646 219.449,223.876 219.709,224.275 219.836 C 224.674 219.963,225.637 220.382,226.416 220.768 C 227.652 221.381,229.324 221.056,228.609 220.343 C 228.468 220.202,255.180 220.308,268.728 220.501 L 275.656 220.600 275.479 219.677 C 275.353 219.017,275.458 218.813,275.847 218.963 C 276.199 219.098,276.473 218.787,276.620 218.086 C 276.746 217.489,277.005 216.708,277.195 216.351 C 277.412 215.946,277.366 215.511,277.071 215.193 C 276.707 214.799,276.714 214.747,277.100 214.965 C 277.390 215.129,277.600 215.026,277.600 214.720 C 277.600 214.430,277.975 213.958,278.433 213.672 C 278.906 213.377,279.171 212.902,279.046 212.576 C 278.916 212.236,279.066 212.000,279.413 212.000 C 279.736 212.000,280.000 211.712,280.000 211.360 C 280.000 211.009,280.534 210.222,281.186 209.613 C 281.838 209.004,282.258 208.392,282.119 208.253 C 281.980 208.114,282.101 208.000,282.386 208.000 C 282.952 208.000,284.400 206.501,284.400 205.915 C 284.400 205.716,284.581 205.665,284.803 205.802 C 285.024 205.939,285.313 205.770,285.445 205.428 C 285.576 205.085,285.830 204.895,286.010 205.006 C 286.189 205.117,286.607 204.936,286.939 204.604 C 287.271 204.272,287.656 204.000,287.794 204.000 C 287.932 204.000,289.101 203.476,290.391 202.836 C 291.682 202.195,292.838 201.771,292.959 201.893 C 293.081 202.014,293.441 201.898,293.759 201.634 C 294.076 201.371,295.251 201.148,296.368 201.139 C 297.486 201.130,298.501 200.960,298.624 200.762 C 298.914 200.292,301.600 200.289,301.600 200.759 C 301.600 200.956,302.620 201.129,303.868 201.144 C 305.230 201.161,306.259 201.372,306.446 201.674 C 306.617 201.951,306.882 202.052,307.034 201.899 C 307.187 201.746,307.782 201.885,308.356 202.208 C 309.461 202.829,311.586 203.710,312.115 203.766 C 312.288 203.785,312.600 204.070,312.808 204.400 C 313.017 204.730,313.191 204.831,313.194 204.624 C 313.197 204.416,313.483 204.596,313.830 205.024 C 314.176 205.451,314.331 205.530,314.174 205.200 C 314.016 204.870,314.619 205.365,315.513 206.300 C 316.406 207.235,317.342 208.000,317.592 208.000 C 317.843 208.000,317.936 208.180,317.800 208.400 C 317.664 208.620,317.844 208.800,318.200 208.800 C 318.556 208.800,318.756 208.947,318.645 209.127 C 318.534 209.307,318.793 209.707,319.221 210.015 C 319.650 210.324,320.003 210.942,320.006 211.388 C 320.011 212.059,320.080 212.096,320.400 211.600 C 320.717 211.109,320.789 211.155,320.794 211.851 C 320.797 212.319,321.059 212.917,321.376 213.180 C 321.693 213.443,321.843 213.945,321.708 214.295 C 321.546 214.717,321.622 214.834,321.932 214.642 C 322.222 214.463,322.405 214.627,322.413 215.076 C 322.420 215.474,322.677 216.132,322.985 216.539 C 323.293 216.945,323.448 217.530,323.330 217.839 C 323.211 218.147,323.314 218.400,323.557 218.400 C 323.801 218.400,324.000 218.741,324.000 219.157 C 324.000 220.362,324.657 220.422,337.522 220.388 C 347.150 220.363,349.796 220.466,350.057 220.878 C 350.288 221.243,350.390 221.130,350.394 220.500 C 350.397 220.005,350.220 219.600,350.000 219.600 C 349.780 219.600,349.603 219.285,349.606 218.900 C 349.611 218.300,349.669 218.285,350.012 218.800 C 350.454 219.462,350.322 217.114,349.855 216.000 C 349.717 215.670,349.542 214.814,349.467 214.098 C 349.392 213.383,349.211 212.678,349.065 212.532 C 348.919 212.386,348.800 211.857,348.800 211.357 C 348.800 210.857,348.645 210.351,348.455 210.234 C 348.082 210.004,346.962 206.394,347.110 205.900 C 347.160 205.735,347.020 205.600,346.800 205.600 C 346.580 205.600,346.400 205.150,346.400 204.600 C 346.400 204.050,346.220 203.600,346.000 203.600 C 345.780 203.600,345.600 203.240,345.600 202.800 C 345.600 202.360,345.454 202.000,345.275 202.000 C 345.096 202.000,344.702 201.370,344.400 200.600 C 344.098 199.830,343.704 199.200,343.525 199.200 C 343.346 199.200,343.200 199.004,343.200 198.764 C 343.200 198.110,339.947 193.600,339.475 193.600 C 339.251 193.600,339.180 193.486,339.319 193.347 C 339.458 193.208,339.019 192.578,338.344 191.947 C 337.668 191.316,337.229 190.800,337.367 190.800 C 337.506 190.800,337.046 190.170,336.345 189.400 C 335.645 188.630,334.800 188.000,334.469 188.000 C 334.138 188.000,333.986 187.881,334.131 187.735 C 334.277 187.590,333.767 187.043,332.998 186.521 C 332.229 185.999,331.600 185.398,331.600 185.186 C 331.600 184.974,331.330 184.800,331.000 184.800 C 330.670 184.800,330.400 184.620,330.400 184.400 C 330.400 184.180,330.130 184.000,329.800 184.000 C 329.470 184.000,329.200 183.858,329.200 183.685 C 329.200 183.511,328.165 182.748,326.900 181.988 C 325.635 181.229,324.540 180.471,324.467 180.304 C 324.393 180.137,324.114 180.000,323.845 180.000 C 323.577 180.000,322.422 179.534,321.280 178.965 C 320.137 178.395,318.977 177.895,318.701 177.854 C 318.425 177.812,317.976 177.637,317.702 177.466 C 317.427 177.295,316.887 177.080,316.502 176.989 C 316.116 176.898,315.080 176.617,314.200 176.365 C 313.320 176.112,311.745 175.820,310.700 175.714 C 309.655 175.609,308.800 175.360,308.800 175.161 C 308.800 174.683,291.308 174.687,291.133 175.166 C 291.060 175.367,290.190 175.578,289.200 175.636 C 288.210 175.694,287.220 175.864,287.000 176.015 C 286.512 176.350,284.313 176.956,283.906 176.868 C 283.744 176.833,282.434 177.343,280.996 178.002 C 279.557 178.661,278.114 179.200,277.790 179.200 C 277.465 179.200,277.200 179.380,277.200 179.600 C 277.200 179.820,276.840 180.000,276.400 180.000 C 275.960 180.000,275.600 180.180,275.600 180.400 C 275.600 180.620,275.407 180.800,275.172 180.800 C 274.695 180.800,271.139 183.142,270.754 183.710 C 270.608 183.926,270.200 183.913,269.754 183.681 C 269.033 183.305,267.675 182.688,263.500 180.841 C 262.455 180.378,260.835 179.659,259.900 179.243 C 258.289 178.526,256.841 177.935,256.400 177.814 C 256.164 177.750,252.703 176.166,251.039 175.362 C 250.400 175.053,249.635 174.800,249.339 174.800 C 249.042 174.800,248.800 174.620,248.800 174.400 C 248.800 174.180,248.440 174.000,248.000 174.000 C 247.560 174.000,247.200 173.820,247.200 173.600 C 247.200 173.380,246.851 173.200,246.424 173.200 C 245.997 173.200,245.536 173.020,245.400 172.800 C 245.264 172.580,244.713 172.400,244.176 172.400 C 243.639 172.400,243.200 172.220,243.200 172.000 C 243.200 171.780,242.840 171.600,242.400 171.600 C 241.960 171.600,241.600 171.420,241.600 171.200 C 241.600 170.980,241.240 170.800,240.800 170.800 C 240.360 170.800,240.000 170.620,240.000 170.400 C 240.000 170.180,239.747 170.000,239.438 170.000 C 239.129 170.000,238.184 169.657,237.338 169.239 C 234.466 167.817,229.775 165.742,227.300 164.798 C 226.585 164.526,226.000 164.145,226.000 163.951 C 226.000 163.758,225.865 163.641,225.700 163.692 C 225.535 163.742,224.590 163.441,223.600 163.021 C 222.610 162.602,221.710 162.238,221.600 162.213 C 221.490 162.187,220.824 161.859,220.120 161.483 C 219.416 161.107,218.561 160.800,218.220 160.800 C 217.879 160.800,217.600 160.590,217.600 160.333 C 217.600 160.077,217.479 159.987,217.332 160.135 C 217.184 160.282,216.689 160.168,216.232 159.881 C 215.774 159.593,214.635 159.114,213.700 158.815 C 212.765 158.516,212.000 158.121,212.000 157.936 C 212.000 157.751,211.539 157.600,210.976 157.600 C 210.317 157.600,210.052 157.439,210.232 157.148 C 210.397 156.881,210.299 156.767,209.990 156.870 C 209.704 156.965,207.939 156.269,206.067 155.322 C 204.196 154.375,202.200 153.597,201.633 153.594 C 200.819 153.589,200.727 153.506,201.200 153.200 C 201.688 152.885,201.636 152.811,200.924 152.806 C 200.442 152.803,199.941 152.628,199.811 152.417 C 199.681 152.207,199.312 152.136,198.991 152.259 C 198.664 152.384,198.298 152.200,198.161 151.842 C 198.025 151.489,197.574 151.200,197.157 151.200 C 196.741 151.200,196.400 151.001,196.400 150.757 C 196.400 150.514,196.136 150.416,195.813 150.540 C 195.490 150.664,195.118 150.590,194.985 150.376 C 194.574 149.710,191.845 148.742,190.886 148.923 C 190.384 149.017,190.067 148.999,190.184 148.883 C 190.368 148.698,188.939 147.479,188.400 147.362 C 187.321 147.128,185.600 146.237,185.600 145.912 C 185.600 145.686,185.295 145.749,184.923 146.051 C 184.551 146.353,184.368 146.396,184.518 146.147 C 184.678 145.880,184.263 145.440,183.503 145.072 C 182.641 144.654,182.131 144.588,181.957 144.870 C 181.789 145.141,181.620 145.097,181.479 144.745 C 181.300 144.298,181.185 144.308,180.837 144.800 C 180.465 145.325,180.411 145.318,180.406 144.749 C 180.397 143.736,179.449 143.119,178.812 143.710 C 178.384 144.106,178.330 144.065,178.529 143.500 C 178.664 143.115,178.601 142.800,178.387 142.800 C 178.174 142.800,178.000 142.982,178.000 143.203 C 178.000 143.447,177.693 143.415,177.226 143.123 C 176.800 142.857,176.522 142.526,176.608 142.387 C 176.694 142.247,176.511 142.133,176.200 142.133 C 175.889 142.133,175.728 142.283,175.841 142.467 C 175.955 142.650,175.857 142.800,175.624 142.800 C 175.391 142.800,175.200 142.612,175.200 142.382 C 175.200 142.153,174.885 142.018,174.500 142.082 C 174.109 142.148,173.844 141.979,173.900 141.700 C 174.020 141.100,173.743 141.044,173.400 141.600 M274.912 221.977 C 274.883 222.356,275.116 222.667,275.430 222.667 C 276.142 222.667,276.182 221.756,275.482 221.487 C 275.190 221.375,274.941 221.589,274.912 221.977 M324.000 222.587 C 324.000 222.944,324.235 223.085,324.598 222.946 C 324.926 222.819,325.096 222.555,324.974 222.358 C 324.625 221.793,324.000 221.940,324.000 222.587 M232.252 222.715 C 232.116 222.936,232.304 223.231,232.669 223.371 C 233.453 223.672,234.287 223.025,233.635 222.622 C 233.396 222.474,233.197 222.588,233.194 222.876 C 233.189 223.293,233.118 223.290,232.844 222.857 C 232.632 222.524,232.405 222.469,232.252 222.715 " stroke="none" fill="#fc9404" fill-rule="evenodd"></path></g></svg>