<svg id="svg" version="1.1" xmlns="http://www.w3.org/2000/svg" xmlns:xlink="http://www.w3.org/1999/xlink" width="400" height="400" viewBox="0, 0, 400,400"><g id="svgg"><path id="path0" d="M194.000 80.645 C 185.948 81.077,175.212 82.660,168.800 84.360 C 158.781 87.015,153.532 88.957,144.000 93.533 C 137.591 96.610,125.261 104.326,122.800 106.799 C 122.690 106.910,121.790 107.625,120.800 108.388 C 112.445 114.834,102.100 126.217,95.344 136.400 C 73.667 169.073,69.285 210.688,83.677 247.200 C 85.440 251.673,89.823 261.085,90.383 261.600 C 90.502 261.710,90.842 262.230,91.138 262.755 C 91.433 263.280,92.040 264.360,92.487 265.155 C 97.555 274.178,110.756 289.743,118.478 295.800 C 119.600 296.680,120.716 297.586,120.959 297.812 C 122.695 299.436,134.420 307.600,135.015 307.600 C 135.147 307.600,136.008 308.110,136.928 308.734 C 143.611 313.267,160.684 320.032,163.768 319.369 C 168.507 318.349,168.915 317.088,168.739 303.988 C 168.583 292.405,168.707 292.892,166.111 293.641 C 163.231 294.472,149.727 294.369,146.800 293.494 C 145.590 293.133,144.163 292.709,143.628 292.553 C 142.239 292.147,137.167 289.497,136.020 288.577 C 132.426 285.695,127.200 279.552,127.200 278.209 C 127.200 277.979,126.139 275.555,124.557 272.169 C 122.269 267.270,117.496 261.705,113.000 258.693 C 105.822 253.885,106.055 250.800,113.597 250.800 C 120.617 250.800,127.648 255.346,133.085 263.400 C 137.771 270.341,142.305 274.092,147.994 275.732 C 150.116 276.344,159.524 276.532,161.400 276.001 C 168.960 273.857,168.761 274.003,169.746 269.863 C 170.697 265.865,173.022 261.415,175.402 259.035 C 176.863 257.574,176.669 257.319,173.900 257.057 C 170.392 256.725,166.576 256.028,161.800 254.848 C 140.745 249.647,127.741 237.356,122.600 217.800 C 120.002 207.917,119.419 193.758,121.275 185.600 C 122.959 178.192,127.251 169.682,131.690 164.948 L 132.864 163.696 132.189 161.748 C 130.439 156.700,129.759 146.798,130.839 142.106 C 131.080 141.058,131.445 139.480,131.651 138.600 C 133.586 130.302,134.282 129.697,140.576 130.841 C 148.114 132.211,157.059 136.045,165.891 141.690 L 168.382 143.283 170.691 142.824 C 171.961 142.571,173.810 142.185,174.800 141.966 C 190.021 138.596,210.268 138.592,225.000 141.956 C 231.385 143.414,231.056 143.402,232.809 142.241 C 238.123 138.725,245.912 134.735,250.800 133.025 C 261.338 129.339,264.886 129.470,266.326 133.600 C 268.425 139.619,268.944 142.744,268.952 149.400 C 268.959 155.155,268.780 156.531,267.350 161.746 L 266.816 163.691 268.538 165.746 C 269.485 166.876,270.631 168.340,271.083 169.000 C 273.217 172.111,276.800 179.181,276.800 180.281 C 276.800 180.572,276.972 181.123,277.182 181.505 C 279.847 186.358,280.180 204.699,277.788 214.800 C 277.657 215.350,277.361 216.610,277.130 217.600 C 276.559 220.040,275.260 223.860,274.349 225.775 C 273.937 226.641,273.600 227.482,273.600 227.644 C 273.600 228.003,269.625 234.921,269.259 235.200 C 269.114 235.310,268.465 236.120,267.817 237.000 C 263.869 242.362,253.277 249.986,247.400 251.697 C 246.960 251.825,245.520 252.329,244.200 252.817 C 241.850 253.686,240.624 254.052,237.400 254.848 C 233.337 255.852,228.694 256.687,225.108 257.058 L 222.816 257.295 224.443 259.144 C 226.334 261.292,228.810 266.274,229.839 270.000 C 230.473 272.297,230.583 275.092,230.778 294.000 C 230.982 313.674,231.059 315.507,231.727 316.732 C 234.036 320.963,241.011 319.607,256.470 311.920 C 263.095 308.627,274.984 301.286,276.400 299.615 C 276.510 299.486,277.410 298.754,278.400 297.990 C 287.070 291.296,297.702 279.705,304.394 269.651 C 313.005 256.714,318.432 243.807,321.991 227.800 C 324.694 215.640,325.455 196.309,323.569 187.723 C 323.366 186.800,323.200 185.498,323.200 184.829 C 323.200 183.498,323.056 182.785,321.174 174.800 C 318.953 165.378,315.291 155.191,311.829 148.800 C 311.531 148.250,310.633 146.561,309.833 145.047 C 309.033 143.533,308.024 141.795,307.590 141.185 C 307.155 140.575,306.800 139.959,306.800 139.816 C 306.800 139.043,297.849 126.790,294.812 123.406 C 290.329 118.411,282.784 111.153,279.200 108.388 C 278.210 107.625,277.310 106.910,277.200 106.799 C 273.368 102.948,256.138 92.996,247.400 89.587 C 236.089 85.174,225.122 82.478,213.400 81.231 C 209.228 80.787,197.791 80.441,194.000 80.645 " stroke="none" fill="#fbfbfb" fill-rule="evenodd"></path><path id="path1" d="M43.207 0.295 C 42.220 0.383,41.315 0.614,41.194 0.809 C 41.074 1.004,40.318 1.207,39.514 1.262 C 38.710 1.316,38.141 1.504,38.249 1.680 C 38.358 1.856,37.807 2.000,37.024 2.000 C 36.241 2.000,35.600 2.180,35.600 2.400 C 35.600 2.620,35.150 2.800,34.600 2.800 C 34.050 2.800,33.600 2.980,33.600 3.200 C 33.600 3.420,33.150 3.600,32.600 3.600 C 32.050 3.600,31.600 3.780,31.600 4.000 C 31.600 4.220,31.240 4.400,30.800 4.400 C 30.360 4.400,30.000 4.580,30.000 4.800 C 30.000 5.020,29.629 5.200,29.176 5.200 C 28.723 5.200,28.464 5.380,28.600 5.600 C 28.740 5.827,28.404 6.000,27.824 6.000 C 27.261 6.000,26.800 6.180,26.800 6.400 C 26.800 6.620,26.519 6.800,26.176 6.800 C 25.833 6.800,25.664 6.980,25.800 7.200 C 25.936 7.420,25.767 7.600,25.424 7.600 C 25.081 7.600,24.800 7.780,24.800 8.000 C 24.800 8.220,24.538 8.400,24.218 8.400 C 22.987 8.400,17.322 12.905,14.217 16.352 C 13.548 17.095,12.325 18.415,11.500 19.284 C 10.675 20.154,10.000 21.003,10.000 21.171 C 10.000 21.340,9.640 21.893,9.200 22.400 C 8.760 22.907,8.400 23.615,8.400 23.973 C 8.400 24.331,8.040 24.883,7.600 25.200 C 7.160 25.517,6.800 26.007,6.800 26.288 C 6.800 26.570,6.620 26.800,6.400 26.800 C 6.180 26.800,6.000 27.160,6.000 27.600 C 6.000 28.040,5.820 28.400,5.600 28.400 C 5.380 28.400,5.200 28.760,5.200 29.200 C 5.200 29.640,5.020 30.000,4.800 30.000 C 4.580 30.000,4.400 30.360,4.400 30.800 C 4.400 31.240,4.220 31.600,4.000 31.600 C 3.780 31.600,3.600 32.050,3.600 32.600 C 3.600 33.150,3.420 33.600,3.200 33.600 C 2.980 33.600,2.800 34.050,2.800 34.600 C 2.800 35.150,2.620 35.600,2.400 35.600 C 2.180 35.600,2.000 36.241,2.000 37.024 C 2.000 37.807,1.856 38.358,1.680 38.249 C 1.504 38.141,1.316 38.710,1.262 39.514 C 1.207 40.318,0.946 41.110,0.682 41.273 C -0.021 41.707,-0.021 358.293,0.682 358.727 C 0.946 358.890,1.207 359.682,1.262 360.486 C 1.316 361.290,1.504 361.859,1.680 361.751 C 1.958 361.578,2.201 363.191,2.037 364.130 C 2.006 364.311,2.165 364.345,2.390 364.206 C 2.636 364.054,2.800 364.443,2.800 365.176 C 2.800 365.849,2.980 366.400,3.200 366.400 C 3.420 366.400,3.600 366.861,3.600 367.424 C 3.600 368.004,3.773 368.340,4.000 368.200 C 4.227 368.060,4.400 368.396,4.400 368.976 C 4.400 369.539,4.580 370.000,4.800 370.000 C 5.020 370.000,5.200 370.371,5.200 370.824 C 5.200 371.277,5.380 371.536,5.600 371.400 C 5.827 371.260,6.000 371.596,6.000 372.176 C 6.000 372.739,6.180 373.200,6.400 373.200 C 6.620 373.200,6.800 373.481,6.800 373.824 C 6.800 374.167,6.980 374.336,7.200 374.200 C 7.420 374.064,7.600 374.233,7.600 374.576 C 7.600 374.919,7.780 375.200,8.000 375.200 C 8.220 375.200,8.400 375.532,8.400 375.939 C 8.400 376.345,8.760 377.093,9.200 377.600 C 9.640 378.107,10.000 378.679,10.000 378.870 C 10.000 380.209,22.703 391.600,24.196 391.600 C 24.528 391.600,24.800 391.780,24.800 392.000 C 24.800 392.220,25.081 392.400,25.424 392.400 C 25.767 392.400,25.936 392.580,25.800 392.800 C 25.664 393.020,25.833 393.200,26.176 393.200 C 26.519 393.200,26.800 393.380,26.800 393.600 C 26.800 393.820,27.261 394.000,27.824 394.000 C 28.404 394.000,28.740 394.173,28.600 394.400 C 28.464 394.620,28.723 394.800,29.176 394.800 C 29.629 394.800,30.000 394.980,30.000 395.200 C 30.000 395.420,30.461 395.600,31.024 395.600 C 31.604 395.600,31.940 395.773,31.800 396.000 C 31.660 396.227,31.996 396.400,32.576 396.400 C 33.139 396.400,33.600 396.580,33.600 396.800 C 33.600 397.020,34.151 397.200,34.824 397.200 C 35.497 397.200,35.960 397.342,35.852 397.515 C 35.745 397.688,36.140 397.870,36.729 397.919 C 37.318 397.967,37.860 398.185,37.933 398.403 C 38.007 398.622,38.757 398.800,39.600 398.800 C 40.471 398.800,41.205 399.016,41.300 399.300 C 41.545 400.036,358.455 400.036,358.700 399.300 C 358.795 399.016,359.529 398.800,360.400 398.800 C 361.243 398.800,361.993 398.622,362.067 398.403 C 362.140 398.185,362.682 397.967,363.271 397.919 C 363.860 397.870,364.255 397.688,364.148 397.515 C 364.040 397.342,364.503 397.200,365.176 397.200 C 365.849 397.200,366.400 397.020,366.400 396.800 C 366.400 396.580,366.861 396.400,367.424 396.400 C 368.004 396.400,368.340 396.227,368.200 396.000 C 368.060 395.773,368.396 395.600,368.976 395.600 C 369.539 395.600,370.000 395.420,370.000 395.200 C 370.000 394.980,370.360 394.800,370.800 394.800 C 371.240 394.800,371.600 394.620,371.600 394.400 C 371.600 394.180,371.960 394.000,372.400 394.000 C 372.840 394.000,373.200 393.820,373.200 393.600 C 373.200 393.380,373.430 393.200,373.712 393.200 C 373.993 393.200,374.483 392.840,374.800 392.400 C 375.117 391.960,375.669 391.600,376.027 391.600 C 376.385 391.600,377.093 391.240,377.600 390.800 C 378.107 390.360,378.663 390.000,378.835 390.000 C 379.006 390.000,380.046 389.145,381.145 388.100 C 382.244 387.055,383.561 385.828,384.071 385.374 C 385.330 384.253,389.710 379.298,390.174 378.468 C 390.380 378.101,390.785 377.562,391.074 377.271 C 391.363 376.981,391.600 376.396,391.600 375.971 C 391.600 375.547,391.780 375.200,392.000 375.200 C 392.220 375.200,392.400 374.919,392.400 374.576 C 392.400 374.233,392.580 374.064,392.800 374.200 C 393.020 374.336,393.200 374.167,393.200 373.824 C 393.200 373.481,393.380 373.200,393.600 373.200 C 393.820 373.200,394.000 372.739,394.000 372.176 C 394.000 371.596,394.173 371.260,394.400 371.400 C 394.620 371.536,394.800 371.277,394.800 370.824 C 394.800 370.371,394.980 370.000,395.200 370.000 C 395.420 370.000,395.600 369.539,395.600 368.976 C 395.600 368.396,395.773 368.060,396.000 368.200 C 396.227 368.340,396.400 368.004,396.400 367.424 C 396.400 366.861,396.580 366.400,396.800 366.400 C 397.020 366.400,397.200 365.950,397.200 365.400 C 397.200 364.850,397.380 364.400,397.600 364.400 C 397.820 364.400,398.000 363.860,398.000 363.200 C 398.000 362.540,398.180 362.000,398.400 362.000 C 398.620 362.000,398.800 361.295,398.800 360.433 C 398.800 359.536,399.013 358.796,399.300 358.700 C 399.699 358.567,399.800 326.471,399.800 200.000 C 399.800 73.529,399.699 41.433,399.300 41.300 C 399.013 41.204,398.800 40.464,398.800 39.567 C 398.800 38.705,398.620 38.000,398.400 38.000 C 398.180 38.000,398.000 37.460,398.000 36.800 C 398.000 36.140,397.820 35.600,397.600 35.600 C 397.380 35.600,397.200 35.161,397.200 34.624 C 397.200 34.087,397.020 33.536,396.800 33.400 C 396.580 33.264,396.400 32.803,396.400 32.376 C 396.400 31.949,396.220 31.600,396.000 31.600 C 395.780 31.600,395.600 31.240,395.600 30.800 C 395.600 30.360,395.420 30.000,395.200 30.000 C 394.980 30.000,394.800 29.629,394.800 29.176 C 394.800 28.723,394.620 28.464,394.400 28.600 C 394.173 28.740,394.000 28.404,394.000 27.824 C 394.000 27.261,393.820 26.800,393.600 26.800 C 393.380 26.800,393.200 26.519,393.200 26.176 C 393.200 25.833,393.020 25.664,392.800 25.800 C 392.580 25.936,392.400 25.767,392.400 25.424 C 392.400 25.081,392.220 24.800,392.000 24.800 C 391.780 24.800,391.600 24.468,391.600 24.061 C 391.600 23.655,391.240 22.907,390.800 22.400 C 390.360 21.893,390.000 21.343,390.000 21.179 C 390.000 21.015,389.145 19.993,388.100 18.907 C 387.055 17.822,385.642 16.319,384.959 15.567 C 383.232 13.664,379.639 10.449,378.645 9.917 C 378.189 9.673,377.575 9.232,377.280 8.937 C 376.984 8.642,376.435 8.400,376.060 8.400 C 375.684 8.400,375.117 8.040,374.800 7.600 C 374.483 7.160,373.993 6.800,373.712 6.800 C 373.430 6.800,373.200 6.620,373.200 6.400 C 373.200 6.180,372.840 6.000,372.400 6.000 C 371.960 6.000,371.600 5.820,371.600 5.600 C 371.600 5.380,371.240 5.200,370.800 5.200 C 370.360 5.200,370.000 5.020,370.000 4.800 C 370.000 4.580,369.539 4.400,368.976 4.400 C 368.396 4.400,368.060 4.227,368.200 4.000 C 368.340 3.773,368.004 3.600,367.424 3.600 C 366.861 3.600,366.400 3.420,366.400 3.200 C 366.400 2.980,365.950 2.800,365.400 2.800 C 364.850 2.800,364.400 2.620,364.400 2.400 C 364.400 2.180,363.860 2.000,363.200 2.000 C 362.540 2.000,362.000 1.820,362.000 1.600 C 362.000 1.380,361.295 1.200,360.433 1.200 C 359.536 1.200,358.796 0.987,358.700 0.700 C 358.542 0.226,48.450 -0.172,43.207 0.295 M206.579 80.005 C 213.867 80.529,218.373 81.065,223.800 82.050 C 232.271 83.589,239.808 85.783,248.000 89.098 C 256.799 92.657,274.172 102.623,276.800 105.618 C 276.910 105.744,277.379 106.106,277.843 106.423 C 281.458 108.898,291.942 118.888,295.449 123.200 C 296.075 123.970,296.694 124.690,296.824 124.800 C 298.396 126.129,308.000 139.871,308.000 140.791 C 308.000 141.016,308.135 141.201,308.300 141.203 C 308.465 141.205,308.803 141.610,309.052 142.103 C 309.300 142.596,310.765 145.457,312.306 148.461 C 315.959 155.578,318.736 162.754,320.798 170.400 C 321.065 171.390,321.445 172.613,321.642 173.119 C 321.839 173.624,322.000 174.533,322.000 175.139 C 322.000 175.744,322.163 176.411,322.361 176.620 C 322.560 176.829,322.821 177.810,322.942 178.800 C 323.063 179.790,323.352 181.680,323.584 183.000 C 324.989 190.988,325.467 209.180,324.473 216.800 C 323.617 223.357,322.309 230.340,321.230 234.100 C 320.994 234.925,320.637 236.185,320.437 236.900 C 319.301 240.968,316.881 247.765,315.347 251.200 C 314.173 253.827,311.036 260.199,310.817 260.400 C 310.697 260.510,310.335 261.140,310.012 261.800 C 309.689 262.460,308.924 263.752,308.312 264.672 C 307.701 265.592,307.200 266.461,307.200 266.604 C 307.200 266.815,303.058 273.068,301.905 274.600 C 296.519 281.750,289.914 288.956,283.563 294.609 C 280.680 297.175,275.232 301.409,271.994 303.600 C 271.506 303.930,270.695 304.515,270.191 304.900 C 269.686 305.285,269.155 305.600,269.009 305.600 C 268.863 305.600,267.959 306.140,267.000 306.800 C 266.041 307.460,265.063 308.000,264.828 308.000 C 264.593 308.000,264.399 308.135,264.397 308.300 C 264.395 308.465,263.990 308.803,263.497 309.051 C 263.004 309.299,260.097 310.781,257.037 312.345 C 242.250 319.904,235.425 321.425,231.939 317.939 L 230.400 316.400 230.400 296.631 C 230.400 284.399,230.239 276.049,229.979 274.731 C 228.980 269.679,228.726 268.556,228.413 267.800 C 228.230 267.360,227.851 266.370,227.571 265.600 C 227.290 264.830,226.732 263.722,226.330 263.138 C 225.929 262.554,225.600 261.894,225.600 261.672 C 225.600 261.449,225.465 261.207,225.300 261.133 C 224.827 260.923,222.400 257.689,222.400 257.269 C 222.400 256.874,223.265 256.663,227.600 255.998 C 232.134 255.302,236.704 254.374,239.400 253.602 C 240.280 253.350,241.450 253.043,242.000 252.918 C 242.550 252.794,243.180 252.569,243.400 252.418 C 243.620 252.268,244.610 251.899,245.600 251.599 C 247.765 250.944,256.930 246.328,257.807 245.450 C 258.149 245.108,258.950 244.520,259.587 244.144 C 261.329 243.115,267.228 236.925,269.064 234.200 C 271.185 231.051,274.800 223.966,274.800 222.957 C 274.800 222.645,274.958 222.077,275.151 221.695 C 275.720 220.567,276.400 218.204,276.400 217.352 C 276.400 216.916,276.562 216.389,276.759 216.180 C 276.956 215.971,277.223 214.990,277.352 214.000 C 277.480 213.010,277.804 210.670,278.071 208.800 C 278.702 204.384,278.695 190.966,278.060 187.600 C 277.790 186.170,277.467 184.413,277.341 183.696 C 277.215 182.979,276.951 182.294,276.756 182.173 C 276.560 182.052,276.400 181.601,276.400 181.171 C 276.400 180.741,276.243 180.077,276.050 179.695 C 274.552 176.720,274.000 175.447,274.000 174.962 C 274.000 174.653,273.841 174.400,273.647 174.400 C 273.452 174.400,273.193 174.085,273.071 173.700 C 272.842 172.977,271.568 170.753,271.181 170.400 C 271.060 170.290,270.532 169.570,270.007 168.800 C 269.482 168.030,268.374 166.575,267.545 165.567 L 266.038 163.734 266.643 161.767 C 268.957 154.243,268.949 145.474,266.620 136.698 C 265.197 131.337,265.316 131.434,260.400 131.591 C 255.655 131.741,240.322 137.299,238.400 139.564 C 238.073 139.950,235.854 141.232,235.100 141.471 C 234.715 141.593,234.400 141.852,234.400 142.047 C 234.400 142.241,234.130 142.400,233.800 142.400 C 233.470 142.400,233.200 142.580,233.200 142.800 C 233.200 143.020,232.930 143.200,232.600 143.200 C 232.270 143.200,232.000 143.380,232.000 143.600 C 232.000 144.096,229.330 144.134,229.026 143.642 C 228.905 143.445,228.129 143.185,227.303 143.063 C 226.476 142.941,224.810 142.643,223.600 142.402 C 207.369 139.166,187.103 139.466,172.600 143.157 C 171.720 143.381,170.514 143.681,169.921 143.825 C 168.853 144.083,166.400 143.300,166.400 142.702 C 166.400 142.536,166.130 142.400,165.800 142.400 C 165.470 142.400,165.200 142.220,165.200 142.000 C 165.200 141.780,164.930 141.600,164.600 141.600 C 164.270 141.600,163.999 141.465,163.997 141.300 C 163.995 141.135,163.590 140.800,163.097 140.557 C 162.604 140.313,160.040 139.008,157.400 137.658 C 148.179 132.941,141.888 131.199,135.354 131.554 C 131.857 131.744,129.814 150.463,132.293 159.600 C 133.438 163.820,133.433 163.871,131.720 165.917 C 129.719 168.309,127.100 172.216,126.369 173.900 C 126.059 174.615,125.669 175.200,125.502 175.200 C 125.336 175.200,125.200 175.472,125.200 175.805 C 125.200 176.138,125.041 176.723,124.847 177.105 C 123.715 179.330,122.672 182.623,121.648 187.200 C 120.710 191.392,120.889 205.132,121.960 211.200 C 122.173 212.410,122.473 214.259,122.627 215.309 C 122.781 216.359,123.062 217.315,123.253 217.433 C 123.444 217.551,123.600 218.166,123.600 218.800 C 123.600 219.434,123.780 220.064,124.000 220.200 C 124.220 220.336,124.400 220.876,124.400 221.400 C 124.400 221.924,124.580 222.464,124.800 222.600 C 125.020 222.736,125.200 223.180,125.200 223.586 C 125.200 224.401,126.452 227.133,128.486 230.753 C 131.114 235.432,135.697 240.938,139.041 243.432 C 139.898 244.072,140.690 244.693,140.800 244.812 C 141.464 245.533,145.518 247.907,148.625 249.394 C 156.138 252.991,164.302 255.222,175.108 256.629 C 177.716 256.968,177.870 257.199,176.470 258.664 C 173.493 261.779,171.048 266.619,169.978 271.513 C 169.413 274.100,168.334 275.200,166.362 275.200 C 165.969 275.200,165.536 275.380,165.400 275.600 C 165.264 275.820,164.634 276.000,164.000 276.000 C 163.366 276.000,162.750 276.157,162.631 276.350 C 161.885 277.557,148.514 277.556,147.768 276.348 C 147.650 276.157,147.299 276.000,146.988 276.000 C 143.702 276.000,137.046 270.454,132.729 264.120 C 127.847 256.954,122.734 253.094,116.367 251.766 C 110.429 250.528,106.841 252.517,109.900 255.351 C 111.863 257.170,113.393 258.399,113.695 258.400 C 114.980 258.402,122.800 266.651,122.800 268.004 C 122.800 268.222,122.935 268.401,123.100 268.403 C 123.265 268.405,123.598 268.810,123.840 269.303 C 124.083 269.796,124.646 270.920,125.093 271.800 C 125.857 273.305,126.656 275.041,128.158 278.460 C 130.207 283.124,139.097 291.200,142.182 291.200 C 142.496 291.200,142.864 291.380,143.000 291.600 C 143.136 291.820,143.676 292.000,144.200 292.000 C 144.724 292.000,145.264 292.180,145.400 292.400 C 145.536 292.620,146.321 292.800,147.144 292.800 C 147.967 292.800,148.831 292.991,149.065 293.225 C 149.503 293.663,161.687 293.497,166.648 292.986 L 169.097 292.734 169.389 303.074 C 169.905 321.346,167.822 323.141,152.935 317.249 C 147.479 315.089,137.361 310.164,136.400 309.199 C 136.290 309.089,135.660 308.729,135.000 308.399 C 134.340 308.070,133.451 307.485,133.025 307.100 C 132.598 306.715,132.087 306.400,131.888 306.400 C 131.573 306.400,126.934 303.350,126.400 302.791 C 126.290 302.676,125.742 302.291,125.182 301.935 C 118.720 297.833,106.180 285.583,99.860 277.200 C 98.616 275.550,97.454 274.020,97.278 273.800 C 96.451 272.768,92.800 267.207,92.800 266.980 C 92.800 266.839,92.461 266.246,92.047 265.662 C 90.410 263.353,86.924 256.671,84.260 250.737 C 83.249 248.484,80.145 239.430,79.208 236.000 C 78.938 235.010,78.555 233.787,78.358 233.281 C 78.161 232.776,78.000 231.867,78.000 231.261 C 78.000 230.656,77.838 229.989,77.641 229.780 C 77.444 229.571,77.181 228.680,77.057 227.800 C 76.933 226.920,76.643 225.120,76.413 223.800 C 75.303 217.433,75.069 213.813,75.069 203.000 C 75.069 190.821,75.487 185.932,77.179 178.300 C 77.410 177.255,77.766 175.635,77.970 174.700 C 78.173 173.765,78.533 172.325,78.770 171.500 C 79.006 170.675,79.358 169.415,79.552 168.700 C 80.461 165.340,83.346 157.525,85.273 153.200 C 86.677 150.050,88.155 147.007,88.381 146.800 C 88.502 146.690,88.974 145.880,89.430 145.000 C 90.504 142.931,91.348 141.452,91.600 141.200 C 91.996 140.804,93.254 138.585,93.471 137.900 C 93.593 137.515,93.831 137.200,94.000 137.200 C 94.169 137.200,94.394 136.885,94.500 136.500 C 95.644 132.347,112.613 113.734,121.211 107.200 C 121.935 106.650,122.723 106.019,122.963 105.799 C 125.592 103.382,136.083 96.799,142.200 93.728 C 147.217 91.210,151.698 89.207,155.000 88.008 C 156.320 87.528,157.713 86.970,158.095 86.768 C 158.477 86.566,159.116 86.400,159.515 86.400 C 159.914 86.400,160.411 86.247,160.620 86.059 C 160.829 85.871,161.900 85.489,163.000 85.209 C 164.100 84.930,165.742 84.463,166.649 84.172 C 171.508 82.616,183.383 80.718,192.400 80.057 C 199.137 79.564,200.390 79.559,206.579 80.005 " stroke="none" fill="#242424" fill-rule="evenodd"></path><path id="path2" d="M199.100 80.282 C 199.595 80.378,200.405 80.378,200.900 80.282 C 201.395 80.187,200.990 80.109,200.000 80.109 C 199.010 80.109,198.605 80.187,199.100 80.282 M136.100 131.087 C 136.705 131.178,137.695 131.178,138.300 131.087 C 138.905 130.995,138.410 130.920,137.200 130.920 C 135.990 130.920,135.495 130.995,136.100 131.087 M261.305 131.087 C 261.914 131.179,262.814 131.177,263.305 131.082 C 263.797 130.987,263.300 130.911,262.200 130.914 C 261.100 130.917,260.697 130.995,261.305 131.087 M194.100 139.887 C 194.705 139.978,195.695 139.978,196.300 139.887 C 196.905 139.795,196.410 139.720,195.200 139.720 C 193.990 139.720,193.495 139.795,194.100 139.887 M203.300 139.887 C 203.905 139.978,204.895 139.978,205.500 139.887 C 206.105 139.795,205.610 139.720,204.400 139.720 C 203.190 139.720,202.695 139.795,203.300 139.887 M130.493 147.200 C 130.493 147.970,130.575 148.285,130.676 147.900 C 130.776 147.515,130.776 146.885,130.676 146.500 C 130.575 146.115,130.493 146.430,130.493 147.200 M278.909 193.600 C 278.909 194.590,278.987 194.995,279.082 194.500 C 279.178 194.005,279.178 193.195,279.082 192.700 C 278.987 192.205,278.909 192.610,278.909 193.600 M74.937 199.400 C 74.939 201.160,75.009 201.830,75.093 200.889 C 75.178 199.949,75.177 198.509,75.091 197.689 C 75.005 196.870,74.936 197.640,74.937 199.400 M278.909 200.800 C 278.909 201.790,278.987 202.195,279.082 201.700 C 279.178 201.205,279.178 200.395,279.082 199.900 C 278.987 199.405,278.909 199.810,278.909 200.800 M324.931 203.000 C 324.933 204.540,325.005 205.121,325.092 204.291 C 325.179 203.461,325.177 202.201,325.089 201.491 C 325.000 200.781,324.929 201.460,324.931 203.000 M74.931 206.600 C 74.933 208.140,75.005 208.721,75.092 207.891 C 75.179 207.061,75.177 205.801,75.089 205.091 C 75.000 204.381,74.929 205.060,74.931 206.600 M263.978 240.700 L 262.600 242.200 264.100 240.822 C 265.496 239.538,265.784 239.200,265.478 239.200 C 265.412 239.200,264.737 239.875,263.978 240.700 M153.900 277.082 C 154.395 277.178,155.205 277.178,155.700 277.082 C 156.195 276.987,155.790 276.909,154.800 276.909 C 153.810 276.909,153.405 276.987,153.900 277.082 M110.600 289.200 C 111.683 290.300,112.660 291.200,112.770 291.200 C 112.880 291.200,112.083 290.300,111.000 289.200 C 109.917 288.100,108.940 287.200,108.830 287.200 C 108.720 287.200,109.517 288.100,110.600 289.200 M288.800 289.000 C 287.828 289.990,287.123 290.800,287.233 290.800 C 287.343 290.800,288.228 289.990,289.200 289.000 C 290.172 288.010,290.877 287.200,290.767 287.200 C 290.657 287.200,289.772 288.010,288.800 289.000 M155.905 294.283 C 156.402 294.379,157.122 294.375,157.505 294.275 C 157.887 294.175,157.480 294.096,156.600 294.101 C 155.720 294.105,155.407 294.187,155.905 294.283 M168.948 310.400 C 168.948 312.710,169.014 313.655,169.095 312.500 C 169.176 311.345,169.176 309.455,169.095 308.300 C 169.014 307.145,168.948 308.090,168.948 310.400 " stroke="none" fill="#8c8c8c" fill-rule="evenodd"></path><path id="path3" d="M194.400 79.979 C 192.969 80.112,195.486 80.223,200.000 80.226 C 205.223 80.230,207.183 80.135,205.400 79.966 C 202.041 79.646,197.939 79.651,194.400 79.979 M184.000 80.800 C 182.629 81.089,182.625 81.095,183.800 81.124 C 184.460 81.141,185.720 81.005,186.600 80.823 L 188.200 80.492 186.800 80.499 C 186.030 80.502,184.770 80.638,184.000 80.800 M213.400 80.823 C 214.280 81.005,215.540 81.144,216.200 81.131 C 217.244 81.111,217.192 81.065,215.800 80.777 C 214.920 80.595,213.660 80.456,213.000 80.469 C 211.956 80.489,212.008 80.535,213.400 80.823 M178.600 81.600 C 177.522 81.874,177.502 81.906,178.400 81.913 C 178.950 81.917,179.850 81.776,180.400 81.600 C 181.744 81.169,180.292 81.169,178.600 81.600 M219.600 81.600 C 220.150 81.776,221.050 81.917,221.600 81.913 C 222.498 81.906,222.478 81.874,221.400 81.600 C 219.708 81.169,218.256 81.169,219.600 81.600 M174.200 82.400 C 173.111 82.677,173.093 82.707,174.000 82.725 C 174.550 82.735,175.360 82.589,175.800 82.400 C 176.786 81.976,175.866 81.976,174.200 82.400 M224.200 82.381 C 224.968 82.729,227.110 82.956,226.767 82.653 C 226.675 82.572,225.880 82.396,225.000 82.262 C 223.885 82.093,223.642 82.129,224.200 82.381 M170.600 83.200 C 169.511 83.477,169.493 83.507,170.400 83.525 C 170.950 83.535,171.760 83.389,172.200 83.200 C 173.186 82.776,172.266 82.776,170.600 83.200 M228.200 83.200 C 228.640 83.389,229.360 83.538,229.800 83.532 C 230.443 83.523,230.404 83.457,229.600 83.200 C 228.232 82.762,227.181 82.762,228.200 83.200 M166.856 84.059 C 166.117 84.272,165.590 84.523,165.685 84.618 C 165.780 84.713,166.654 84.540,167.629 84.235 C 169.618 83.611,168.945 83.458,166.856 84.059 M231.400 84.000 C 231.840 84.189,232.560 84.338,233.000 84.332 C 233.643 84.323,233.604 84.257,232.800 84.000 C 231.432 83.562,230.381 83.562,231.400 84.000 M234.400 84.741 C 234.730 84.934,235.540 85.209,236.200 85.352 C 236.968 85.518,237.184 85.484,236.800 85.259 C 236.470 85.066,235.660 84.791,235.000 84.648 C 234.232 84.482,234.016 84.516,234.400 84.741 M161.800 85.485 C 161.360 85.591,160.832 85.837,160.627 86.032 C 160.422 86.227,160.851 86.215,161.581 86.005 C 163.643 85.414,163.817 85.000,161.800 85.485 M240.779 86.801 C 242.638 87.446,244.243 87.890,244.346 87.787 C 244.449 87.684,244.440 87.600,244.325 87.600 C 244.211 87.600,242.877 87.150,241.360 86.600 C 239.844 86.050,238.333 85.606,238.002 85.614 C 237.671 85.621,238.921 86.156,240.779 86.801 M139.500 95.029 C 138.005 95.840,138.096 96.178,139.600 95.400 C 140.260 95.059,140.800 94.694,140.800 94.590 C 140.800 94.332,140.757 94.347,139.500 95.029 M133.496 98.550 C 131.575 99.731,131.038 100.289,132.600 99.481 C 133.854 98.833,135.545 97.626,135.200 97.625 C 135.090 97.625,134.323 98.041,133.496 98.550 M265.400 98.211 C 265.840 98.569,266.740 99.126,267.400 99.450 C 268.522 100.001,268.548 99.997,267.800 99.389 C 267.360 99.031,266.460 98.474,265.800 98.150 C 264.678 97.599,264.652 97.603,265.400 98.211 M128.665 101.622 C 127.419 102.514,126.400 103.339,126.400 103.456 C 126.400 103.643,129.982 101.199,130.980 100.331 C 132.002 99.441,130.681 100.178,128.665 101.622 M269.000 100.263 C 269.913 101.176,276.799 105.996,276.783 105.710 C 276.774 105.540,275.475 104.500,273.897 103.400 C 270.432 100.985,268.458 99.720,269.000 100.263 M124.505 104.525 C 123.793 105.006,123.208 105.544,123.205 105.720 C 123.202 105.897,123.830 105.560,124.600 104.973 C 125.370 104.386,126.000 103.836,126.000 103.753 C 126.000 103.527,125.919 103.569,124.505 104.525 M278.800 107.508 C 279.790 108.394,280.677 109.045,280.771 108.955 C 280.948 108.786,280.257 108.191,278.200 106.742 C 277.540 106.278,277.810 106.622,278.800 107.508 M117.454 110.233 C 116.823 110.787,116.387 111.320,116.483 111.416 C 116.579 111.513,117.174 111.054,117.804 110.396 C 119.196 108.943,119.016 108.859,117.454 110.233 M282.171 110.297 C 282.815 111.009,283.430 111.504,283.538 111.396 C 283.645 111.288,283.658 111.155,283.567 111.100 C 283.475 111.045,282.860 110.551,282.200 110.001 L 281.000 109.003 282.171 110.297 M113.785 113.700 L 111.800 115.800 113.900 113.815 C 115.055 112.723,116.000 111.778,116.000 111.715 C 116.000 111.417,115.629 111.749,113.785 113.700 M289.587 117.400 C 296.946 125.051,296.740 124.847,295.422 123.200 C 293.976 121.394,289.604 116.858,286.361 113.800 C 284.961 112.480,286.413 114.100,289.587 117.400 M107.610 119.748 L 105.021 122.600 107.910 119.811 C 109.500 118.277,110.800 116.972,110.800 116.911 C 110.800 116.441,109.831 117.303,107.610 119.748 M102.921 125.100 C 100.776 127.618,97.742 131.639,99.258 129.953 C 101.010 128.006,105.226 122.800,105.052 122.800 C 104.957 122.800,103.998 123.835,102.921 125.100 M296.800 124.969 C 296.800 125.233,301.404 131.145,302.119 131.800 C 302.359 132.020,302.035 131.480,301.399 130.600 C 299.665 128.201,296.800 124.693,296.800 124.969 M134.014 131.974 C 133.786 132.399,133.614 132.984,133.632 133.274 C 133.649 133.563,133.840 133.316,134.057 132.725 C 134.280 132.116,134.830 131.575,135.325 131.479 L 136.200 131.309 135.314 131.254 C 134.807 131.223,134.251 131.531,134.014 131.974 M139.600 131.626 C 141.250 131.793,143.315 132.116,144.189 132.343 C 145.063 132.570,145.849 132.684,145.936 132.597 C 146.023 132.510,145.578 132.325,144.947 132.186 C 144.316 132.048,143.278 131.769,142.640 131.567 C 142.002 131.365,140.382 131.227,139.040 131.260 L 136.600 131.321 139.600 131.626 M258.700 131.489 C 259.415 131.578,260.585 131.578,261.300 131.489 C 262.015 131.401,261.430 131.328,260.000 131.328 C 258.570 131.328,257.985 131.401,258.700 131.489 M263.800 131.480 C 264.240 131.583,264.825 131.957,265.100 132.310 C 265.375 132.664,265.600 132.775,265.600 132.556 C 265.600 131.877,264.677 131.198,263.820 131.246 C 263.018 131.292,263.017 131.297,263.800 131.480 M96.729 133.100 C 95.575 134.457,94.315 136.448,94.496 136.629 C 94.596 136.730,95.338 135.819,96.143 134.606 C 97.609 132.399,97.848 131.784,96.729 133.100 M251.243 133.205 C 250.057 133.631,248.977 134.104,248.843 134.254 C 248.709 134.404,248.950 134.401,249.378 134.246 C 249.806 134.092,251.021 133.682,252.078 133.337 C 253.135 132.991,254.000 132.639,254.000 132.554 C 254.000 132.282,253.445 132.413,251.243 133.205 M148.385 133.614 C 149.586 134.046,150.666 134.387,150.785 134.370 C 151.298 134.300,147.723 132.858,147.000 132.844 C 146.560 132.836,147.183 133.182,148.385 133.614 M159.600 138.579 C 159.600 138.689,160.140 139.059,160.800 139.400 C 161.460 139.741,162.000 139.931,162.000 139.821 C 162.000 139.711,161.460 139.341,160.800 139.000 C 160.140 138.659,159.600 138.469,159.600 138.579 M131.456 140.484 C 131.321 140.988,131.231 142.030,131.255 142.800 C 131.289 143.869,131.375 143.680,131.618 142.002 C 131.953 139.692,131.872 138.933,131.456 140.484 M198.291 139.889 C 199.001 139.977,200.261 139.979,201.091 139.892 C 201.921 139.805,201.340 139.733,199.800 139.731 C 198.260 139.729,197.581 139.800,198.291 139.889 M187.000 140.400 L 185.400 140.686 187.000 140.696 C 187.880 140.701,189.140 140.568,189.800 140.400 L 191.000 140.095 189.800 140.104 C 189.140 140.109,187.880 140.242,187.000 140.400 M210.000 140.379 C 210.986 140.716,214.290 140.941,213.967 140.650 C 213.875 140.568,212.720 140.396,211.400 140.269 C 209.845 140.120,209.352 140.158,210.000 140.379 M267.693 141.000 C 267.694 141.660,267.832 142.740,268.000 143.400 C 268.423 145.063,268.442 143.426,268.023 141.400 C 267.745 140.055,267.692 139.991,267.693 141.000 M181.000 141.200 L 179.800 141.505 181.000 141.547 C 181.660 141.569,182.470 141.413,182.800 141.200 C 183.543 140.720,182.887 140.720,181.000 141.200 M216.800 141.179 C 217.130 141.404,217.925 141.591,218.567 141.594 C 220.104 141.602,219.784 141.370,217.800 141.038 C 216.654 140.846,216.370 140.886,216.800 141.179 M176.400 142.000 L 175.400 142.320 176.400 142.354 C 176.950 142.373,177.670 142.213,178.000 142.000 C 178.764 141.506,177.942 141.506,176.400 142.000 M221.600 142.000 C 221.930 142.213,222.650 142.373,223.200 142.354 L 224.200 142.320 223.200 142.000 C 221.658 141.506,220.836 141.506,221.600 142.000 M172.800 142.800 C 171.976 143.064,171.941 143.126,172.600 143.154 C 173.040 143.173,173.670 143.013,174.000 142.800 C 174.701 142.347,174.214 142.347,172.800 142.800 M225.600 142.782 C 225.930 143.005,226.545 143.191,226.967 143.194 C 227.990 143.202,227.671 142.973,226.200 142.644 C 225.324 142.448,225.162 142.485,225.600 142.782 M167.864 143.700 C 168.101 144.088,170.059 144.077,170.678 143.684 C 170.941 143.517,170.374 143.385,169.418 143.390 C 168.462 143.396,167.762 143.535,167.864 143.700 M229.050 143.681 C 229.300 144.086,232.000 144.103,231.999 143.700 C 231.998 143.535,231.290 143.392,230.425 143.381 C 229.561 143.371,228.942 143.506,229.050 143.681 M130.893 145.600 C 130.893 146.370,130.975 146.685,131.076 146.300 C 131.176 145.915,131.176 145.285,131.076 144.900 C 130.975 144.515,130.893 144.830,130.893 145.600 M268.553 149.400 C 268.553 152.040,268.618 153.068,268.697 151.684 C 268.775 150.301,268.774 148.141,268.695 146.884 C 268.616 145.628,268.552 146.760,268.553 149.400 M87.704 147.874 C 87.017 149.353,87.294 149.425,88.144 147.988 C 88.530 147.334,88.700 146.801,88.523 146.803 C 88.345 146.805,87.977 147.287,87.704 147.874 M130.493 149.600 C 130.493 150.370,130.575 150.685,130.676 150.300 C 130.776 149.915,130.776 149.285,130.676 148.900 C 130.575 148.515,130.493 148.830,130.493 149.600 M312.678 149.795 C 313.044 150.562,313.414 151.119,313.501 151.032 C 313.684 150.849,312.470 148.400,312.196 148.400 C 312.095 148.400,312.312 149.028,312.678 149.795 M86.200 151.061 C 85.864 151.865,85.682 152.615,85.795 152.728 C 85.908 152.841,86.000 152.835,86.000 152.716 C 86.000 152.596,86.272 151.846,86.605 151.049 C 86.938 150.252,87.121 149.600,87.011 149.600 C 86.901 149.600,86.536 150.258,86.200 151.061 M315.214 155.200 C 315.693 156.410,316.453 158.349,316.901 159.508 C 317.350 160.668,317.789 161.544,317.877 161.456 C 318.080 161.253,315.205 153.934,314.712 153.400 C 314.509 153.180,314.735 153.990,315.214 155.200 M131.301 156.200 C 131.305 157.080,131.387 157.393,131.483 156.895 C 131.579 156.398,131.575 155.678,131.475 155.295 C 131.375 154.913,131.296 155.320,131.301 156.200 M131.668 158.400 C 131.688 159.439,132.318 161.146,132.332 160.200 C 132.338 159.760,132.189 159.040,132.000 158.600 C 131.789 158.110,131.661 158.032,131.668 158.400 M266.846 160.867 C 266.821 161.234,266.696 161.864,266.570 162.267 C 266.352 162.962,266.363 162.963,266.797 162.287 C 267.048 161.896,267.173 161.266,267.073 160.887 C 266.911 160.268,266.888 160.266,266.846 160.867 M132.663 162.497 C 132.822 163.485,132.716 164.232,132.352 164.697 C 131.851 165.335,131.865 165.349,132.500 164.851 C 133.259 164.256,133.418 162.561,132.805 161.600 C 132.543 161.188,132.498 161.469,132.663 162.497 M266.000 163.379 C 266.000 163.550,266.690 164.524,267.534 165.544 C 268.378 166.565,269.548 168.117,270.134 168.993 C 270.720 169.869,271.200 170.380,271.200 170.128 C 271.200 169.876,270.030 168.185,268.600 166.370 C 267.170 164.555,266.000 163.209,266.000 163.379 M128.893 169.100 C 127.857 170.596,127.521 171.200,127.723 171.200 C 127.817 171.200,128.370 170.480,128.953 169.600 C 130.136 167.812,130.084 167.379,128.893 169.100 M271.609 171.100 C 271.614 171.265,271.985 171.850,272.433 172.400 L 273.248 173.400 272.614 172.100 C 272.011 170.865,271.589 170.445,271.609 171.100 M78.273 172.953 C 78.123 173.345,78.011 173.966,78.025 174.333 C 78.042 174.775,78.181 174.674,78.437 174.034 C 78.649 173.503,78.761 172.882,78.685 172.654 C 78.609 172.427,78.424 172.561,78.273 172.953 M322.028 176.676 C 322.118 177.715,322.744 178.596,322.772 177.724 C 322.787 177.242,322.620 176.736,322.400 176.600 C 322.180 176.464,322.013 176.498,322.028 176.676 M76.649 180.215 C 76.512 180.573,76.416 181.256,76.436 181.733 C 76.462 182.347,76.585 182.208,76.859 181.256 C 77.257 179.872,77.094 179.058,76.649 180.215 M323.044 181.400 C 323.373 182.871,323.602 183.190,323.594 182.167 C 323.591 181.745,323.405 181.130,323.182 180.800 C 322.885 180.362,322.848 180.524,323.044 181.400 M122.200 183.200 C 122.050 183.673,122.017 184.150,122.127 184.260 C 122.237 184.370,122.450 184.073,122.600 183.600 C 122.750 183.127,122.783 182.650,122.673 182.540 C 122.563 182.430,122.350 182.727,122.200 183.200 M75.876 184.810 C 75.730 185.355,75.628 186.340,75.649 187.000 C 75.680 187.957,75.759 187.836,76.042 186.400 C 76.429 184.433,76.302 183.217,75.876 184.810 M323.675 185.400 C 323.686 185.840,323.832 186.740,324.000 187.400 L 324.305 188.600 324.325 187.400 C 324.335 186.740,324.189 185.840,324.000 185.400 L 323.656 184.600 323.675 185.400 M121.429 186.629 C 121.281 187.215,121.238 187.772,121.332 187.866 C 121.427 187.960,121.624 187.558,121.771 186.971 C 121.919 186.385,121.962 185.828,121.868 185.734 C 121.773 185.640,121.576 186.042,121.429 186.629 M278.068 188.000 C 278.062 188.550,278.211 189.360,278.400 189.800 L 278.744 190.600 278.732 189.800 C 278.726 189.360,278.576 188.550,278.400 188.000 L 278.080 187.000 278.068 188.000 M75.056 191.284 C 74.921 191.788,74.832 193.190,74.857 194.400 C 74.903 196.572,74.908 196.563,75.248 193.630 C 75.595 190.636,75.510 189.592,75.056 191.284 M120.583 193.444 C 120.426 195.118,120.461 198.493,120.661 200.944 L 121.023 205.400 121.032 197.900 C 121.042 189.538,120.994 189.062,120.583 193.444 M324.704 195.800 C 324.817 198.220,324.975 200.275,325.055 200.367 C 325.340 200.695,325.114 193.380,324.809 192.400 C 324.637 191.850,324.590 193.380,324.704 195.800 M278.920 197.200 C 278.920 198.410,278.995 198.905,279.087 198.300 C 279.178 197.695,279.178 196.705,279.087 196.100 C 278.995 195.495,278.920 195.990,278.920 197.200 M278.282 206.350 C 278.127 207.093,278.020 208.173,278.044 208.750 C 278.073 209.442,278.210 209.187,278.447 208.000 C 278.645 207.010,278.752 205.930,278.685 205.600 C 278.619 205.270,278.438 205.607,278.282 206.350 M324.879 208.400 C 324.831 210.050,324.699 212.120,324.585 213.000 C 324.408 214.380,324.438 214.466,324.804 213.627 C 325.037 213.092,325.169 211.024,325.097 209.027 L 324.966 205.400 324.879 208.400 M121.268 209.000 C 121.274 209.440,121.424 210.250,121.600 210.800 L 121.920 211.800 121.932 210.800 C 121.938 210.250,121.789 209.440,121.600 209.000 L 121.256 208.200 121.268 209.000 M74.828 211.633 C 74.844 213.045,75.005 214.560,75.188 215.000 C 75.379 215.463,75.429 214.451,75.305 212.600 C 75.042 208.676,74.790 208.165,74.828 211.633 M277.400 212.800 C 277.248 213.491,277.207 214.141,277.309 214.242 C 277.411 214.344,277.609 213.853,277.750 213.150 C 277.891 212.447,277.931 211.798,277.841 211.708 C 277.750 211.617,277.552 212.109,277.400 212.800 M122.068 213.600 C 122.088 214.639,122.718 216.346,122.732 215.400 C 122.738 214.960,122.589 214.240,122.400 213.800 C 122.189 213.310,122.061 213.232,122.068 213.600 M122.828 217.476 C 122.918 218.515,123.544 219.396,123.572 218.524 C 123.587 218.042,123.420 217.536,123.200 217.400 C 122.980 217.264,122.813 217.298,122.828 217.476 M324.059 218.000 C 324.020 218.550,323.889 219.450,323.767 220.000 C 323.576 220.862,323.608 220.902,323.997 220.291 C 324.246 219.902,324.377 219.002,324.289 218.291 C 324.164 217.287,324.113 217.222,324.059 218.000 M75.675 219.400 C 75.665 220.060,75.811 220.960,76.000 221.400 L 76.344 222.200 76.325 221.400 C 76.314 220.960,76.168 220.060,76.000 219.400 L 75.695 218.200 75.675 219.400 M323.029 224.229 C 322.881 224.815,322.851 225.384,322.961 225.494 C 323.071 225.604,323.281 225.215,323.429 224.629 C 323.576 224.042,323.606 223.473,323.496 223.363 C 323.386 223.253,323.176 223.642,323.029 224.229 M76.446 224.400 C 76.427 224.950,76.587 225.670,76.800 226.000 C 77.294 226.764,77.294 225.942,76.800 224.400 L 76.480 223.400 76.446 224.400 M322.229 228.229 C 322.081 228.815,322.051 229.384,322.161 229.494 C 322.271 229.604,322.481 229.215,322.629 228.629 C 322.776 228.042,322.806 227.473,322.696 227.363 C 322.586 227.253,322.376 227.642,322.229 228.229 M77.228 228.676 C 77.213 229.158,77.380 229.664,77.600 229.800 C 78.073 230.092,78.073 229.701,77.600 228.600 C 77.269 227.829,77.255 227.831,77.228 228.676 M127.386 229.500 C 127.735 230.215,128.106 230.800,128.210 230.800 C 128.608 230.800,128.352 230.163,127.567 229.200 L 126.752 228.200 127.386 229.500 M271.400 230.400 C 271.059 231.060,270.869 231.600,270.979 231.600 C 271.089 231.600,271.459 231.060,271.800 230.400 C 272.141 229.740,272.331 229.200,272.221 229.200 C 272.111 229.200,271.741 229.740,271.400 230.400 M321.429 231.829 C 321.281 232.415,321.251 232.984,321.361 233.094 C 321.471 233.204,321.681 232.815,321.829 232.229 C 321.976 231.642,322.006 231.073,321.896 230.963 C 321.786 230.853,321.576 231.242,321.429 231.829 M128.646 231.700 C 129.960 233.941,132.313 237.069,134.027 238.855 L 136.085 241.000 134.185 238.800 C 133.140 237.590,131.474 235.385,130.483 233.900 C 129.493 232.415,128.608 231.200,128.518 231.200 C 128.427 231.200,128.485 231.425,128.646 231.700 M268.989 234.300 C 268.151 235.565,265.966 238.126,264.133 239.990 C 262.300 241.855,260.800 243.470,260.800 243.580 C 260.800 244.450,268.294 236.089,270.193 233.100 C 271.535 230.988,270.501 232.019,268.989 234.300 M258.905 244.525 C 258.193 245.006,257.608 245.547,257.605 245.727 C 257.599 246.088,259.835 244.590,260.212 243.981 C 260.534 243.460,260.396 243.517,258.905 244.525 M255.900 246.629 C 255.295 246.957,254.800 247.310,254.800 247.413 C 254.800 247.799,255.432 247.557,256.400 246.800 C 257.589 245.870,257.411 245.809,255.900 246.629 M82.998 247.565 C 83.475 249.113,84.394 251.200,84.600 251.200 C 84.814 251.200,83.249 247.107,82.917 246.800 C 82.798 246.690,82.834 247.034,82.998 247.565 M143.600 246.979 C 143.600 247.089,144.140 247.459,144.800 247.800 C 145.460 248.141,146.000 248.331,146.000 248.221 C 146.000 248.111,145.460 247.741,144.800 247.400 C 144.140 247.059,143.600 246.869,143.600 246.979 M251.047 249.215 C 247.764 250.837,246.659 251.538,248.475 250.847 C 250.096 250.231,254.400 248.013,254.400 247.794 C 254.400 247.542,254.657 247.433,251.047 249.215 M315.667 249.580 C 315.433 250.251,315.327 250.800,315.431 250.800 C 315.701 250.800,316.456 248.722,316.257 248.524 C 316.167 248.433,315.901 248.908,315.667 249.580 M148.000 249.381 C 148.000 249.623,152.429 251.601,152.948 251.591 C 153.197 251.586,152.590 251.210,151.600 250.754 C 149.153 249.629,148.000 249.189,148.000 249.381 M111.600 251.161 C 110.970 251.339,111.637 251.443,113.400 251.443 C 115.163 251.443,115.830 251.339,115.200 251.161 C 114.650 251.007,113.840 250.880,113.400 250.880 C 112.960 250.880,112.150 251.007,111.600 251.161 M244.919 251.762 C 244.215 252.018,243.516 252.351,243.365 252.502 C 243.063 252.804,244.836 252.316,246.400 251.666 C 247.762 251.100,246.515 251.181,244.919 251.762 M314.167 252.883 C 313.764 253.828,313.297 254.915,313.130 255.300 C 312.963 255.685,312.905 256.000,313.001 256.000 C 313.273 256.000,315.256 251.523,315.067 251.334 C 314.975 251.242,314.570 251.939,314.167 252.883 M84.821 251.688 C 84.792 252.090,86.784 256.400,86.999 256.400 C 87.230 256.400,86.865 255.471,85.752 253.231 C 85.252 252.224,84.833 251.530,84.821 251.688 M108.647 252.348 C 107.925 253.146,108.428 255.200,109.344 255.200 C 109.596 255.200,109.571 255.011,109.280 254.720 C 108.573 254.013,108.696 252.500,109.500 252.032 C 109.885 251.808,110.003 251.619,109.762 251.612 C 109.521 251.605,109.019 251.937,108.647 252.348 M116.833 251.744 C 116.925 251.823,117.540 252.008,118.200 252.156 C 119.076 252.352,119.238 252.315,118.800 252.018 C 118.260 251.653,116.432 251.398,116.833 251.744 M155.400 252.551 C 156.799 253.156,158.800 253.687,158.800 253.454 C 158.800 253.267,155.011 251.992,154.525 252.016 C 154.346 252.024,154.740 252.265,155.400 252.551 M240.800 253.218 C 240.362 253.515,240.524 253.552,241.400 253.356 C 242.871 253.027,243.190 252.798,242.167 252.806 C 241.745 252.809,241.130 252.995,240.800 253.218 M159.233 253.744 C 159.325 253.823,159.940 254.008,160.600 254.156 C 161.476 254.352,161.638 254.315,161.200 254.018 C 160.660 253.653,158.832 253.398,159.233 253.744 M238.000 254.018 C 237.562 254.315,237.724 254.352,238.600 254.156 C 240.071 253.827,240.390 253.598,239.367 253.606 C 238.945 253.609,238.330 253.795,238.000 254.018 M162.033 254.543 C 162.125 254.621,162.830 254.801,163.600 254.942 C 164.585 255.123,164.822 255.082,164.400 254.806 C 163.858 254.450,161.637 254.203,162.033 254.543 M234.400 254.806 C 233.978 255.082,234.215 255.123,235.200 254.942 C 236.925 254.625,237.251 254.398,235.967 254.406 C 235.435 254.409,234.730 254.589,234.400 254.806 M165.633 255.347 C 165.725 255.428,166.520 255.614,167.400 255.762 C 168.546 255.954,168.830 255.914,168.400 255.621 C 167.860 255.253,165.232 254.993,165.633 255.347 M230.200 255.610 C 229.666 255.847,229.998 255.886,231.200 255.727 C 232.190 255.596,233.075 255.424,233.167 255.344 C 233.514 255.043,230.964 255.272,230.200 255.610 M110.678 256.566 C 111.295 257.097,111.870 257.462,111.957 257.376 C 112.151 257.183,110.321 255.632,109.878 255.613 C 109.700 255.606,110.060 256.035,110.678 256.566 M125.645 255.900 C 125.670 256.065,126.795 257.185,128.145 258.388 L 130.600 260.576 128.213 258.088 C 125.782 255.555,125.565 255.371,125.645 255.900 M170.033 256.149 C 170.125 256.231,171.100 256.407,172.200 256.541 C 173.546 256.705,173.939 256.665,173.400 256.420 C 172.639 256.074,169.683 255.836,170.033 256.149 M225.000 256.420 C 224.461 256.665,224.854 256.705,226.200 256.541 C 227.300 256.407,228.275 256.231,228.367 256.149 C 228.717 255.836,225.761 256.074,225.000 256.420 M176.573 257.159 C 177.105 257.367,177.199 257.553,176.873 257.755 C 176.613 257.916,176.400 258.251,176.400 258.500 C 176.400 258.749,176.654 258.605,176.965 258.181 C 177.619 257.286,177.439 256.788,176.476 256.828 C 175.915 256.851,175.932 256.908,176.573 257.159 M88.809 260.300 C 88.814 260.465,89.185 261.050,89.633 261.600 L 90.448 262.600 89.814 261.300 C 89.211 260.065,88.789 259.645,88.809 260.300 M117.980 262.200 C 120.951 265.510,121.459 265.995,120.495 264.600 C 120.038 263.940,118.801 262.590,117.745 261.600 L 115.825 259.800 117.980 262.200 M132.669 264.083 C 134.957 267.456,138.758 271.706,140.190 272.491 C 140.625 272.730,139.877 271.903,138.529 270.655 C 137.181 269.407,134.976 266.777,133.629 264.810 C 132.282 262.844,131.009 261.129,130.800 261.000 C 130.591 260.871,131.432 262.258,132.669 264.083 M225.609 261.900 C 225.614 262.065,225.985 262.650,226.433 263.200 L 227.248 264.200 226.614 262.900 C 226.011 261.665,225.589 261.245,225.609 261.900 M90.409 263.100 C 90.414 263.265,90.785 263.850,91.233 264.400 L 92.048 265.400 91.414 264.100 C 90.811 262.865,90.389 262.445,90.409 263.100 M121.806 266.912 C 122.192 267.524,122.609 267.924,122.732 267.801 C 122.855 267.678,122.539 267.178,122.030 266.689 L 121.104 265.800 121.806 266.912 M306.253 267.700 L 305.533 269.000 306.358 268.000 C 307.089 267.113,307.414 266.400,307.086 266.400 C 307.024 266.400,306.649 266.985,306.253 267.700 M92.845 267.041 C 93.151 267.911,97.006 273.590,97.295 273.595 C 97.458 273.598,96.586 272.115,95.359 270.300 C 93.065 266.908,92.576 266.275,92.845 267.041 M228.856 269.200 C 228.856 269.530,229.011 270.160,229.200 270.600 C 229.417 271.104,229.544 271.178,229.544 270.800 C 229.544 270.470,229.389 269.840,229.200 269.400 C 228.983 268.896,228.856 268.822,228.856 269.200 M169.873 270.153 C 169.723 270.545,169.611 271.166,169.625 271.533 C 169.642 271.975,169.781 271.874,170.037 271.234 C 170.249 270.703,170.361 270.082,170.285 269.854 C 170.209 269.627,170.024 269.761,169.873 270.153 M302.650 272.888 C 302.096 273.596,301.723 274.256,301.821 274.354 C 301.920 274.453,302.046 274.458,302.101 274.367 C 302.157 274.275,302.612 273.615,303.113 272.900 C 304.289 271.222,303.960 271.214,302.650 272.888 M229.680 273.200 C 229.680 273.750,229.824 274.650,230.000 275.200 L 230.320 276.200 230.320 275.200 C 230.320 274.650,230.176 273.750,230.000 273.200 L 229.680 272.200 229.680 273.200 M141.200 273.095 C 141.200 273.484,142.814 274.519,143.051 274.282 C 143.147 274.186,142.769 273.810,142.212 273.445 C 141.656 273.080,141.200 272.922,141.200 273.095 M97.600 274.079 C 97.600 274.673,104.923 283.655,107.900 286.712 C 109.995 288.864,108.577 286.878,106.148 284.260 C 104.689 282.687,102.317 279.870,100.877 278.000 C 97.799 274.003,97.600 273.765,97.600 274.079 M298.700 278.194 C 297.215 280.056,296.000 281.697,296.000 281.840 C 296.000 281.983,297.260 280.525,298.800 278.600 C 301.358 275.402,301.793 274.791,301.500 274.804 C 301.445 274.807,300.185 276.332,298.700 278.194 M147.790 276.384 C 147.932 276.613,148.517 276.800,149.090 276.800 C 150.344 276.800,150.199 276.608,148.666 276.240 C 147.923 276.062,147.621 276.111,147.790 276.384 M161.200 276.400 L 160.200 276.720 161.276 276.760 C 161.868 276.782,162.464 276.620,162.600 276.400 C 162.881 275.945,162.620 275.945,161.200 276.400 M151.895 277.265 C 152.836 277.637,157.202 277.621,158.170 277.242 C 158.594 277.076,157.197 276.951,155.065 276.963 C 152.934 276.976,151.507 277.112,151.895 277.265 M129.572 281.482 C 130.083 282.514,134.437 287.296,134.661 287.072 C 134.745 286.988,134.037 286.127,133.088 285.160 C 132.138 284.192,130.860 282.770,130.248 282.000 C 129.636 281.230,129.332 280.997,129.572 281.482 M293.800 284.000 C 292.941 284.880,292.409 285.585,292.619 285.566 C 292.986 285.534,295.865 282.400,295.528 282.400 C 295.437 282.400,294.659 283.120,293.800 284.000 M288.894 289.118 C 287.736 290.330,286.846 291.380,286.917 291.450 C 286.988 291.521,288.110 290.504,289.410 289.190 C 290.711 287.875,291.601 286.826,291.387 286.858 C 291.174 286.889,290.052 287.907,288.894 289.118 M135.469 287.632 C 135.966 288.233,138.400 289.764,138.400 289.476 C 138.400 289.383,137.635 288.802,136.700 288.185 C 135.765 287.568,135.211 287.320,135.469 287.632 M138.800 289.779 C 138.800 289.889,139.340 290.259,140.000 290.600 C 140.660 290.941,141.200 291.131,141.200 291.021 C 141.200 290.911,140.660 290.541,140.000 290.200 C 139.340 289.859,138.800 289.669,138.800 289.779 M113.305 292.100 C 115.527 294.224,116.457 294.835,114.817 293.093 C 113.836 292.052,112.883 291.200,112.699 291.200 C 112.514 291.200,112.787 291.605,113.305 292.100 M284.176 293.709 L 282.200 295.800 284.193 294.000 C 285.288 293.010,286.263 292.155,286.359 292.100 C 286.455 292.045,286.447 291.914,286.343 291.809 C 286.238 291.704,285.263 292.559,284.176 293.709 M146.833 292.944 C 147.305 293.350,149.243 293.593,149.010 293.216 C 148.868 292.987,148.283 292.800,147.710 292.800 C 147.136 292.800,146.742 292.865,146.833 292.944 M164.200 293.200 L 163.400 293.544 164.200 293.532 C 164.640 293.526,165.450 293.376,166.000 293.200 L 167.000 292.880 166.000 292.868 C 165.450 292.862,164.640 293.011,164.200 293.200 M168.949 304.364 C 168.982 312.056,169.119 315.572,169.345 314.520 C 169.543 313.599,169.521 308.570,169.294 302.756 L 168.898 292.600 168.949 304.364 M154.100 293.896 C 155.365 293.975,157.435 293.975,158.700 293.896 C 159.965 293.816,158.930 293.751,156.400 293.751 C 153.870 293.751,152.835 293.816,154.100 293.896 M116.800 294.992 C 116.800 295.276,117.950 296.285,121.966 299.526 C 124.447 301.528,126.000 302.595,126.000 302.296 C 126.000 302.224,125.055 301.461,123.900 300.601 C 122.745 299.741,120.675 298.069,119.300 296.885 C 117.925 295.701,116.800 294.849,116.800 294.992 M278.770 298.268 L 277.800 299.336 278.887 298.568 C 279.486 298.146,279.981 297.665,279.987 297.500 C 280.008 297.007,279.789 297.146,278.770 298.268 M275.985 300.429 L 274.600 301.658 276.100 300.581 C 277.426 299.630,277.857 299.200,277.485 299.200 C 277.422 299.200,276.747 299.753,275.985 300.429 M126.422 302.712 C 126.449 303.067,131.612 306.521,131.814 306.319 C 131.894 306.239,130.709 305.329,129.180 304.298 C 127.651 303.267,126.410 302.553,126.422 302.712 M270.292 304.307 C 269.463 304.863,268.864 305.397,268.961 305.494 C 269.058 305.591,269.736 305.250,270.469 304.737 C 271.201 304.223,271.875 303.757,271.967 303.701 C 272.058 303.646,272.058 303.532,271.967 303.448 C 271.875 303.365,271.122 303.751,270.292 304.307 M138.400 310.367 C 139.363 311.152,140.000 311.408,140.000 311.010 C 140.000 310.906,139.415 310.535,138.700 310.186 L 137.400 309.552 138.400 310.367 M145.200 313.766 C 145.200 313.977,147.817 315.246,149.822 316.008 C 150.499 316.266,150.762 316.263,150.599 315.999 C 150.464 315.779,150.181 315.600,149.972 315.600 C 149.663 315.600,146.780 314.382,145.500 313.710 C 145.335 313.624,145.200 313.649,145.200 313.766 M250.533 315.122 C 249.616 315.495,248.716 315.951,248.533 316.136 C 248.112 316.560,251.666 315.199,252.180 314.740 C 252.693 314.281,252.480 314.331,250.533 315.122 M167.100 318.033 C 166.275 318.895,165.761 319.600,165.959 319.600 C 166.308 319.600,168.800 316.957,168.800 316.586 C 168.800 316.283,168.670 316.394,167.100 318.033 M161.240 320.042 C 162.033 320.219,163.203 320.222,163.840 320.050 C 164.725 319.811,164.382 319.735,162.400 319.729 C 160.175 319.723,160.008 319.768,161.240 320.042 M236.100 319.876 C 236.485 319.976,237.115 319.976,237.500 319.876 C 237.885 319.775,237.570 319.693,236.800 319.693 C 236.030 319.693,235.715 319.775,236.100 319.876 " stroke="none" fill="#6a6a6a" fill-rule="evenodd"></path><path id="path4" d="M190.900 80.694 C 191.945 80.776,193.655 80.776,194.700 80.694 C 195.745 80.612,194.890 80.544,192.800 80.544 C 190.710 80.544,189.855 80.612,190.900 80.694 M205.300 80.694 C 206.345 80.776,208.055 80.776,209.100 80.694 C 210.145 80.612,209.290 80.544,207.200 80.544 C 205.110 80.544,204.255 80.612,205.300 80.694 M186.900 81.076 C 187.285 81.176,187.915 81.176,188.300 81.076 C 188.685 80.975,188.370 80.893,187.600 80.893 C 186.830 80.893,186.515 80.975,186.900 81.076 M211.700 81.076 C 212.085 81.176,212.715 81.176,213.100 81.076 C 213.485 80.975,213.170 80.893,212.400 80.893 C 211.630 80.893,211.315 80.975,211.700 81.076 M181.000 81.620 C 180.211 81.835,180.622 81.870,182.200 81.723 C 183.520 81.600,184.675 81.432,184.767 81.350 C 185.064 81.082,182.234 81.285,181.000 81.620 M215.233 81.346 C 215.325 81.426,216.390 81.594,217.600 81.719 C 219.020 81.866,219.446 81.829,218.800 81.613 C 217.809 81.283,214.913 81.065,215.233 81.346 M176.400 82.400 C 175.056 82.831,176.508 82.831,178.200 82.400 C 179.278 82.126,179.298 82.094,178.400 82.087 C 177.850 82.083,176.950 82.224,176.400 82.400 M221.800 82.400 C 223.492 82.831,224.944 82.831,223.600 82.400 C 223.050 82.224,222.150 82.083,221.600 82.087 C 220.702 82.094,220.722 82.126,221.800 82.400 M172.600 83.200 C 172.096 83.417,172.022 83.544,172.400 83.544 C 172.730 83.544,173.360 83.389,173.800 83.200 C 174.304 82.983,174.378 82.856,174.000 82.856 C 173.670 82.856,173.040 83.011,172.600 83.200 M226.200 83.200 C 226.640 83.389,227.270 83.544,227.600 83.544 C 227.978 83.544,227.904 83.417,227.400 83.200 C 226.960 83.011,226.330 82.856,226.000 82.856 C 225.622 82.856,225.696 82.983,226.200 83.200 M169.000 84.000 C 168.496 84.217,168.422 84.344,168.800 84.344 C 169.130 84.344,169.760 84.189,170.200 84.000 C 170.704 83.783,170.778 83.656,170.400 83.656 C 170.070 83.656,169.440 83.811,169.000 84.000 M229.800 84.000 C 230.240 84.189,230.870 84.344,231.200 84.344 C 231.578 84.344,231.504 84.217,231.000 84.000 C 230.560 83.811,229.930 83.656,229.600 83.656 C 229.222 83.656,229.296 83.783,229.800 84.000 M134.081 98.572 C 132.325 99.814,131.897 100.345,133.400 99.418 C 135.478 98.135,136.191 97.599,135.789 97.620 C 135.575 97.630,134.807 98.059,134.081 98.572 M264.611 98.139 C 266.519 99.441,267.600 100.078,267.600 99.899 C 267.600 99.645,264.504 97.600,264.120 97.600 C 263.956 97.600,264.177 97.842,264.611 98.139 M124.400 105.249 C 123.006 106.471,123.005 106.472,124.288 105.619 C 124.996 105.148,125.682 104.591,125.812 104.381 C 126.197 103.757,125.877 103.954,124.400 105.249 M274.144 104.309 C 274.460 104.821,276.800 106.553,276.800 106.275 C 276.800 106.176,276.139 105.591,275.332 104.975 C 274.524 104.359,273.989 104.059,274.144 104.309 M112.310 115.700 C 109.140 118.835,108.442 119.600,110.758 117.400 C 115.811 112.601,115.050 113.309,117.101 111.500 C 118.037 110.675,118.638 110.000,118.438 110.000 C 118.237 110.000,115.480 112.565,112.310 115.700 M284.297 112.749 C 287.352 115.455,291.744 119.917,294.331 122.942 C 295.056 123.790,295.750 124.383,295.873 124.260 C 296.162 123.972,282.205 110.000,281.628 110.000 C 281.390 110.000,282.591 111.237,284.297 112.749 M104.975 123.300 L 103.800 124.600 105.100 123.425 C 106.312 122.330,106.584 122.000,106.275 122.000 C 106.206 122.000,105.621 122.585,104.975 123.300 M102.344 126.300 C 101.075 127.832,100.619 128.542,101.081 128.265 C 101.593 127.958,103.369 125.600,103.089 125.600 C 102.998 125.600,102.663 125.915,102.344 126.300 M99.944 129.500 C 98.793 130.889,98.306 131.600,98.504 131.600 C 98.614 131.600,99.186 130.970,99.773 130.200 C 100.863 128.771,100.995 128.232,99.944 129.500 M300.175 130.132 C 300.791 130.939,301.376 131.600,301.475 131.600 C 301.753 131.600,300.021 129.260,299.509 128.944 C 299.259 128.789,299.559 129.324,300.175 130.132 M134.500 130.888 C 134.005 131.127,133.600 131.479,133.600 131.670 C 133.600 131.862,134.057 131.719,134.616 131.353 C 135.409 130.833,136.220 130.734,138.316 130.901 C 139.889 131.026,140.586 130.983,140.000 130.797 C 138.546 130.336,135.542 130.386,134.500 130.888 M259.200 130.811 C 258.571 131.019,259.164 131.065,260.800 130.934 C 262.259 130.817,263.927 130.919,264.600 131.165 C 265.708 131.571,265.741 131.559,265.024 131.002 C 264.184 130.351,260.913 130.244,259.200 130.811 M143.000 131.600 C 143.440 131.789,144.070 131.944,144.400 131.944 C 144.778 131.944,144.704 131.817,144.200 131.600 C 143.760 131.411,143.130 131.256,142.800 131.256 C 142.422 131.256,142.496 131.383,143.000 131.600 M255.200 131.600 C 254.405 132.114,255.404 132.114,256.600 131.600 L 257.400 131.256 256.600 131.234 C 256.160 131.222,255.530 131.387,255.200 131.600 M97.521 132.700 C 96.900 133.419,93.997 137.729,93.411 138.800 C 92.692 140.114,93.961 138.471,96.115 135.300 C 98.313 132.064,98.723 131.305,97.521 132.700 M303.027 134.000 C 304.829 136.623,305.579 137.466,304.629 135.800 C 304.252 135.140,303.398 133.970,302.730 133.200 C 301.751 132.071,301.809 132.226,303.027 134.000 M154.033 135.351 C 154.442 135.721,157.600 137.195,157.600 137.016 C 157.600 136.789,154.581 135.200,154.149 135.200 C 153.994 135.200,153.942 135.268,154.033 135.351 M243.100 136.229 C 241.549 137.070,241.725 137.361,243.300 136.559 C 244.808 135.793,245.075 135.594,244.567 135.616 C 244.365 135.625,243.705 135.901,243.100 136.229 M267.212 137.600 C 267.212 137.930,267.387 138.470,267.600 138.800 C 267.945 139.333,267.988 139.333,267.988 138.800 C 267.988 138.470,267.813 137.930,267.600 137.600 C 267.255 137.067,267.212 137.067,267.212 137.600 M131.429 139.029 C 131.281 139.615,131.238 140.172,131.332 140.266 C 131.427 140.360,131.624 139.958,131.771 139.371 C 131.919 138.785,131.962 138.228,131.868 138.134 C 131.773 138.040,131.576 138.442,131.429 139.029 M198.311 139.493 C 199.251 139.578,200.691 139.577,201.511 139.491 C 202.330 139.405,201.560 139.336,199.800 139.337 C 198.040 139.339,197.370 139.409,198.311 139.493 M92.352 140.500 C 92.090 140.995,91.615 141.850,91.296 142.400 C 90.739 143.359,90.743 143.367,91.388 142.600 C 92.186 141.652,93.305 139.600,93.024 139.600 C 92.916 139.600,92.614 140.005,92.352 140.500 M186.600 139.990 C 185.940 140.152,187.110 140.196,189.200 140.088 C 191.290 139.979,193.075 139.825,193.167 139.745 C 193.472 139.479,187.819 139.690,186.600 139.990 M207.700 139.891 C 208.525 139.978,209.875 139.978,210.700 139.891 C 211.525 139.805,210.850 139.734,209.200 139.734 C 207.550 139.734,206.875 139.805,207.700 139.891 M306.815 139.800 C 306.817 140.020,307.186 140.650,307.636 141.200 C 308.179 141.864,308.315 141.931,308.040 141.400 C 307.366 140.095,306.812 139.372,306.815 139.800 M163.800 140.607 C 164.240 140.966,164.960 141.435,165.400 141.651 L 166.200 142.044 165.400 141.393 C 164.960 141.034,164.240 140.565,163.800 140.349 L 163.000 139.956 163.800 140.607 M182.305 140.683 C 182.802 140.779,183.522 140.775,183.905 140.675 C 184.287 140.575,183.880 140.496,183.000 140.501 C 182.120 140.505,181.807 140.587,182.305 140.683 M215.905 140.683 C 216.402 140.779,217.122 140.775,217.505 140.675 C 217.887 140.575,217.480 140.496,216.600 140.501 C 215.720 140.505,215.407 140.587,215.905 140.683 M234.081 141.372 C 232.325 142.614,231.897 143.145,233.400 142.218 C 235.478 140.935,236.191 140.399,235.789 140.420 C 235.575 140.430,234.807 140.859,234.081 141.372 M268.087 141.000 C 268.091 141.440,268.232 142.340,268.400 143.000 C 268.674 144.078,268.706 144.098,268.713 143.200 C 268.717 142.650,268.576 141.750,268.400 141.200 C 268.149 140.416,268.081 140.373,268.087 141.000 M176.400 141.595 C 175.991 141.855,176.310 141.899,177.400 141.732 C 179.377 141.429,179.714 141.198,178.167 141.206 C 177.525 141.209,176.730 141.384,176.400 141.595 M220.433 141.344 C 220.525 141.424,221.410 141.596,222.400 141.727 C 223.602 141.886,223.934 141.847,223.400 141.610 C 222.636 141.272,220.086 141.043,220.433 141.344 M130.676 142.810 C 130.530 143.355,130.428 144.340,130.449 145.000 C 130.480 145.957,130.559 145.836,130.842 144.400 C 131.229 142.433,131.102 141.217,130.676 142.810 M172.800 142.418 C 172.362 142.715,172.524 142.752,173.400 142.556 C 174.871 142.227,175.190 141.998,174.167 142.006 C 173.745 142.009,173.130 142.195,172.800 142.418 M225.600 142.400 C 226.968 142.838,228.019 142.838,227.000 142.400 C 226.560 142.211,225.840 142.062,225.400 142.068 C 224.757 142.077,224.796 142.143,225.600 142.400 M167.865 143.300 C 168.096 143.681,169.559 143.640,170.600 143.224 C 171.156 143.001,170.834 142.918,169.541 142.952 C 168.519 142.978,167.765 143.135,167.865 143.300 M229.000 143.224 C 230.041 143.640,231.504 143.681,231.735 143.300 C 231.835 143.135,231.081 142.978,230.059 142.952 C 228.766 142.918,228.444 143.001,229.000 143.224 M268.934 149.600 C 268.934 151.250,269.005 151.925,269.091 151.100 C 269.178 150.275,269.178 148.925,269.091 148.100 C 269.005 147.275,268.934 147.950,268.934 149.600 M130.486 154.000 C 130.483 154.770,130.624 155.850,130.800 156.400 C 131.250 157.804,131.265 156.337,130.823 154.200 L 130.492 152.600 130.486 154.000 M268.449 155.400 C 268.416 155.840,268.296 156.650,268.183 157.200 L 267.977 158.200 268.406 157.219 C 268.642 156.679,268.761 155.869,268.672 155.419 C 268.513 154.621,268.507 154.621,268.449 155.400 M266.626 163.076 C 266.450 163.534,266.787 164.145,267.674 164.976 L 268.982 166.200 267.878 164.965 C 267.178 164.181,266.868 163.487,267.030 163.065 C 267.171 162.699,267.196 162.400,267.086 162.400 C 266.976 162.400,266.769 162.704,266.626 163.076 M131.400 165.200 C 130.768 165.860,130.419 166.390,130.625 166.378 C 130.978 166.357,133.039 164.000,132.705 164.000 C 132.620 164.000,132.032 164.540,131.400 165.200 M319.044 166.600 C 319.373 168.071,319.602 168.390,319.594 167.367 C 319.591 166.945,319.405 166.330,319.182 166.000 C 318.885 165.562,318.848 165.724,319.044 166.600 M319.844 169.400 C 320.173 170.871,320.402 171.190,320.394 170.167 C 320.391 169.745,320.205 169.130,319.982 168.800 C 319.685 168.362,319.648 168.524,319.844 169.400 M320.667 172.400 C 321.048 174.501,321.636 175.722,321.342 173.800 C 321.208 172.920,320.944 171.930,320.756 171.600 C 320.548 171.235,320.513 171.549,320.667 172.400 M77.254 179.600 C 77.219 180.150,77.096 181.050,76.983 181.600 L 76.777 182.600 77.207 181.615 C 77.443 181.074,77.565 180.174,77.478 179.615 L 77.320 178.600 77.254 179.600 M322.428 180.233 C 322.444 180.875,322.616 181.760,322.810 182.200 C 323.047 182.734,323.086 182.402,322.927 181.200 C 322.646 179.080,322.388 178.580,322.428 180.233 M76.501 184.600 C 76.505 185.480,76.587 185.793,76.683 185.295 C 76.779 184.798,76.775 184.078,76.675 183.695 C 76.575 183.313,76.496 183.720,76.501 184.600 M323.240 185.033 C 323.262 185.895,323.427 187.050,323.607 187.600 C 323.811 188.221,323.851 187.691,323.712 186.200 C 323.454 183.421,323.182 182.749,323.240 185.033 M120.893 188.000 C 120.893 188.770,120.975 189.085,121.076 188.700 C 121.176 188.315,121.176 187.685,121.076 187.300 C 120.975 186.915,120.893 187.230,120.893 188.000 M278.909 190.400 C 278.909 191.390,278.987 191.795,279.082 191.300 C 279.178 190.805,279.178 189.995,279.082 189.500 C 278.987 189.005,278.909 189.410,278.909 190.400 M75.720 191.200 C 75.720 192.410,75.795 192.905,75.887 192.300 C 75.978 191.695,75.978 190.705,75.887 190.100 C 75.795 189.495,75.720 189.990,75.720 191.200 M324.114 191.800 C 324.106 193.120,324.229 195.460,324.387 197.000 C 324.666 199.721,324.674 199.738,324.685 197.600 C 324.691 196.390,324.568 194.050,324.412 192.400 L 324.129 189.400 324.114 191.800 M279.348 197.200 C 279.348 199.510,279.414 200.455,279.495 199.300 C 279.576 198.145,279.576 196.255,279.495 195.100 C 279.414 193.945,279.348 194.890,279.348 197.200 M75.293 194.800 C 75.293 195.570,75.375 195.885,75.476 195.500 C 75.576 195.115,75.576 194.485,75.476 194.100 C 75.375 193.715,75.293 194.030,75.293 194.800 M120.142 197.000 C 120.141 198.980,120.208 199.840,120.292 198.912 C 120.376 197.984,120.377 196.364,120.295 195.312 C 120.212 194.260,120.143 195.020,120.142 197.000 M120.509 204.000 C 120.509 204.990,120.587 205.395,120.682 204.900 C 120.778 204.405,120.778 203.595,120.682 203.100 C 120.587 202.605,120.509 203.010,120.509 204.000 M278.931 205.000 C 278.933 206.540,279.005 207.121,279.092 206.291 C 279.179 205.461,279.177 204.201,279.089 203.491 C 279.000 202.781,278.929 203.460,278.931 205.000 M120.914 208.200 C 120.917 209.300,120.995 209.703,121.087 209.095 C 121.179 208.486,121.177 207.586,121.082 207.095 C 120.987 206.603,120.911 207.100,120.914 208.200 M324.514 209.000 C 324.517 210.100,324.595 210.503,324.687 209.895 C 324.779 209.286,324.777 208.386,324.682 207.895 C 324.587 207.403,324.511 207.900,324.514 209.000 M75.309 211.200 C 75.309 212.190,75.387 212.595,75.482 212.100 C 75.578 211.605,75.578 210.795,75.482 210.300 C 75.387 209.805,75.309 210.210,75.309 211.200 M278.059 211.400 C 278.020 212.060,277.896 213.050,277.783 213.600 L 277.577 214.600 278.008 213.614 C 278.244 213.072,278.368 212.082,278.283 211.414 L 278.128 210.200 278.059 211.400 M324.128 213.600 C 324.128 215.030,324.201 215.615,324.289 214.900 C 324.378 214.185,324.378 213.015,324.289 212.300 C 324.201 211.585,324.128 212.170,324.128 213.600 M121.628 213.433 C 121.644 214.075,121.816 214.960,122.010 215.400 C 122.247 215.934,122.286 215.602,122.127 214.400 C 121.846 212.280,121.588 211.780,121.628 213.433 M75.720 215.200 C 75.720 216.410,75.795 216.905,75.887 216.300 C 75.978 215.695,75.978 214.705,75.887 214.100 C 75.795 213.495,75.720 213.990,75.720 215.200 M323.453 218.836 C 323.314 219.531,323.221 220.572,323.247 221.150 C 323.272 221.728,323.455 221.227,323.652 220.039 C 324.037 217.721,323.873 216.734,323.453 218.836 M76.281 220.400 C 76.406 221.610,76.574 222.675,76.654 222.767 C 76.935 223.087,76.717 220.191,76.387 219.200 C 76.171 218.554,76.134 218.980,76.281 220.400 M276.446 218.867 C 276.421 219.234,276.296 219.864,276.170 220.267 C 275.952 220.962,275.963 220.963,276.397 220.287 C 276.648 219.896,276.773 219.266,276.673 218.887 C 276.511 218.268,276.488 218.266,276.446 218.867 M322.493 225.600 C 322.493 226.370,322.575 226.685,322.676 226.300 C 322.776 225.915,322.776 225.285,322.676 224.900 C 322.575 224.515,322.493 224.830,322.493 225.600 M321.856 228.084 C 321.721 228.588,321.627 229.360,321.646 229.800 C 321.665 230.240,321.845 229.898,322.046 229.040 C 322.436 227.378,322.270 226.540,321.856 228.084 M128.015 231.400 C 128.017 231.620,128.386 232.250,128.836 232.800 C 129.379 233.464,129.515 233.531,129.240 233.000 C 128.566 231.695,128.012 230.972,128.015 231.400 M269.847 233.600 C 269.265 234.480,268.938 235.200,269.121 235.200 C 269.303 235.200,269.857 234.480,270.352 233.600 C 270.847 232.720,271.174 232.000,271.079 232.000 C 270.984 232.000,270.430 232.720,269.847 233.600 M130.391 235.188 C 130.857 235.841,131.442 236.502,131.691 236.656 C 131.941 236.811,131.641 236.276,131.025 235.468 C 129.688 233.715,129.184 233.492,130.391 235.188 M79.606 236.233 C 79.609 236.655,79.795 237.270,80.018 237.600 C 80.315 238.038,80.352 237.876,80.156 237.000 C 79.827 235.529,79.598 235.210,79.606 236.233 M266.600 238.000 C 265.968 238.660,265.619 239.190,265.825 239.178 C 266.178 239.157,268.239 236.800,267.905 236.800 C 267.820 236.800,267.232 237.340,266.600 238.000 M133.029 238.438 C 133.673 239.229,134.281 239.808,134.379 239.725 C 134.478 239.642,133.951 238.995,133.209 238.287 L 131.858 237.000 133.029 238.438 M136.429 241.900 C 136.445 242.065,137.120 242.730,137.929 243.379 L 139.400 244.557 138.022 243.079 C 136.597 241.551,136.380 241.390,136.429 241.900 M261.570 243.100 L 260.600 244.200 261.800 243.200 C 262.460 242.650,263.075 242.155,263.167 242.100 C 263.258 242.045,263.155 242.000,262.936 242.000 C 262.718 242.000,262.103 242.495,261.570 243.100 M139.600 244.546 C 139.600 244.656,140.140 245.130,140.800 245.600 C 141.460 246.070,142.000 246.364,142.000 246.254 C 142.000 246.144,141.460 245.670,140.800 245.200 C 140.140 244.730,139.600 244.436,139.600 244.546 M257.290 246.166 C 254.854 247.836,253.581 248.873,254.800 248.194 C 256.075 247.485,260.000 244.761,260.000 244.585 C 260.000 244.310,259.998 244.311,257.290 246.166 M143.000 247.007 C 143.440 247.366,144.160 247.835,144.600 248.051 L 145.400 248.444 144.600 247.793 C 144.160 247.434,143.440 246.965,143.000 246.749 L 142.200 246.356 143.000 247.007 M145.600 248.596 C 145.600 248.870,148.049 250.084,148.232 249.901 C 148.319 249.814,147.762 249.444,146.995 249.078 C 146.228 248.712,145.600 248.495,145.600 248.596 M109.800 251.200 C 109.296 251.417,109.222 251.544,109.600 251.544 C 109.930 251.544,110.560 251.389,111.000 251.200 C 111.504 250.983,111.578 250.856,111.200 250.856 C 110.870 250.856,110.240 251.011,109.800 251.200 M116.000 251.200 C 117.368 251.638,118.419 251.638,117.400 251.200 C 116.960 251.011,116.240 250.862,115.800 250.868 C 115.157 250.877,115.196 250.943,116.000 251.200 M122.953 253.692 C 123.580 254.114,126.186 256.073,128.300 257.711 C 128.575 257.924,128.800 258.012,128.800 257.908 C 128.800 257.594,124.277 254.158,123.200 253.653 C 122.359 253.258,122.320 253.264,122.953 253.692 M108.328 254.600 C 108.729 255.404,110.069 256.711,111.219 257.419 C 111.559 257.629,111.379 257.400,110.819 256.912 C 110.259 256.423,109.379 255.523,108.864 254.912 C 108.311 254.254,108.092 254.127,108.328 254.600 M163.200 255.182 C 163.530 255.405,164.145 255.591,164.567 255.594 C 165.590 255.602,165.271 255.373,163.800 255.044 C 162.924 254.848,162.762 254.885,163.200 255.182 M234.600 255.200 L 233.800 255.544 234.600 255.566 C 235.040 255.578,235.670 255.413,236.000 255.200 C 236.795 254.686,235.796 254.686,234.600 255.200 M166.800 255.994 C 167.130 256.211,167.835 256.391,168.367 256.394 C 169.651 256.402,169.325 256.175,167.600 255.858 C 166.615 255.677,166.378 255.718,166.800 255.994 M230.600 256.000 C 229.511 256.277,229.493 256.307,230.400 256.325 C 230.950 256.335,231.760 256.189,232.200 256.000 C 233.186 255.576,232.266 255.576,230.600 256.000 M171.400 256.790 C 172.164 257.128,174.714 257.357,174.367 257.056 C 174.275 256.976,173.390 256.804,172.400 256.673 C 171.198 256.514,170.866 256.553,171.400 256.790 M225.000 256.800 L 223.400 257.086 225.000 257.115 C 225.880 257.131,226.960 256.989,227.400 256.800 L 228.200 256.456 227.400 256.485 C 226.960 256.501,225.880 256.642,225.000 256.800 M224.208 259.300 C 225.067 260.345,225.834 261.200,225.912 261.200 C 226.198 261.200,224.461 258.978,223.566 258.200 C 223.060 257.760,223.349 258.255,224.208 259.300 M130.245 260.003 C 130.709 260.551,131.996 262.350,133.104 264.000 C 134.213 265.650,136.054 267.990,137.196 269.200 L 139.272 271.400 137.117 268.800 C 135.932 267.370,134.109 264.917,133.066 263.348 C 132.023 261.780,130.771 260.161,130.285 259.751 L 129.400 259.006 130.245 260.003 M116.200 261.038 C 117.080 261.871,118.398 263.193,119.129 263.976 L 120.458 265.400 119.192 263.737 C 118.495 262.823,117.177 261.500,116.263 260.799 L 114.600 259.524 116.200 261.038 M309.800 260.800 C 309.459 261.460,309.269 262.000,309.379 262.000 C 309.489 262.000,309.859 261.460,310.200 260.800 C 310.541 260.140,310.731 259.600,310.621 259.600 C 310.511 259.600,310.141 260.140,309.800 260.800 M91.160 263.400 C 91.834 264.705,92.388 265.428,92.385 265.000 C 92.383 264.780,92.014 264.150,91.564 263.600 C 91.021 262.936,90.885 262.869,91.160 263.400 M170.779 266.255 C 170.558 266.836,170.452 267.385,170.543 267.476 C 170.633 267.567,170.899 267.092,171.133 266.420 C 171.653 264.928,171.339 264.782,170.779 266.255 M306.321 266.700 C 304.179 269.960,303.915 270.400,304.101 270.400 C 304.276 270.400,304.841 269.595,306.978 266.300 C 307.371 265.695,307.605 265.200,307.499 265.200 C 307.393 265.200,306.863 265.875,306.321 266.700 M121.404 267.000 C 123.007 269.226,123.450 269.639,122.557 268.073 C 122.141 267.343,121.452 266.443,121.026 266.073 C 120.576 265.682,120.734 266.069,121.404 267.000 M93.413 267.200 C 94.217 268.660,98.419 274.764,98.770 274.981 C 99.170 275.229,94.190 267.714,93.480 267.000 C 93.216 266.735,93.194 266.802,93.413 267.200 M169.260 271.820 C 169.227 272.491,168.976 273.301,168.703 273.620 C 168.429 273.940,168.533 273.910,168.935 273.554 C 169.425 273.119,169.607 272.531,169.492 271.754 L 169.320 270.600 169.260 271.820 M301.825 273.427 C 300.815 274.872,300.172 275.941,300.396 275.802 C 300.872 275.508,304.119 270.800,303.846 270.800 C 303.745 270.800,302.835 271.982,301.825 273.427 M140.073 271.826 C 140.443 272.252,141.343 272.941,142.073 273.357 C 143.639 274.250,143.226 273.807,141.000 272.204 C 140.069 271.534,139.682 271.376,140.073 271.826 M230.586 294.600 C 230.586 305.820,230.637 310.468,230.700 304.928 C 230.762 299.388,230.762 290.208,230.700 284.528 C 230.637 278.848,230.586 283.380,230.586 294.600 M99.991 276.788 C 100.457 277.441,101.042 278.102,101.291 278.256 C 101.541 278.411,101.241 277.876,100.625 277.068 C 99.288 275.315,98.784 275.092,99.991 276.788 M147.233 275.744 C 147.325 275.823,147.940 276.008,148.600 276.156 C 149.476 276.352,149.638 276.315,149.200 276.018 C 148.660 275.653,146.832 275.398,147.233 275.744 M161.200 276.018 C 160.762 276.315,160.924 276.352,161.800 276.156 C 163.271 275.827,163.590 275.598,162.567 275.606 C 162.145 275.609,161.530 275.795,161.200 276.018 M152.915 276.696 C 154.188 276.776,156.168 276.775,157.315 276.694 C 158.462 276.614,157.420 276.549,155.000 276.550 C 152.580 276.551,151.642 276.616,152.915 276.696 M103.199 280.799 C 104.119 281.898,105.081 282.926,105.336 283.083 C 105.591 283.239,104.923 282.340,103.851 281.084 C 102.780 279.828,101.818 278.800,101.714 278.800 C 101.610 278.800,102.279 279.699,103.199 280.799 M295.400 281.600 C 294.768 282.260,294.419 282.790,294.625 282.778 C 294.978 282.757,297.039 280.400,296.705 280.400 C 296.620 280.400,296.032 280.940,295.400 281.600 M132.400 285.400 C 133.595 286.610,134.663 287.600,134.773 287.600 C 134.883 287.600,133.995 286.610,132.800 285.400 C 131.605 284.190,130.537 283.200,130.427 283.200 C 130.317 283.200,131.205 284.190,132.400 285.400 M288.702 288.672 C 285.678 291.678,283.257 294.190,283.321 294.255 C 283.386 294.319,285.948 291.858,289.014 288.786 C 292.080 285.714,294.502 283.202,294.395 283.204 C 294.288 283.206,291.726 285.667,288.702 288.672 M111.084 289.190 C 113.771 291.926,116.021 294.083,116.084 293.982 C 116.148 293.882,113.950 291.644,111.200 289.008 L 106.200 284.216 111.084 289.190 M136.400 288.685 C 136.400 289.034,137.999 290.138,138.200 289.928 C 138.267 289.857,137.889 289.477,137.361 289.081 C 136.832 288.686,136.400 288.508,136.400 288.685 M144.400 292.782 C 144.730 293.005,145.345 293.191,145.767 293.194 C 146.790 293.202,146.471 292.973,145.000 292.644 C 144.124 292.448,143.962 292.485,144.400 292.782 M167.867 293.073 C 168.125 293.257,168.417 294.035,168.518 294.803 C 168.694 296.141,168.700 296.134,168.651 294.631 C 168.618 293.607,168.392 293.006,168.000 292.900 C 167.591 292.790,167.549 292.845,167.867 293.073 M147.400 293.597 C 148.164 293.928,151.114 294.155,150.767 293.856 C 150.675 293.777,149.700 293.609,148.600 293.482 C 147.313 293.333,146.885 293.374,147.400 293.597 M164.000 293.600 L 162.200 293.880 163.800 293.912 C 164.680 293.929,165.760 293.789,166.200 293.600 C 167.127 293.202,166.561 293.202,164.000 293.600 M152.505 294.287 C 153.114 294.379,154.014 294.377,154.505 294.282 C 154.997 294.187,154.500 294.111,153.400 294.114 C 152.300 294.117,151.897 294.195,152.505 294.287 M158.700 294.282 C 159.195 294.378,160.005 294.378,160.500 294.282 C 160.995 294.187,160.590 294.109,159.600 294.109 C 158.610 294.109,158.205 294.187,158.700 294.282 M118.789 296.346 C 119.993 297.452,121.058 298.276,121.155 298.178 C 121.253 298.080,121.258 297.953,121.167 297.895 C 121.075 297.837,120.010 297.012,118.800 296.063 L 116.600 294.337 118.789 296.346 M281.454 295.433 C 280.823 295.987,280.387 296.520,280.483 296.616 C 280.579 296.713,281.174 296.254,281.804 295.596 C 283.196 294.143,283.016 294.059,281.454 295.433 M278.800 297.660 C 278.250 298.118,277.451 298.738,277.024 299.037 C 276.597 299.337,276.328 299.661,276.425 299.758 C 276.522 299.855,277.411 299.234,278.400 298.379 C 280.251 296.780,280.591 296.168,278.800 297.660 M121.744 298.709 C 122.060 299.221,124.400 300.953,124.400 300.675 C 124.400 300.576,123.739 299.991,122.932 299.375 C 122.124 298.759,121.589 298.459,121.744 298.709 M125.019 301.230 C 125.151 301.444,126.821 302.663,128.729 303.938 C 132.559 306.497,133.626 307.142,133.000 306.520 C 132.286 305.810,124.771 300.830,125.019 301.230 M271.331 303.165 C 267.834 305.694,267.378 306.047,268.000 305.749 C 269.093 305.224,273.146 302.411,273.399 302.002 C 273.751 301.433,273.640 301.495,271.331 303.165 M135.200 308.020 C 136.587 308.961,137.378 309.235,136.400 308.436 C 135.850 307.986,135.220 307.617,135.000 307.615 C 134.780 307.613,134.870 307.796,135.200 308.020 M168.079 316.132 C 167.480 317.788,166.903 318.315,164.904 319.028 C 164.010 319.347,163.724 319.571,164.200 319.581 C 166.020 319.617,169.173 316.519,168.715 315.145 C 168.641 314.924,168.355 315.369,168.079 316.132 M159.200 319.194 C 159.530 319.411,160.235 319.591,160.767 319.594 C 162.051 319.602,161.725 319.375,160.000 319.058 C 159.015 318.877,158.778 318.918,159.200 319.194 M234.538 319.294 C 234.792 319.456,235.900 319.588,237.000 319.588 C 238.100 319.588,239.208 319.456,239.462 319.294 C 239.716 319.132,238.608 319.000,237.000 319.000 C 235.392 319.000,234.284 319.132,234.538 319.294 " stroke="none" fill="#949494" fill-rule="evenodd"></path></g></svg>