<svg id="svg" version="1.1" xmlns="http://www.w3.org/2000/svg" xmlns:xlink="http://www.w3.org/1999/xlink" width="400" height="400" viewBox="0, 0, 400,400"><g id="svgg"><path id="path0" d="M24.689 0.805 C 24.310 1.247,24.000 1.877,24.000 2.205 C 24.000 2.532,23.820 2.800,23.600 2.800 C 23.380 2.800,23.200 3.610,23.200 4.600 C 23.200 5.590,23.380 6.400,23.600 6.400 C 23.842 6.400,24.000 8.133,24.000 10.800 C 24.000 13.467,24.158 15.200,24.400 15.200 C 24.634 15.200,24.813 16.654,24.830 18.700 C 24.864 22.594,25.393 29.752,26.832 45.800 C 27.049 48.220,27.322 52.135,27.438 54.500 C 27.555 56.865,27.819 58.800,28.025 58.800 C 28.236 58.800,28.400 60.729,28.400 63.200 C 28.400 65.671,28.564 67.600,28.775 67.600 C 28.981 67.600,29.250 69.535,29.372 71.900 C 29.494 74.265,29.697 78.180,29.822 80.600 C 29.948 83.020,30.219 85.171,30.425 85.380 C 30.631 85.589,30.800 87.614,30.800 89.880 C 30.800 92.360,30.959 94.000,31.200 94.000 C 31.442 94.000,31.600 95.733,31.600 98.400 C 31.600 100.871,31.764 102.800,31.975 102.800 C 32.181 102.800,32.450 104.735,32.572 107.100 C 32.694 109.465,32.897 113.380,33.022 115.800 C 33.148 118.220,33.419 120.371,33.625 120.580 C 33.831 120.789,34.000 122.814,34.000 125.080 C 34.000 127.560,34.159 129.200,34.400 129.200 C 34.642 129.200,34.800 130.933,34.800 133.600 C 34.800 136.267,34.958 138.000,35.200 138.000 C 35.442 138.000,35.600 139.725,35.600 142.376 C 35.600 144.863,35.773 146.860,36.000 147.000 C 36.225 147.139,36.400 149.071,36.400 151.424 C 36.400 153.941,36.559 155.600,36.800 155.600 C 37.042 155.600,37.200 157.333,37.200 160.000 C 37.200 162.667,37.358 164.400,37.600 164.400 C 37.841 164.400,38.000 166.059,38.000 168.576 C 38.000 170.929,38.175 172.861,38.400 173.000 C 38.627 173.140,38.800 175.130,38.800 177.600 C 38.800 180.070,38.973 182.060,39.200 182.200 C 39.425 182.339,39.600 184.271,39.600 186.624 C 39.600 189.141,39.759 190.800,40.000 190.800 C 40.242 190.800,40.400 192.533,40.400 195.200 C 40.400 197.867,40.558 199.600,40.800 199.600 C 41.035 199.600,41.200 200.986,41.200 202.958 C 41.200 204.804,41.393 208.179,41.629 210.458 C 41.864 212.736,42.236 217.120,42.454 220.200 C 42.673 223.280,43.025 227.780,43.237 230.200 C 43.449 232.620,43.719 236.400,43.837 238.600 C 43.955 240.800,44.220 242.771,44.426 242.980 C 44.632 243.189,44.800 245.178,44.800 247.400 C 44.800 249.622,44.969 251.611,45.175 251.820 C 45.381 252.029,45.651 254.135,45.775 256.500 C 45.899 258.865,46.101 262.735,46.225 265.100 C 46.349 267.465,46.619 269.571,46.825 269.780 C 47.031 269.989,47.200 272.014,47.200 274.280 C 47.200 276.760,47.359 278.400,47.600 278.400 C 47.842 278.400,48.000 280.133,48.000 282.800 C 48.000 285.467,48.158 287.200,48.400 287.200 C 48.642 287.200,48.800 288.925,48.800 291.576 C 48.800 294.063,48.973 296.060,49.200 296.200 C 49.425 296.339,49.600 298.263,49.600 300.600 C 49.600 302.937,49.775 304.861,50.000 305.000 C 50.225 305.139,50.400 307.071,50.400 309.424 C 50.400 311.941,50.559 313.600,50.800 313.600 C 51.041 313.600,51.200 315.259,51.200 317.776 C 51.200 320.129,51.375 322.061,51.600 322.200 C 51.827 322.340,52.000 324.330,52.000 326.800 C 52.000 329.270,52.173 331.260,52.400 331.400 C 52.625 331.539,52.800 333.471,52.800 335.824 C 52.800 338.341,52.959 340.000,53.200 340.000 C 53.442 340.000,53.600 341.733,53.600 344.400 C 53.600 347.067,53.758 348.800,54.000 348.800 C 54.238 348.800,54.400 350.325,54.400 352.576 C 54.400 354.663,54.579 356.463,54.800 356.600 C 55.020 356.736,55.200 357.201,55.200 357.634 C 55.200 358.656,58.544 362.000,59.566 362.000 C 59.999 362.000,60.464 362.180,60.600 362.400 C 60.736 362.620,61.467 362.800,62.224 362.800 C 62.981 362.800,63.600 362.980,63.600 363.200 C 63.600 363.420,64.140 363.600,64.800 363.600 C 65.460 363.600,66.000 363.780,66.000 364.000 C 66.000 364.220,66.720 364.400,67.600 364.400 C 68.480 364.400,69.200 364.580,69.200 364.800 C 69.200 365.020,69.740 365.200,70.400 365.200 C 71.060 365.200,71.600 365.380,71.600 365.600 C 71.600 365.820,72.320 366.000,73.200 366.000 C 74.080 366.000,74.800 366.180,74.800 366.400 C 74.800 366.620,75.329 366.800,75.976 366.800 C 76.623 366.800,77.264 366.980,77.400 367.200 C 77.536 367.420,78.177 367.600,78.824 367.600 C 79.471 367.600,80.000 367.780,80.000 368.000 C 80.000 368.220,80.619 368.400,81.376 368.400 C 82.133 368.400,82.864 368.580,83.000 368.800 C 83.136 369.020,83.777 369.200,84.424 369.200 C 85.071 369.200,85.600 369.380,85.600 369.600 C 85.600 369.820,86.320 370.000,87.200 370.000 C 88.080 370.000,88.800 370.180,88.800 370.400 C 88.800 370.620,89.340 370.800,90.000 370.800 C 90.660 370.800,91.200 370.980,91.200 371.200 C 91.200 371.420,91.742 371.600,92.405 371.600 C 93.068 371.600,93.923 371.758,94.305 371.951 C 95.371 372.489,97.777 373.200,98.534 373.200 C 98.906 373.200,99.523 373.372,99.905 373.582 C 100.786 374.065,105.568 375.200,106.726 375.200 C 107.207 375.200,107.600 375.380,107.600 375.600 C 107.600 375.820,108.230 376.000,109.000 376.000 C 109.770 376.000,110.400 376.180,110.400 376.400 C 110.400 376.620,111.030 376.800,111.800 376.800 C 112.570 376.800,113.200 376.980,113.200 377.200 C 113.200 377.420,113.830 377.600,114.600 377.600 C 115.370 377.600,116.000 377.780,116.000 378.000 C 116.000 378.220,116.619 378.400,117.376 378.400 C 118.133 378.400,118.864 378.580,119.000 378.800 C 119.136 379.020,119.777 379.200,120.424 379.200 C 121.071 379.200,121.600 379.380,121.600 379.600 C 121.600 379.820,122.320 380.000,123.200 380.000 C 124.080 380.000,124.800 380.180,124.800 380.400 C 124.800 380.620,125.340 380.800,126.000 380.800 C 126.660 380.800,127.200 380.980,127.200 381.200 C 127.200 381.420,127.830 381.600,128.600 381.600 C 129.370 381.600,130.000 381.780,130.000 382.000 C 130.000 382.220,130.529 382.400,131.176 382.400 C 131.823 382.400,132.464 382.580,132.600 382.800 C 132.736 383.020,133.467 383.200,134.224 383.200 C 134.981 383.200,135.600 383.380,135.600 383.600 C 135.600 383.820,136.129 384.000,136.776 384.000 C 137.423 384.000,138.064 384.180,138.200 384.400 C 138.336 384.620,139.067 384.800,139.824 384.800 C 140.581 384.800,141.200 384.980,141.200 385.200 C 141.200 385.420,141.729 385.600,142.376 385.600 C 143.023 385.600,143.664 385.780,143.800 386.000 C 143.936 386.220,144.566 386.400,145.200 386.400 C 145.834 386.400,146.464 386.580,146.600 386.800 C 146.736 387.020,147.467 387.200,148.224 387.200 C 148.981 387.200,149.600 387.380,149.600 387.600 C 149.600 387.820,150.129 388.000,150.776 388.000 C 151.423 388.000,152.064 388.180,152.200 388.400 C 152.336 388.620,153.067 388.800,153.824 388.800 C 154.581 388.800,155.200 388.980,155.200 389.200 C 155.200 389.420,155.729 389.600,156.376 389.600 C 157.023 389.600,157.664 389.780,157.800 390.000 C 157.936 390.220,158.442 390.403,158.924 390.406 C 159.406 390.409,160.520 390.671,161.400 390.988 C 162.280 391.305,163.675 391.573,164.500 391.582 C 165.325 391.592,166.000 391.780,166.000 392.000 C 166.000 392.220,166.540 392.400,167.200 392.400 C 167.860 392.400,168.400 392.580,168.400 392.800 C 168.400 393.020,169.120 393.200,170.000 393.200 C 170.880 393.200,171.600 393.380,171.600 393.600 C 171.600 393.820,172.140 394.000,172.800 394.000 C 173.460 394.000,174.000 394.180,174.000 394.400 C 174.000 394.620,174.619 394.800,175.376 394.800 C 176.133 394.800,176.864 394.980,177.000 395.200 C 177.136 395.420,177.766 395.600,178.400 395.600 C 179.034 395.600,179.664 395.780,179.800 396.000 C 179.936 396.220,180.577 396.400,181.224 396.400 C 181.871 396.400,182.400 396.580,182.400 396.800 C 182.400 397.020,183.120 397.200,184.000 397.200 C 184.880 397.200,185.600 397.380,185.600 397.600 C 185.600 397.820,186.140 398.000,186.800 398.000 C 187.460 398.000,188.000 398.180,188.000 398.400 C 188.000 398.620,188.705 398.800,189.567 398.800 C 190.464 398.800,191.205 399.014,191.300 399.300 C 191.541 400.022,207.659 400.022,207.900 399.300 C 207.996 399.013,208.735 398.800,209.633 398.800 C 210.495 398.800,211.200 398.620,211.200 398.400 C 211.200 398.180,211.740 398.000,212.400 398.000 C 213.060 398.000,213.600 397.820,213.600 397.600 C 213.600 397.380,214.320 397.200,215.200 397.200 C 216.080 397.200,216.800 397.020,216.800 396.800 C 216.800 396.580,217.340 396.400,218.000 396.400 C 218.660 396.400,219.200 396.220,219.200 396.000 C 219.200 395.780,219.819 395.600,220.576 395.600 C 221.333 395.600,222.064 395.420,222.200 395.200 C 222.336 394.980,222.977 394.800,223.624 394.800 C 224.271 394.800,224.800 394.620,224.800 394.400 C 224.800 394.180,225.430 394.000,226.200 394.000 C 226.970 394.000,227.600 393.820,227.600 393.600 C 227.600 393.380,228.320 393.200,229.200 393.200 C 230.080 393.200,230.800 393.020,230.800 392.800 C 230.800 392.580,231.340 392.400,232.000 392.400 C 232.660 392.400,233.200 392.220,233.200 392.000 C 233.200 391.780,233.875 391.592,234.700 391.582 C 235.525 391.573,236.920 391.305,237.800 390.988 C 238.680 390.671,239.794 390.409,240.276 390.406 C 240.758 390.403,241.264 390.220,241.400 390.000 C 241.536 389.780,242.166 389.600,242.800 389.600 C 243.434 389.600,244.064 389.420,244.200 389.200 C 244.336 388.980,245.067 388.800,245.824 388.800 C 246.581 388.800,247.200 388.640,247.200 388.444 C 247.200 388.248,247.830 387.978,248.600 387.844 C 249.370 387.710,250.630 387.490,251.400 387.356 C 252.170 387.222,252.800 386.952,252.800 386.756 C 252.800 386.560,253.430 386.400,254.200 386.400 C 254.970 386.400,255.600 386.220,255.600 386.000 C 255.600 385.780,256.140 385.600,256.800 385.600 C 257.460 385.600,258.000 385.420,258.000 385.200 C 258.000 384.980,258.720 384.800,259.600 384.800 C 260.480 384.800,261.200 384.620,261.200 384.400 C 261.200 384.180,261.729 384.000,262.376 384.000 C 263.023 384.000,263.664 383.820,263.800 383.600 C 263.936 383.380,264.667 383.200,265.424 383.200 C 266.181 383.200,266.800 383.020,266.800 382.800 C 266.800 382.580,267.430 382.400,268.200 382.400 C 268.970 382.400,269.600 382.220,269.600 382.000 C 269.600 381.780,270.230 381.600,271.000 381.600 C 271.770 381.600,272.400 381.420,272.400 381.200 C 272.400 380.980,273.030 380.800,273.800 380.800 C 274.570 380.800,275.200 380.620,275.200 380.400 C 275.200 380.180,275.740 380.000,276.400 380.000 C 277.060 380.000,277.600 379.820,277.600 379.600 C 277.600 379.380,278.320 379.200,279.200 379.200 C 280.080 379.200,280.800 379.020,280.800 378.800 C 280.800 378.580,281.340 378.400,282.000 378.400 C 282.660 378.400,283.200 378.220,283.200 378.000 C 283.200 377.780,283.920 377.600,284.800 377.600 C 285.680 377.600,286.400 377.420,286.400 377.200 C 286.400 376.980,287.030 376.800,287.800 376.800 C 288.570 376.800,289.200 376.620,289.200 376.400 C 289.200 376.180,289.740 376.000,290.400 376.000 C 291.060 376.000,291.600 375.820,291.600 375.600 C 291.600 375.380,292.209 375.200,292.954 375.200 C 293.699 375.200,295.274 374.916,296.454 374.569 C 297.634 374.222,299.320 373.754,300.200 373.530 C 301.080 373.306,302.113 372.960,302.495 372.761 C 302.877 372.562,303.644 372.400,304.200 372.400 C 304.756 372.400,305.523 372.242,305.905 372.049 C 307.072 371.460,309.408 370.800,310.328 370.800 C 310.808 370.800,311.200 370.620,311.200 370.400 C 311.200 370.180,311.819 370.000,312.576 370.000 C 313.333 370.000,314.064 369.820,314.200 369.600 C 314.336 369.380,314.977 369.200,315.624 369.200 C 316.271 369.200,316.800 369.020,316.800 368.800 C 316.800 368.580,317.419 368.400,318.176 368.400 C 318.933 368.400,319.664 368.220,319.800 368.000 C 319.936 367.780,320.577 367.600,321.224 367.600 C 321.871 367.600,322.400 367.420,322.400 367.200 C 322.400 366.980,323.030 366.800,323.800 366.800 C 324.570 366.800,325.200 366.620,325.200 366.400 C 325.200 366.180,325.819 366.000,326.576 366.000 C 327.333 366.000,328.064 365.820,328.200 365.600 C 328.336 365.380,328.977 365.200,329.624 365.200 C 330.271 365.200,330.800 365.020,330.800 364.800 C 330.800 364.580,331.419 364.400,332.176 364.400 C 332.933 364.400,333.664 364.220,333.800 364.000 C 333.936 363.780,334.577 363.600,335.224 363.600 C 335.871 363.600,336.400 363.420,336.400 363.200 C 336.400 362.980,337.019 362.800,337.776 362.800 C 338.533 362.800,339.264 362.620,339.400 362.400 C 339.536 362.180,339.968 362.000,340.360 362.000 C 341.367 362.000,344.800 358.647,344.800 357.663 C 344.800 357.214,344.980 356.736,345.200 356.600 C 345.421 356.463,345.600 354.663,345.600 352.576 C 345.600 350.325,345.762 348.800,346.000 348.800 C 346.242 348.800,346.400 347.067,346.400 344.400 C 346.400 341.733,346.558 340.000,346.800 340.000 C 347.041 340.000,347.200 338.341,347.200 335.824 C 347.200 333.471,347.375 331.539,347.600 331.400 C 347.827 331.260,348.000 329.270,348.000 326.800 C 348.000 324.330,348.173 322.340,348.400 322.200 C 348.625 322.061,348.800 320.129,348.800 317.776 C 348.800 315.259,348.959 313.600,349.200 313.600 C 349.441 313.600,349.600 311.941,349.600 309.424 C 349.600 307.071,349.775 305.139,350.000 305.000 C 350.225 304.861,350.400 302.937,350.400 300.600 C 350.400 298.263,350.575 296.339,350.800 296.200 C 351.027 296.060,351.200 294.063,351.200 291.576 C 351.200 288.925,351.358 287.200,351.600 287.200 C 351.842 287.200,352.000 285.467,352.000 282.800 C 352.000 280.133,352.158 278.400,352.400 278.400 C 352.641 278.400,352.800 276.760,352.800 274.280 C 352.800 272.014,352.969 269.989,353.175 269.780 C 353.381 269.571,353.650 267.510,353.773 265.200 C 353.896 262.890,354.098 259.020,354.223 256.600 C 354.348 254.180,354.619 252.029,354.825 251.820 C 355.031 251.611,355.200 249.622,355.200 247.400 C 355.200 245.178,355.368 243.189,355.574 242.980 C 355.780 242.771,356.045 240.800,356.163 238.600 C 356.281 236.400,356.551 232.620,356.763 230.200 C 356.975 227.780,357.327 223.280,357.546 220.200 C 357.764 217.120,358.136 212.736,358.371 210.458 C 358.607 208.179,358.800 204.804,358.800 202.958 C 358.800 200.986,358.965 199.600,359.200 199.600 C 359.442 199.600,359.600 197.867,359.600 195.200 C 359.600 192.533,359.758 190.800,360.000 190.800 C 360.241 190.800,360.400 189.141,360.400 186.624 C 360.400 184.271,360.575 182.339,360.800 182.200 C 361.027 182.060,361.200 180.070,361.200 177.600 C 361.200 175.130,361.373 173.140,361.600 173.000 C 361.825 172.861,362.000 170.929,362.000 168.576 C 362.000 166.059,362.159 164.400,362.400 164.400 C 362.642 164.400,362.800 162.667,362.800 160.000 C 362.800 157.333,362.958 155.600,363.200 155.600 C 363.441 155.600,363.600 153.941,363.600 151.424 C 363.600 149.071,363.775 147.139,364.000 147.000 C 364.227 146.860,364.400 144.863,364.400 142.376 C 364.400 139.725,364.558 138.000,364.800 138.000 C 365.042 138.000,365.200 136.267,365.200 133.600 C 365.200 130.933,365.358 129.200,365.600 129.200 C 365.841 129.200,366.000 127.560,366.000 125.080 C 366.000 122.814,366.169 120.789,366.375 120.580 C 366.581 120.371,366.852 118.220,366.978 115.800 C 367.103 113.380,367.306 109.465,367.428 107.100 C 367.550 104.735,367.819 102.800,368.025 102.800 C 368.236 102.800,368.400 100.871,368.400 98.400 C 368.400 95.733,368.558 94.000,368.800 94.000 C 369.041 94.000,369.200 92.360,369.200 89.880 C 369.200 87.614,369.369 85.589,369.575 85.380 C 369.781 85.171,370.052 83.020,370.178 80.600 C 370.303 78.180,370.506 74.265,370.628 71.900 C 370.750 69.535,371.019 67.600,371.225 67.600 C 371.436 67.600,371.600 65.671,371.600 63.200 C 371.600 60.729,371.764 58.800,371.975 58.800 C 372.181 58.800,372.445 56.865,372.562 54.500 C 372.678 52.135,372.951 48.220,373.168 45.800 C 374.607 29.752,375.136 22.594,375.170 18.700 C 375.187 16.654,375.366 15.200,375.600 15.200 C 375.842 15.200,376.000 13.467,376.000 10.800 C 376.000 8.133,376.158 6.400,376.400 6.400 C 376.620 6.400,376.800 5.590,376.800 4.600 C 376.800 3.610,376.620 2.800,376.400 2.800 C 376.180 2.800,376.000 2.532,376.000 2.205 C 376.000 1.877,375.690 1.247,375.311 0.805 C 374.221 -0.469,25.779 -0.469,24.689 0.805 M307.844 75.106 C 308.975 75.854,309.695 78.104,309.272 79.565 C 309.043 80.354,308.729 84.379,308.575 88.510 C 308.420 92.640,308.137 96.115,307.946 96.233 C 307.756 96.351,307.600 98.226,307.600 100.400 C 307.600 102.604,307.423 104.462,307.200 104.600 C 306.979 104.736,306.800 106.530,306.800 108.600 C 306.800 110.670,306.621 112.464,306.400 112.600 C 306.180 112.736,306.000 113.115,306.000 113.442 C 306.000 114.223,304.207 116.000,303.418 116.000 C 303.078 116.000,302.800 116.180,302.800 116.400 C 302.800 116.665,275.532 116.800,221.795 116.800 C 157.726 116.800,140.605 116.905,139.910 117.300 C 138.355 118.184,138.000 118.714,138.000 120.148 C 138.000 120.921,137.804 121.674,137.565 121.822 C 137.252 122.015,137.252 122.212,137.565 122.525 C 137.827 122.787,138.000 124.752,138.000 127.456 C 138.000 130.023,138.172 132.059,138.400 132.200 C 138.629 132.342,138.800 134.404,138.800 137.024 C 138.800 139.808,138.957 141.600,139.200 141.600 C 139.443 141.600,139.600 143.392,139.600 146.176 C 139.600 148.796,139.771 150.858,140.000 151.000 C 140.221 151.137,140.400 152.937,140.400 155.024 C 140.400 157.275,140.562 158.800,140.800 158.800 C 141.020 158.800,141.200 159.258,141.200 159.817 C 141.200 160.376,141.545 161.204,141.968 161.657 C 143.883 163.713,139.213 163.600,222.059 163.600 L 299.227 163.600 300.613 164.987 C 302.001 166.374,302.508 168.439,301.600 169.000 C 301.377 169.138,301.200 170.996,301.200 173.200 C 301.200 175.404,301.023 177.262,300.800 177.400 C 300.577 177.538,300.400 179.396,300.400 181.600 C 300.400 183.804,300.223 185.662,300.000 185.800 C 299.775 185.939,299.600 187.871,299.600 190.224 C 299.600 192.741,299.441 194.400,299.200 194.400 C 298.959 194.400,298.800 196.059,298.800 198.576 C 298.800 200.929,298.625 202.861,298.400 203.000 C 298.177 203.138,298.000 204.996,298.000 207.200 C 298.000 209.404,297.823 211.262,297.600 211.400 C 297.375 211.539,297.200 213.471,297.200 215.824 C 297.200 218.341,297.041 220.000,296.800 220.000 C 296.559 220.000,296.400 221.659,296.400 224.176 C 296.400 226.529,296.225 228.461,296.000 228.600 C 295.775 228.739,295.600 230.671,295.600 233.024 C 295.600 235.541,295.441 237.200,295.200 237.200 C 294.959 237.200,294.800 238.840,294.800 241.320 C 294.800 243.586,294.632 245.611,294.426 245.820 C 294.220 246.029,293.956 248.000,293.839 250.200 C 293.721 252.400,293.452 256.090,293.241 258.400 C 293.029 260.710,292.665 265.120,292.433 268.200 C 292.200 271.280,291.827 275.458,291.605 277.484 C 291.382 279.511,291.200 282.706,291.200 284.584 C 291.200 286.595,291.035 288.000,290.800 288.000 C 290.565 288.000,290.400 289.400,290.400 291.400 C 290.400 293.400,290.235 294.800,290.000 294.800 C 289.780 294.800,289.600 295.088,289.600 295.440 C 289.600 296.523,286.020 299.600,284.760 299.600 C 284.148 299.600,283.536 299.780,283.400 300.000 C 283.264 300.220,282.623 300.400,281.976 300.400 C 281.329 300.400,280.800 300.580,280.800 300.800 C 280.800 301.020,280.181 301.200,279.424 301.200 C 278.667 301.200,277.936 301.380,277.800 301.600 C 277.664 301.820,277.124 302.000,276.600 302.000 C 276.076 302.000,275.536 302.180,275.400 302.400 C 275.264 302.620,274.533 302.800,273.776 302.800 C 273.019 302.800,272.400 302.980,272.400 303.200 C 272.400 303.420,271.680 303.600,270.800 303.600 C 269.920 303.600,269.200 303.780,269.200 304.000 C 269.200 304.220,268.660 304.400,268.000 304.400 C 267.340 304.400,266.800 304.580,266.800 304.800 C 266.800 305.020,266.080 305.200,265.200 305.200 C 264.320 305.200,263.600 305.380,263.600 305.600 C 263.600 305.820,262.970 306.000,262.200 306.000 C 261.430 306.000,260.800 306.180,260.800 306.400 C 260.800 306.620,260.260 306.800,259.600 306.800 C 258.940 306.800,258.400 306.980,258.400 307.200 C 258.400 307.420,257.680 307.600,256.800 307.600 C 255.920 307.600,255.200 307.750,255.200 307.934 C 255.200 308.228,254.174 308.461,248.496 309.459 C 247.779 309.585,247.094 309.849,246.973 310.044 C 246.852 310.240,246.234 310.400,245.600 310.400 C 244.966 310.400,244.336 310.580,244.200 310.800 C 244.064 311.020,243.333 311.200,242.576 311.200 C 241.819 311.200,241.200 311.360,241.200 311.556 C 241.200 311.752,240.525 312.027,239.700 312.168 C 236.049 312.790,235.600 312.907,235.600 313.244 C 235.600 313.440,234.981 313.600,234.224 313.600 C 233.467 313.600,232.736 313.780,232.600 314.000 C 232.464 314.220,231.823 314.400,231.176 314.400 C 230.529 314.400,230.000 314.580,230.000 314.800 C 230.000 315.020,229.381 315.200,228.624 315.200 C 227.867 315.200,227.136 315.380,227.000 315.600 C 226.864 315.820,226.133 316.000,225.376 316.000 C 224.619 316.000,224.000 316.180,224.000 316.400 C 224.000 316.620,223.460 316.800,222.800 316.800 C 222.140 316.800,221.600 316.980,221.600 317.200 C 221.600 317.420,220.880 317.600,220.000 317.600 C 219.120 317.600,218.400 317.780,218.400 318.000 C 218.400 318.220,217.781 318.400,217.024 318.400 C 216.267 318.400,215.536 318.580,215.400 318.800 C 215.264 319.020,214.623 319.200,213.976 319.200 C 213.329 319.200,212.800 319.380,212.800 319.600 C 212.800 319.820,212.170 320.000,211.400 320.000 C 210.630 320.000,210.000 320.180,210.000 320.400 C 210.000 320.620,209.471 320.800,208.824 320.800 C 208.177 320.800,207.536 320.980,207.400 321.200 C 207.264 321.420,206.533 321.600,205.776 321.600 C 205.019 321.600,204.400 321.780,204.400 322.000 C 204.400 322.220,203.860 322.400,203.200 322.400 C 202.540 322.400,202.000 322.580,202.000 322.800 C 202.000 323.020,201.100 323.200,200.000 323.200 C 198.900 323.200,198.000 323.020,198.000 322.800 C 198.000 322.580,197.280 322.400,196.400 322.400 C 195.520 322.400,194.800 322.220,194.800 322.000 C 194.800 321.780,194.080 321.600,193.200 321.600 C 192.320 321.600,191.600 321.420,191.600 321.200 C 191.600 320.980,191.060 320.800,190.400 320.800 C 189.740 320.800,189.200 320.620,189.200 320.400 C 189.200 320.180,188.570 320.000,187.800 320.000 C 187.030 320.000,186.400 319.820,186.400 319.600 C 186.400 319.380,185.781 319.200,185.024 319.200 C 184.267 319.200,183.536 319.020,183.400 318.800 C 183.264 318.580,182.623 318.400,181.976 318.400 C 181.329 318.400,180.800 318.220,180.800 318.000 C 180.800 317.780,180.080 317.600,179.200 317.600 C 178.320 317.600,177.600 317.420,177.600 317.200 C 177.600 316.980,177.071 316.800,176.424 316.800 C 175.777 316.800,175.136 316.620,175.000 316.400 C 174.864 316.180,174.234 316.000,173.600 316.000 C 172.966 316.000,172.336 315.820,172.200 315.600 C 172.064 315.380,171.333 315.200,170.576 315.200 C 169.819 315.200,169.200 315.020,169.200 314.800 C 169.200 314.580,168.671 314.400,168.024 314.400 C 167.377 314.400,166.736 314.220,166.600 314.000 C 166.464 313.780,165.733 313.600,164.976 313.600 C 164.219 313.600,163.600 313.440,163.600 313.244 C 163.600 313.048,162.970 312.778,162.200 312.644 C 161.430 312.510,160.170 312.290,159.400 312.156 C 158.630 312.022,158.000 311.752,158.000 311.556 C 158.000 311.360,157.381 311.200,156.624 311.200 C 155.867 311.200,155.136 311.020,155.000 310.800 C 154.864 310.580,154.234 310.400,153.600 310.400 C 152.966 310.400,152.348 310.240,152.227 310.044 C 152.106 309.849,151.421 309.585,150.704 309.459 C 145.026 308.461,144.000 308.228,144.000 307.934 C 144.000 307.750,143.381 307.600,142.624 307.600 C 141.867 307.600,141.136 307.420,141.000 307.200 C 140.864 306.980,140.223 306.800,139.576 306.800 C 138.929 306.800,138.400 306.620,138.400 306.400 C 138.400 306.180,137.770 306.000,137.000 306.000 C 136.230 306.000,135.600 305.820,135.600 305.600 C 135.600 305.380,134.880 305.200,134.000 305.200 C 133.120 305.200,132.400 305.020,132.400 304.800 C 132.400 304.580,131.860 304.400,131.200 304.400 C 130.540 304.400,130.000 304.220,130.000 304.000 C 130.000 303.780,129.280 303.600,128.400 303.600 C 127.520 303.600,126.800 303.420,126.800 303.200 C 126.800 302.980,126.170 302.800,125.400 302.800 C 124.630 302.800,124.000 302.620,124.000 302.400 C 124.000 302.180,123.471 302.000,122.824 302.000 C 122.177 302.000,121.536 301.820,121.400 301.600 C 121.264 301.380,120.533 301.200,119.776 301.200 C 119.019 301.200,118.400 301.020,118.400 300.800 C 118.400 300.580,117.871 300.400,117.224 300.400 C 116.577 300.400,115.936 300.220,115.800 300.000 C 115.664 299.780,115.201 299.600,114.771 299.600 C 113.136 299.600,109.600 296.617,109.600 295.237 C 109.600 294.803,109.420 294.336,109.200 294.200 C 108.980 294.064,108.800 292.452,108.800 290.619 C 108.800 288.785,108.615 285.486,108.390 283.288 C 108.164 281.090,107.792 276.346,107.563 272.746 C 107.334 269.146,106.974 263.950,106.763 261.200 C 106.552 258.450,106.283 254.130,106.166 251.600 C 106.048 249.070,105.783 246.829,105.576 246.620 C 105.369 246.411,105.200 244.127,105.200 241.544 C 105.200 238.844,105.030 236.742,104.800 236.600 C 103.477 235.782,105.170 230.800,106.771 230.800 C 107.007 230.800,107.200 230.620,107.200 230.400 C 107.200 229.765,142.569 229.862,143.683 230.500 C 145.287 231.419,146.400 232.754,146.400 233.758 C 146.400 234.305,146.580 234.864,146.800 235.000 C 147.023 235.138,147.200 236.996,147.200 239.200 C 147.200 241.404,147.377 243.262,147.600 243.400 C 147.825 243.539,148.000 245.471,148.000 247.824 C 148.000 250.341,148.159 252.000,148.400 252.000 C 148.641 252.000,148.800 253.667,148.800 256.200 C 148.800 258.733,148.959 260.400,149.200 260.400 C 149.420 260.400,149.600 260.940,149.600 261.600 C 149.600 262.260,149.737 262.800,149.905 262.800 C 150.073 262.800,150.388 263.205,150.605 263.700 C 150.822 264.195,151.405 264.778,151.900 264.995 C 152.395 265.212,152.800 265.527,152.800 265.695 C 152.800 265.863,153.160 266.000,153.600 266.000 C 154.040 266.000,154.400 266.180,154.400 266.400 C 154.400 266.620,154.929 266.800,155.576 266.800 C 156.223 266.800,156.864 266.980,157.000 267.200 C 157.136 267.420,157.867 267.600,158.624 267.600 C 159.381 267.600,160.000 267.780,160.000 268.000 C 160.000 268.220,160.630 268.400,161.400 268.400 C 162.170 268.400,162.800 268.580,162.800 268.800 C 162.800 269.020,163.419 269.200,164.176 269.200 C 164.933 269.200,165.664 269.380,165.800 269.600 C 165.936 269.820,166.566 270.000,167.200 270.000 C 167.834 270.000,168.464 270.180,168.600 270.400 C 168.736 270.620,169.467 270.800,170.224 270.800 C 170.981 270.800,171.600 270.980,171.600 271.200 C 171.600 271.420,172.219 271.600,172.976 271.600 C 173.733 271.600,174.464 271.780,174.600 272.000 C 174.736 272.220,175.366 272.400,176.000 272.400 C 176.634 272.400,177.264 272.580,177.400 272.800 C 177.536 273.020,178.166 273.200,178.800 273.200 C 179.434 273.200,180.064 273.380,180.200 273.600 C 180.336 273.820,180.932 274.003,181.524 274.006 C 182.116 274.009,183.320 274.271,184.200 274.588 C 185.080 274.905,186.475 275.173,187.300 275.182 C 188.125 275.192,188.800 275.380,188.800 275.600 C 188.800 275.820,189.520 276.000,190.400 276.000 C 191.280 276.000,192.000 276.180,192.000 276.400 C 192.000 276.620,192.529 276.800,193.176 276.800 C 193.823 276.800,194.464 276.980,194.600 277.200 C 194.742 277.431,196.871 277.600,199.624 277.600 C 202.541 277.600,204.400 277.444,204.400 277.200 C 204.400 276.980,205.019 276.800,205.776 276.800 C 206.533 276.800,207.264 276.620,207.400 276.400 C 207.536 276.180,208.267 276.000,209.024 276.000 C 209.781 276.000,210.400 275.850,210.400 275.666 C 210.400 275.482,211.525 275.135,212.900 274.895 C 214.275 274.655,216.210 274.252,217.200 274.000 C 218.190 273.748,219.587 273.445,220.304 273.327 C 221.021 273.208,221.706 272.951,221.827 272.756 C 221.948 272.560,222.577 272.400,223.224 272.400 C 223.871 272.400,224.400 272.220,224.400 272.000 C 224.400 271.780,225.120 271.600,226.000 271.600 C 226.880 271.600,227.600 271.420,227.600 271.200 C 227.600 270.980,228.219 270.800,228.976 270.800 C 229.733 270.800,230.464 270.620,230.600 270.400 C 230.736 270.180,231.377 270.000,232.024 270.000 C 232.671 270.000,233.200 269.820,233.200 269.600 C 233.200 269.380,233.920 269.200,234.800 269.200 C 235.680 269.200,236.400 269.020,236.400 268.800 C 236.400 268.580,237.019 268.400,237.776 268.400 C 238.533 268.400,239.264 268.220,239.400 268.000 C 239.536 267.780,240.166 267.600,240.800 267.600 C 241.434 267.600,242.064 267.420,242.200 267.200 C 242.336 266.980,242.977 266.800,243.624 266.800 C 244.271 266.800,244.800 266.620,244.800 266.400 C 244.800 266.180,245.160 266.000,245.600 266.000 C 246.040 266.000,246.400 265.864,246.400 265.698 C 246.400 265.531,246.940 265.156,247.600 264.864 C 248.331 264.541,248.800 264.033,248.800 263.566 C 248.800 263.145,248.980 262.800,249.200 262.800 C 249.420 262.800,249.600 262.260,249.600 261.600 C 249.600 260.940,249.780 260.400,250.000 260.400 C 250.239 260.400,250.400 258.867,250.400 256.600 C 250.400 254.333,250.561 252.800,250.800 252.800 C 251.040 252.800,251.200 251.200,251.200 248.800 C 251.200 246.400,251.360 244.800,251.600 244.800 C 251.840 244.800,252.000 243.208,252.000 240.824 C 252.000 238.604,252.177 236.738,252.400 236.600 C 252.623 236.462,252.800 234.596,252.800 232.376 C 252.800 230.181,252.967 228.400,253.173 228.400 C 253.550 228.400,253.835 224.732,254.231 214.816 C 254.459 209.095,254.148 207.600,252.732 207.600 C 252.330 207.600,252.000 207.420,252.000 207.200 C 252.000 206.935,227.196 206.800,178.387 206.800 L 104.773 206.800 103.387 205.413 C 102.624 204.651,102.000 203.751,102.000 203.413 C 102.000 203.076,101.820 202.800,101.600 202.800 C 101.362 202.800,101.200 201.275,101.200 199.024 C 101.200 196.937,101.021 195.137,100.800 195.000 C 100.575 194.861,100.400 192.937,100.400 190.600 C 100.400 188.263,100.225 186.339,100.000 186.200 C 99.773 186.060,99.600 184.063,99.600 181.576 C 99.600 178.925,99.442 177.200,99.200 177.200 C 98.958 177.200,98.800 175.467,98.800 172.800 C 98.800 170.133,98.642 168.400,98.400 168.400 C 98.158 168.400,98.000 166.675,98.000 164.024 C 98.000 161.537,97.827 159.540,97.600 159.400 C 97.373 159.260,97.200 157.263,97.200 154.776 C 97.200 152.125,97.042 150.400,96.800 150.400 C 96.559 150.400,96.400 148.733,96.400 146.200 C 96.400 143.667,96.241 142.000,96.000 142.000 C 95.757 142.000,95.600 140.208,95.600 137.424 C 95.600 134.804,95.429 132.742,95.200 132.600 C 94.975 132.461,94.800 130.529,94.800 128.176 C 94.800 125.659,94.641 124.000,94.400 124.000 C 94.158 124.000,94.000 122.267,94.000 119.600 C 94.000 116.933,93.842 115.200,93.600 115.200 C 93.357 115.200,93.200 113.400,93.200 110.600 C 93.200 107.800,93.043 106.000,92.800 106.000 C 92.558 106.000,92.400 104.267,92.400 101.600 C 92.400 99.180,92.244 97.200,92.053 97.200 C 91.862 97.200,91.580 93.645,91.425 89.300 C 91.270 84.955,90.950 80.734,90.715 79.921 C 90.259 78.349,90.730 76.527,91.891 75.366 C 92.510 74.747,306.911 74.489,307.844 75.106 " stroke="none" fill="#040404" fill-rule="evenodd"></path><path id="path1" d="" stroke="none" fill="#080404" fill-rule="evenodd"></path><path id="path2" d="" stroke="none" fill="#080404" fill-rule="evenodd"></path><path id="path3" d="" stroke="none" fill="#080404" fill-rule="evenodd"></path><path id="path4" d="" stroke="none" fill="#080404" fill-rule="evenodd"></path></g></svg>