<svg id="svg" version="1.1" xmlns="http://www.w3.org/2000/svg" xmlns:xlink="http://www.w3.org/1999/xlink" width="400" height="400" viewBox="0, 0, 400,400"><g id="svgg"><path id="path0" d="M0.194 8.700 C 0.355 13.485,0.647 17.460,0.843 17.533 C 1.040 17.607,1.200 19.542,1.200 21.833 C 1.200 24.344,1.359 26.000,1.600 26.000 C 1.842 26.000,2.000 27.733,2.000 30.400 C 2.000 33.067,2.158 34.800,2.400 34.800 C 2.641 34.800,2.800 36.467,2.800 39.000 C 2.800 41.533,2.959 43.200,3.200 43.200 C 3.442 43.200,3.600 44.933,3.600 47.600 C 3.600 50.267,3.758 52.000,4.000 52.000 C 4.241 52.000,4.400 53.667,4.400 56.200 C 4.400 58.733,4.559 60.400,4.800 60.400 C 5.042 60.400,5.200 62.133,5.200 64.800 C 5.200 67.467,5.358 69.200,5.600 69.200 C 5.841 69.200,6.000 70.867,6.000 73.400 C 6.000 75.933,6.159 77.600,6.400 77.600 C 6.642 77.600,6.800 79.333,6.800 82.000 C 6.800 84.667,6.958 86.400,7.200 86.400 C 7.441 86.400,7.600 88.067,7.600 90.600 C 7.600 93.133,7.759 94.800,8.000 94.800 C 8.236 94.800,8.412 96.320,8.430 98.500 C 8.459 101.973,8.706 105.597,9.636 116.200 C 9.849 118.620,10.119 122.400,10.237 124.600 C 10.355 126.800,10.620 128.771,10.826 128.980 C 11.032 129.189,11.200 131.203,11.200 133.456 C 11.200 135.756,11.375 137.661,11.600 137.800 C 11.825 137.939,12.000 139.871,12.000 142.224 C 12.000 144.741,12.159 146.400,12.400 146.400 C 12.641 146.400,12.800 148.059,12.800 150.576 C 12.800 152.929,12.975 154.861,13.200 155.000 C 13.425 155.139,13.600 157.071,13.600 159.424 C 13.600 161.941,13.759 163.600,14.000 163.600 C 14.241 163.600,14.400 165.259,14.400 167.776 C 14.400 170.129,14.575 172.061,14.800 172.200 C 15.025 172.339,15.200 174.271,15.200 176.624 C 15.200 179.141,15.359 180.800,15.600 180.800 C 15.841 180.800,16.000 182.459,16.000 184.976 C 16.000 187.329,16.175 189.261,16.400 189.400 C 16.625 189.539,16.800 191.471,16.800 193.824 C 16.800 196.341,16.959 198.000,17.200 198.000 C 17.441 198.000,17.600 199.659,17.600 202.176 C 17.600 204.529,17.775 206.461,18.000 206.600 C 18.225 206.739,18.400 208.671,18.400 211.024 C 18.400 213.541,18.559 215.200,18.800 215.200 C 19.041 215.200,19.200 216.867,19.200 219.400 C 19.200 221.933,19.359 223.600,19.600 223.600 C 19.842 223.600,20.000 225.333,20.000 228.000 C 20.000 230.667,20.158 232.400,20.400 232.400 C 20.641 232.400,20.800 234.067,20.800 236.600 C 20.800 239.133,20.959 240.800,21.200 240.800 C 21.442 240.800,21.600 242.533,21.600 245.200 C 21.600 247.867,21.758 249.600,22.000 249.600 C 22.241 249.600,22.400 251.267,22.400 253.800 C 22.400 256.333,22.559 258.000,22.800 258.000 C 23.042 258.000,23.200 259.733,23.200 262.400 C 23.200 265.067,23.358 266.800,23.600 266.800 C 23.841 266.800,24.000 268.467,24.000 271.000 C 24.000 273.533,24.159 275.200,24.400 275.200 C 24.636 275.200,24.811 276.719,24.828 278.900 C 24.854 282.359,25.012 284.652,26.031 296.400 C 26.251 298.930,26.525 302.800,26.641 305.000 C 26.757 307.200,27.020 309.171,27.226 309.380 C 27.432 309.589,27.600 311.603,27.600 313.856 C 27.600 316.156,27.775 318.061,28.000 318.200 C 28.225 318.339,28.400 320.271,28.400 322.624 C 28.400 325.141,28.559 326.800,28.800 326.800 C 29.041 326.800,29.200 328.459,29.200 330.976 C 29.200 333.329,29.375 335.261,29.600 335.400 C 29.825 335.539,30.000 337.471,30.000 339.824 C 30.000 342.341,30.159 344.000,30.400 344.000 C 30.641 344.000,30.800 345.659,30.800 348.176 C 30.800 350.529,30.975 352.461,31.200 352.600 C 31.425 352.739,31.600 354.671,31.600 357.024 C 31.600 359.541,31.759 361.200,32.000 361.200 C 32.233 361.200,32.400 362.533,32.400 364.400 L 32.400 367.600 34.000 367.600 C 34.880 367.600,35.600 367.780,35.600 368.000 C 35.600 368.220,36.500 368.400,37.600 368.400 C 38.700 368.400,39.600 368.580,39.600 368.800 C 39.600 369.020,40.399 369.200,41.376 369.200 C 42.353 369.200,43.264 369.380,43.400 369.600 C 43.536 369.820,44.447 370.000,45.424 370.000 C 46.401 370.000,47.200 370.180,47.200 370.400 C 47.200 370.620,48.100 370.800,49.200 370.800 C 50.300 370.800,51.200 370.980,51.200 371.200 C 51.200 371.420,52.100 371.600,53.200 371.600 C 54.300 371.600,55.200 371.780,55.200 372.000 C 55.200 372.220,56.100 372.400,57.200 372.400 C 58.300 372.400,59.200 372.580,59.200 372.800 C 59.200 373.020,59.999 373.200,60.976 373.200 C 61.953 373.200,62.864 373.380,63.000 373.600 C 63.136 373.820,63.945 374.000,64.798 374.000 C 65.650 374.000,66.810 374.176,67.376 374.391 C 67.941 374.606,69.843 374.902,71.602 375.048 C 73.361 375.195,74.800 375.469,74.800 375.658 C 74.800 375.846,75.610 376.000,76.600 376.000 C 77.590 376.000,78.400 376.180,78.400 376.400 C 78.400 376.620,79.300 376.800,80.400 376.800 C 81.500 376.800,82.400 376.980,82.400 377.200 C 82.400 377.420,83.300 377.600,84.400 377.600 C 85.500 377.600,86.400 377.780,86.400 378.000 C 86.400 378.220,87.300 378.400,88.400 378.400 C 89.500 378.400,90.400 378.580,90.400 378.800 C 90.400 379.020,91.210 379.200,92.200 379.200 C 93.190 379.200,94.000 379.380,94.000 379.600 C 94.000 379.820,94.900 380.000,96.000 380.000 C 97.100 380.000,98.000 380.180,98.000 380.400 C 98.000 380.620,98.900 380.800,100.000 380.800 C 101.100 380.800,102.000 380.980,102.000 381.200 C 102.000 381.420,102.900 381.600,104.000 381.600 C 105.100 381.600,106.000 381.780,106.000 382.000 C 106.000 382.220,106.799 382.400,107.776 382.400 C 108.753 382.400,109.664 382.580,109.800 382.800 C 109.936 383.020,110.847 383.200,111.824 383.200 C 112.801 383.200,113.600 383.380,113.600 383.600 C 113.600 383.820,114.500 384.000,115.600 384.000 C 116.700 384.000,117.600 384.180,117.600 384.400 C 117.600 384.620,118.500 384.800,119.600 384.800 C 120.700 384.800,121.600 384.980,121.600 385.200 C 121.600 385.420,122.500 385.600,123.600 385.600 C 124.700 385.600,125.600 385.780,125.600 386.000 C 125.600 386.220,126.399 386.400,127.376 386.400 C 128.353 386.400,129.264 386.580,129.400 386.800 C 129.536 387.020,130.447 387.200,131.424 387.200 C 132.401 387.200,133.200 387.380,133.200 387.600 C 133.200 387.820,134.100 388.000,135.200 388.000 C 136.300 388.000,137.200 388.180,137.200 388.400 C 137.200 388.620,138.100 388.800,139.200 388.800 C 140.300 388.800,141.200 388.980,141.200 389.200 C 141.200 389.420,141.974 389.600,142.920 389.600 C 143.866 389.600,144.811 389.763,145.020 389.961 C 145.404 390.327,145.889 390.407,152.900 391.270 C 155.045 391.533,156.800 391.896,156.800 392.075 C 156.800 392.254,157.610 392.400,158.600 392.400 C 159.590 392.400,160.400 392.580,160.400 392.800 C 160.400 393.020,161.300 393.200,162.400 393.200 C 163.500 393.200,164.400 393.380,164.400 393.600 C 164.400 393.820,165.300 394.000,166.400 394.000 C 167.500 394.000,168.400 394.180,168.400 394.400 C 168.400 394.620,169.300 394.800,170.400 394.800 C 171.500 394.800,172.400 394.980,172.400 395.200 C 172.400 395.420,173.199 395.600,174.176 395.600 C 175.153 395.600,176.064 395.780,176.200 396.000 C 176.336 396.220,177.247 396.400,178.224 396.400 C 179.201 396.400,180.000 396.580,180.000 396.800 C 180.000 397.020,180.900 397.200,182.000 397.200 C 183.100 397.200,184.000 397.380,184.000 397.600 C 184.000 397.820,184.900 398.000,186.000 398.000 C 187.100 398.000,188.000 398.180,188.000 398.400 C 188.000 398.620,188.885 398.800,189.967 398.800 C 191.184 398.800,191.997 398.990,192.100 399.300 C 192.226 399.677,194.169 399.800,200.000 399.800 C 205.831 399.800,207.774 399.677,207.900 399.300 C 208.003 398.990,208.816 398.800,210.033 398.800 C 211.115 398.800,212.000 398.620,212.000 398.400 C 212.000 398.180,212.900 398.000,214.000 398.000 C 215.100 398.000,216.000 397.820,216.000 397.600 C 216.000 397.380,216.900 397.200,218.000 397.200 C 219.100 397.200,220.000 397.020,220.000 396.800 C 220.000 396.580,220.799 396.400,221.776 396.400 C 222.753 396.400,223.664 396.220,223.800 396.000 C 223.936 395.780,224.847 395.600,225.824 395.600 C 226.801 395.600,227.600 395.420,227.600 395.200 C 227.600 394.980,228.500 394.800,229.600 394.800 C 230.700 394.800,231.600 394.620,231.600 394.400 C 231.600 394.180,232.500 394.000,233.600 394.000 C 234.700 394.000,235.600 393.820,235.600 393.600 C 235.600 393.380,236.500 393.200,237.600 393.200 C 238.700 393.200,239.600 393.020,239.600 392.800 C 239.600 392.580,240.410 392.400,241.400 392.400 C 242.390 392.400,243.200 392.254,243.200 392.075 C 243.200 391.896,244.955 391.533,247.100 391.270 C 254.111 390.407,254.596 390.327,254.980 389.961 C 255.189 389.763,256.134 389.600,257.080 389.600 C 258.026 389.600,258.800 389.420,258.800 389.200 C 258.800 388.980,259.700 388.800,260.800 388.800 C 261.900 388.800,262.800 388.620,262.800 388.400 C 262.800 388.180,263.700 388.000,264.800 388.000 C 265.900 388.000,266.800 387.820,266.800 387.600 C 266.800 387.380,267.599 387.200,268.576 387.200 C 269.553 387.200,270.464 387.020,270.600 386.800 C 270.736 386.580,271.647 386.400,272.624 386.400 C 273.601 386.400,274.400 386.220,274.400 386.000 C 274.400 385.780,275.300 385.600,276.400 385.600 C 277.500 385.600,278.400 385.420,278.400 385.200 C 278.400 384.980,279.300 384.800,280.400 384.800 C 281.500 384.800,282.400 384.620,282.400 384.400 C 282.400 384.180,283.300 384.000,284.400 384.000 C 285.500 384.000,286.400 383.820,286.400 383.600 C 286.400 383.380,287.199 383.200,288.176 383.200 C 289.153 383.200,290.064 383.020,290.200 382.800 C 290.336 382.580,291.247 382.400,292.224 382.400 C 293.201 382.400,294.000 382.220,294.000 382.000 C 294.000 381.780,294.900 381.600,296.000 381.600 C 297.100 381.600,298.000 381.420,298.000 381.200 C 298.000 380.980,298.900 380.800,300.000 380.800 C 301.100 380.800,302.000 380.620,302.000 380.400 C 302.000 380.180,302.900 380.000,304.000 380.000 C 305.100 380.000,306.000 379.820,306.000 379.600 C 306.000 379.380,306.810 379.200,307.800 379.200 C 308.790 379.200,309.600 379.020,309.600 378.800 C 309.600 378.580,310.500 378.400,311.600 378.400 C 312.700 378.400,313.600 378.220,313.600 378.000 C 313.600 377.780,314.500 377.600,315.600 377.600 C 316.700 377.600,317.600 377.420,317.600 377.200 C 317.600 376.980,318.500 376.800,319.600 376.800 C 320.700 376.800,321.600 376.620,321.600 376.400 C 321.600 376.180,322.410 376.000,323.400 376.000 C 324.390 376.000,325.200 375.846,325.200 375.658 C 325.200 375.469,326.639 375.195,328.398 375.048 C 330.157 374.902,332.059 374.606,332.624 374.391 C 333.190 374.176,334.350 374.000,335.202 374.000 C 336.055 374.000,336.864 373.820,337.000 373.600 C 337.136 373.380,338.047 373.200,339.024 373.200 C 340.001 373.200,340.800 373.020,340.800 372.800 C 340.800 372.580,341.700 372.400,342.800 372.400 C 343.900 372.400,344.800 372.220,344.800 372.000 C 344.800 371.780,345.700 371.600,346.800 371.600 C 347.900 371.600,348.800 371.420,348.800 371.200 C 348.800 370.980,349.700 370.800,350.800 370.800 C 351.900 370.800,352.800 370.620,352.800 370.400 C 352.800 370.180,353.599 370.000,354.576 370.000 C 355.553 370.000,356.464 369.820,356.600 369.600 C 356.736 369.380,357.647 369.200,358.624 369.200 C 359.601 369.200,360.400 369.020,360.400 368.800 C 360.400 368.580,361.300 368.400,362.400 368.400 C 363.500 368.400,364.400 368.220,364.400 368.000 C 364.400 367.780,365.120 367.600,366.000 367.600 L 367.600 367.600 367.600 364.400 C 367.600 362.533,367.767 361.200,368.000 361.200 C 368.241 361.200,368.400 359.541,368.400 357.024 C 368.400 354.671,368.575 352.739,368.800 352.600 C 369.025 352.461,369.200 350.529,369.200 348.176 C 369.200 345.659,369.359 344.000,369.600 344.000 C 369.841 344.000,370.000 342.341,370.000 339.824 C 370.000 337.471,370.175 335.539,370.400 335.400 C 370.625 335.261,370.800 333.329,370.800 330.976 C 370.800 328.459,370.959 326.800,371.200 326.800 C 371.441 326.800,371.600 325.141,371.600 322.624 C 371.600 320.271,371.775 318.339,372.000 318.200 C 372.225 318.061,372.400 316.156,372.400 313.856 C 372.400 311.603,372.568 309.589,372.774 309.380 C 372.980 309.171,373.243 307.200,373.359 305.000 C 373.475 302.800,373.749 298.930,373.969 296.400 C 374.988 284.652,375.146 282.359,375.172 278.900 C 375.189 276.719,375.364 275.200,375.600 275.200 C 375.841 275.200,376.000 273.533,376.000 271.000 C 376.000 268.467,376.159 266.800,376.400 266.800 C 376.642 266.800,376.800 265.067,376.800 262.400 C 376.800 259.733,376.958 258.000,377.200 258.000 C 377.441 258.000,377.600 256.333,377.600 253.800 C 377.600 251.267,377.759 249.600,378.000 249.600 C 378.242 249.600,378.400 247.867,378.400 245.200 C 378.400 242.533,378.558 240.800,378.800 240.800 C 379.041 240.800,379.200 239.133,379.200 236.600 C 379.200 234.067,379.359 232.400,379.600 232.400 C 379.842 232.400,380.000 230.667,380.000 228.000 C 380.000 225.333,380.158 223.600,380.400 223.600 C 380.641 223.600,380.800 221.933,380.800 219.400 C 380.800 216.867,380.959 215.200,381.200 215.200 C 381.441 215.200,381.600 213.541,381.600 211.024 C 381.600 208.671,381.775 206.739,382.000 206.600 C 382.225 206.461,382.400 204.529,382.400 202.176 C 382.400 199.659,382.559 198.000,382.800 198.000 C 383.041 198.000,383.200 196.341,383.200 193.824 C 383.200 191.471,383.375 189.539,383.600 189.400 C 383.825 189.261,384.000 187.329,384.000 184.976 C 384.000 182.459,384.159 180.800,384.400 180.800 C 384.641 180.800,384.800 179.141,384.800 176.624 C 384.800 174.271,384.975 172.339,385.200 172.200 C 385.425 172.061,385.600 170.129,385.600 167.776 C 385.600 165.259,385.759 163.600,386.000 163.600 C 386.241 163.600,386.400 161.941,386.400 159.424 C 386.400 157.071,386.575 155.139,386.800 155.000 C 387.025 154.861,387.200 152.929,387.200 150.576 C 387.200 148.059,387.359 146.400,387.600 146.400 C 387.841 146.400,388.000 144.741,388.000 142.224 C 388.000 139.871,388.175 137.939,388.400 137.800 C 388.625 137.661,388.800 135.756,388.800 133.456 C 388.800 131.203,388.968 129.189,389.174 128.980 C 389.380 128.771,389.645 126.800,389.763 124.600 C 389.881 122.400,390.151 118.620,390.364 116.200 C 391.294 105.597,391.541 101.973,391.570 98.500 C 391.588 96.320,391.764 94.800,392.000 94.800 C 392.241 94.800,392.400 93.133,392.400 90.600 C 392.400 88.067,392.559 86.400,392.800 86.400 C 393.042 86.400,393.200 84.667,393.200 82.000 C 393.200 79.333,393.358 77.600,393.600 77.600 C 393.841 77.600,394.000 75.933,394.000 73.400 C 394.000 70.867,394.159 69.200,394.400 69.200 C 394.642 69.200,394.800 67.467,394.800 64.800 C 394.800 62.133,394.958 60.400,395.200 60.400 C 395.441 60.400,395.600 58.733,395.600 56.200 C 395.600 53.667,395.759 52.000,396.000 52.000 C 396.242 52.000,396.400 50.267,396.400 47.600 C 396.400 44.933,396.558 43.200,396.800 43.200 C 397.041 43.200,397.200 41.533,397.200 39.000 C 397.200 36.467,397.359 34.800,397.600 34.800 C 397.842 34.800,398.000 33.067,398.000 30.400 C 398.000 27.733,398.158 26.000,398.400 26.000 C 398.641 26.000,398.800 24.344,398.800 21.833 C 398.800 19.542,398.960 17.607,399.157 17.533 C 399.353 17.460,399.645 13.485,399.806 8.700 L 400.098 0.000 200.000 0.000 L -0.098 0.000 0.194 8.700 M182.400 197.600 C 182.400 327.333,182.398 327.600,181.600 327.600 C 181.160 327.600,180.800 327.420,180.800 327.200 C 180.800 326.980,180.001 326.800,179.024 326.800 C 178.047 326.800,177.136 326.620,177.000 326.400 C 176.864 326.180,176.055 326.000,175.202 326.000 C 174.350 326.000,173.190 325.824,172.624 325.609 C 172.059 325.394,170.157 325.098,168.398 324.952 C 166.639 324.805,165.200 324.531,165.200 324.342 C 165.200 324.154,164.300 324.000,163.200 324.000 C 162.100 324.000,161.200 323.820,161.200 323.600 C 161.200 323.380,160.401 323.200,159.424 323.200 C 158.447 323.200,157.536 323.020,157.400 322.800 C 157.264 322.580,156.353 322.400,155.376 322.400 C 154.399 322.400,153.600 322.220,153.600 322.000 C 153.600 321.780,152.700 321.600,151.600 321.600 C 150.500 321.600,149.600 321.420,149.600 321.200 C 149.600 320.980,148.700 320.800,147.600 320.800 C 146.500 320.800,145.600 320.620,145.600 320.400 C 145.600 320.180,144.700 320.000,143.600 320.000 C 142.500 320.000,141.600 319.820,141.600 319.600 C 141.600 319.380,140.790 319.200,139.800 319.200 C 138.810 319.200,138.000 319.020,138.000 318.800 C 138.000 318.580,137.100 318.400,136.000 318.400 C 134.900 318.400,134.000 318.220,134.000 318.000 C 134.000 317.780,133.100 317.600,132.000 317.600 C 130.900 317.600,130.000 317.420,130.000 317.200 C 130.000 316.980,129.100 316.800,128.000 316.800 C 126.900 316.800,126.000 316.620,126.000 316.400 C 126.000 316.180,125.190 316.000,124.200 316.000 C 123.210 316.000,122.400 315.820,122.400 315.600 C 122.400 315.380,121.500 315.200,120.400 315.200 C 119.300 315.200,118.400 315.020,118.400 314.800 C 118.400 314.580,117.500 314.400,116.400 314.400 C 115.300 314.400,114.400 314.220,114.400 314.000 C 114.400 313.780,113.500 313.600,112.400 313.600 C 111.300 313.600,110.400 313.420,110.400 313.200 C 110.400 312.980,109.601 312.800,108.624 312.800 C 107.647 312.800,106.736 312.620,106.600 312.400 C 106.464 312.180,105.564 312.000,104.600 312.000 C 103.636 312.000,102.736 311.820,102.600 311.600 C 102.464 311.380,101.553 311.200,100.576 311.200 C 99.599 311.200,98.800 311.020,98.800 310.800 C 98.800 310.580,98.080 310.400,97.200 310.400 L 95.600 310.400 95.600 306.824 C 95.600 304.857,95.420 303.136,95.200 303.000 C 94.977 302.862,94.800 301.004,94.800 298.800 C 94.800 296.596,94.623 294.738,94.400 294.600 C 94.175 294.461,94.000 292.537,94.000 290.200 C 94.000 287.863,93.825 285.939,93.600 285.800 C 93.375 285.661,93.200 283.729,93.200 281.376 C 93.200 278.859,93.041 277.200,92.800 277.200 C 92.560 277.200,92.400 275.598,92.400 273.195 C 92.400 270.992,92.233 268.877,92.030 268.495 C 91.826 268.113,91.493 264.200,91.290 259.800 C 91.087 255.400,90.784 251.485,90.617 251.100 C 90.332 250.440,91.230 250.400,106.357 250.400 L 122.400 250.400 122.400 252.000 C 122.400 252.880,122.580 253.600,122.800 253.600 C 123.041 253.600,123.200 255.267,123.200 257.800 C 123.200 260.333,123.359 262.000,123.600 262.000 C 123.842 262.000,124.000 263.725,124.000 266.376 C 124.000 268.863,124.173 270.860,124.400 271.000 C 124.620 271.136,124.821 272.902,124.847 274.924 C 124.933 281.695,125.270 283.781,126.300 283.928 C 126.795 283.998,127.200 284.223,127.200 284.428 C 127.200 284.633,127.999 284.800,128.976 284.800 C 129.953 284.800,130.864 284.980,131.000 285.200 C 131.136 285.420,132.011 285.600,132.944 285.600 C 133.877 285.600,134.811 285.763,135.020 285.961 C 135.229 286.160,136.210 286.419,137.200 286.538 C 138.190 286.656,139.990 286.953,141.200 287.197 C 142.410 287.441,144.120 287.740,145.000 287.861 C 145.880 287.983,146.771 288.244,146.980 288.441 C 147.189 288.638,148.044 288.800,148.880 288.800 L 150.400 288.800 150.400 178.200 L 150.400 67.600 166.400 67.600 L 182.400 67.600 182.400 197.600 M325.843 69.700 C 325.356 73.662,324.851 81.002,324.826 84.500 C 324.811 86.550,324.634 88.000,324.400 88.000 C 324.159 88.000,324.000 89.659,324.000 92.176 C 324.000 94.529,323.825 96.461,323.600 96.600 C 323.380 96.736,323.200 97.467,323.200 98.224 L 323.200 99.600 286.400 99.600 L 249.600 99.600 249.600 141.800 L 249.600 184.000 282.400 184.000 L 315.200 184.000 315.200 187.576 C 315.200 189.543,315.020 191.264,314.800 191.400 C 314.577 191.538,314.400 193.396,314.400 195.600 C 314.400 197.804,314.223 199.662,314.000 199.800 C 313.775 199.939,313.600 201.844,313.600 204.144 C 313.600 206.397,313.432 208.411,313.226 208.620 C 313.020 208.829,312.755 210.800,312.637 213.000 C 312.519 215.200,312.240 218.980,312.016 221.400 C 311.793 223.820,311.425 227.780,311.200 230.200 C 310.975 232.620,310.611 236.580,310.392 239.000 C 310.172 241.420,309.821 245.290,309.611 247.600 C 309.401 249.910,309.030 255.400,308.787 259.800 C 308.544 264.200,308.178 268.113,307.973 268.495 C 307.768 268.877,307.600 270.992,307.600 273.195 C 307.600 275.598,307.440 277.200,307.200 277.200 C 306.959 277.200,306.800 278.859,306.800 281.376 C 306.800 283.729,306.625 285.661,306.400 285.800 C 306.175 285.939,306.000 287.863,306.000 290.200 C 306.000 292.537,305.825 294.461,305.600 294.600 C 305.377 294.738,305.200 296.596,305.200 298.800 C 305.200 301.004,305.023 302.862,304.800 303.000 C 304.580 303.136,304.400 304.857,304.400 306.824 L 304.400 310.400 302.800 310.400 C 301.920 310.400,301.200 310.580,301.200 310.800 C 301.200 311.020,300.401 311.200,299.424 311.200 C 298.447 311.200,297.536 311.380,297.400 311.600 C 297.264 311.820,296.364 312.000,295.400 312.000 C 294.436 312.000,293.536 312.180,293.400 312.400 C 293.264 312.620,292.353 312.800,291.376 312.800 C 290.399 312.800,289.600 312.980,289.600 313.200 C 289.600 313.420,288.700 313.600,287.600 313.600 C 286.500 313.600,285.600 313.780,285.600 314.000 C 285.600 314.220,284.700 314.400,283.600 314.400 C 282.500 314.400,281.600 314.580,281.600 314.800 C 281.600 315.020,280.700 315.200,279.600 315.200 C 278.500 315.200,277.600 315.380,277.600 315.600 C 277.600 315.820,276.790 316.000,275.800 316.000 C 274.810 316.000,274.000 316.180,274.000 316.400 C 274.000 316.620,273.100 316.800,272.000 316.800 C 270.900 316.800,270.000 316.980,270.000 317.200 C 270.000 317.420,269.100 317.600,268.000 317.600 C 266.900 317.600,266.000 317.780,266.000 318.000 C 266.000 318.220,265.100 318.400,264.000 318.400 C 262.900 318.400,262.000 318.580,262.000 318.800 C 262.000 319.020,261.190 319.200,260.200 319.200 C 259.210 319.200,258.400 319.380,258.400 319.600 C 258.400 319.820,257.500 320.000,256.400 320.000 C 255.300 320.000,254.400 320.180,254.400 320.400 C 254.400 320.620,253.500 320.800,252.400 320.800 C 251.300 320.800,250.400 320.980,250.400 321.200 C 250.400 321.420,249.500 321.600,248.400 321.600 C 247.300 321.600,246.400 321.780,246.400 322.000 C 246.400 322.220,245.601 322.400,244.624 322.400 C 243.647 322.400,242.736 322.580,242.600 322.800 C 242.464 323.020,241.553 323.200,240.576 323.200 C 239.599 323.200,238.800 323.380,238.800 323.600 C 238.800 323.820,237.900 324.000,236.800 324.000 C 235.700 324.000,234.800 324.154,234.800 324.342 C 234.800 324.531,233.361 324.805,231.602 324.952 C 229.843 325.098,227.941 325.394,227.376 325.609 C 226.810 325.824,225.650 326.000,224.798 326.000 C 223.945 326.000,223.136 326.180,223.000 326.400 C 222.864 326.620,221.953 326.800,220.976 326.800 C 219.999 326.800,219.200 326.980,219.200 327.200 C 219.200 327.420,218.840 327.600,218.400 327.600 C 217.614 327.600,217.600 327.333,217.600 311.833 C 217.600 293.890,217.481 294.800,219.819 294.800 C 220.773 294.800,221.664 294.620,221.800 294.400 C 221.936 294.180,222.836 294.000,223.800 294.000 C 224.764 294.000,225.664 293.820,225.800 293.600 C 225.936 293.380,226.836 293.200,227.800 293.200 C 228.764 293.200,229.664 293.020,229.800 292.800 C 229.936 292.580,230.847 292.400,231.824 292.400 C 232.801 292.400,233.600 292.220,233.600 292.000 C 233.600 291.780,234.275 291.599,235.100 291.598 C 236.483 291.596,238.011 291.364,243.400 290.340 C 244.500 290.130,246.120 289.860,247.000 289.739 C 247.880 289.617,248.771 289.356,248.980 289.159 C 249.189 288.962,250.123 288.800,251.056 288.800 C 251.989 288.800,252.864 288.620,253.000 288.400 C 253.136 288.180,254.036 288.000,255.000 288.000 C 255.964 288.000,256.864 287.820,257.000 287.600 C 257.136 287.380,258.036 287.200,259.000 287.200 C 259.964 287.200,260.864 287.020,261.000 286.800 C 261.136 286.580,262.036 286.400,263.000 286.400 C 263.964 286.400,264.864 286.220,265.000 286.000 C 265.136 285.780,266.036 285.600,267.000 285.600 C 267.964 285.600,268.864 285.420,269.000 285.200 C 269.136 284.980,270.047 284.800,271.024 284.800 C 272.001 284.800,272.800 284.633,272.800 284.428 C 272.800 284.223,273.205 283.998,273.700 283.928 C 274.740 283.780,275.070 281.685,275.153 274.700 C 275.181 272.398,275.364 270.800,275.600 270.800 C 275.842 270.800,276.000 269.067,276.000 266.400 C 276.000 263.733,276.158 262.000,276.400 262.000 C 276.641 262.000,276.800 260.333,276.800 257.800 C 276.800 255.267,276.959 253.600,277.200 253.600 C 277.442 253.600,277.600 251.867,277.600 249.200 C 277.600 246.533,277.758 244.800,278.000 244.800 C 278.241 244.800,278.400 243.133,278.400 240.600 C 278.400 238.067,278.559 236.400,278.800 236.400 C 279.042 236.400,279.200 234.667,279.200 232.000 C 279.200 229.333,279.358 227.600,279.600 227.600 C 279.841 227.600,280.000 225.933,280.000 223.400 C 280.000 220.867,280.159 219.200,280.400 219.200 C 280.620 219.200,280.800 218.480,280.800 217.600 L 280.800 216.000 249.200 216.000 L 217.600 216.000 217.600 141.800 L 217.600 67.600 271.851 67.600 L 326.102 67.600 325.843 69.700 " stroke="none" fill="#040404" fill-rule="evenodd"></path><path id="path1" d="" stroke="none" fill="#080404" fill-rule="evenodd"></path><path id="path2" d="" stroke="none" fill="#080404" fill-rule="evenodd"></path><path id="path3" d="" stroke="none" fill="#080404" fill-rule="evenodd"></path><path id="path4" d="" stroke="none" fill="#080404" fill-rule="evenodd"></path></g></svg>