<svg id="svg" version="1.1" xmlns="http://www.w3.org/2000/svg" xmlns:xlink="http://www.w3.org/1999/xlink" width="400" height="400" viewBox="0, 0, 400,400"><g id="svgg"><path id="path0" d="M306.600 186.639 C 300.590 187.158,297.312 187.590,293.200 188.405 C 291.990 188.645,290.324 188.941,289.497 189.063 C 288.671 189.185,287.895 189.445,287.774 189.642 C 287.652 189.839,287.111 190.000,286.571 190.000 C 286.031 190.000,285.277 190.158,284.895 190.351 C 284.513 190.544,283.480 190.916,282.600 191.177 C 280.984 191.658,280.691 191.769,277.800 193.000 C 263.913 198.911,253.467 209.496,249.612 221.563 C 243.314 241.276,249.220 262.599,264.357 274.800 C 265.312 275.570,266.298 276.390,266.547 276.622 C 268.386 278.335,277.131 283.589,281.733 285.745 C 286.075 287.780,288.369 288.800,288.600 288.800 C 288.715 288.800,289.662 289.178,290.704 289.640 C 291.747 290.102,292.960 290.623,293.400 290.799 C 301.838 294.168,310.200 298.439,315.445 302.060 C 319.924 305.152,323.710 309.581,324.795 313.000 C 325.074 313.880,325.459 315.013,325.651 315.519 C 328.173 322.161,320.652 332.127,311.370 334.445 C 305.052 336.022,304.458 336.088,296.200 336.124 C 287.525 336.162,285.850 335.979,278.357 334.166 C 267.963 331.652,259.175 327.345,248.744 319.651 C 248.021 319.118,248.000 319.655,248.000 338.351 C 248.000 353.477,248.107 357.603,248.500 357.613 C 248.775 357.619,250.075 358.159,251.390 358.813 C 252.704 359.466,254.012 360.000,254.295 360.000 C 254.579 360.000,255.123 360.159,255.505 360.353 C 256.720 360.971,258.148 361.495,260.000 362.001 C 260.990 362.271,262.250 362.637,262.800 362.813 C 263.350 362.989,264.430 363.256,265.200 363.407 C 265.970 363.559,267.320 363.847,268.200 364.049 C 279.154 366.563,304.245 367.626,314.400 366.007 C 315.830 365.779,318.170 365.405,319.600 365.176 C 335.486 362.629,350.828 354.616,357.079 345.600 C 357.460 345.050,358.083 344.262,358.463 343.849 C 360.787 341.324,364.368 332.553,366.076 325.200 C 366.777 322.184,366.774 308.189,366.072 305.000 C 364.899 299.674,360.899 289.406,359.604 288.400 C 359.463 288.290,358.793 287.390,358.116 286.400 C 356.107 283.463,350.818 278.236,347.600 276.008 C 346.830 275.475,346.110 274.928,346.000 274.793 C 345.565 274.258,342.030 272.000,341.628 272.000 C 341.393 272.000,341.199 271.865,341.197 271.700 C 341.195 271.535,340.790 271.203,340.297 270.962 C 339.804 270.721,337.150 269.366,334.400 267.950 C 329.135 265.240,327.657 264.549,317.400 260.003 C 303.946 254.041,297.409 250.278,293.487 246.236 C 283.004 235.434,288.433 222.274,305.089 218.113 C 315.704 215.460,335.275 217.300,346.200 221.976 C 346.640 222.164,347.720 222.626,348.600 223.002 C 351.810 224.374,354.603 225.778,354.733 226.085 C 354.807 226.258,355.044 226.400,355.261 226.400 C 355.478 226.400,356.455 226.950,357.432 227.622 L 359.208 228.844 359.104 210.778 L 359.000 192.712 355.800 191.711 C 354.040 191.161,352.240 190.573,351.800 190.404 C 349.850 189.658,340.407 187.857,335.200 187.238 C 324.953 186.021,315.940 185.832,306.600 186.639 M92.400 205.797 L 92.400 221.594 117.300 221.697 L 142.200 221.800 142.301 293.304 L 142.402 364.808 161.901 364.704 L 181.400 364.600 181.600 293.200 L 181.800 221.800 206.900 221.697 L 232.000 221.594 232.000 205.797 L 232.000 190.000 162.200 190.000 L 92.400 190.000 92.400 205.797 " stroke="none" fill="#fbfbfb" fill-rule="evenodd"></path><path id="path1" d="M29.300 0.291 C 28.365 0.376,27.600 0.616,27.600 0.823 C 27.600 1.030,27.161 1.200,26.624 1.200 C 26.087 1.200,25.536 1.380,25.400 1.600 C 25.264 1.820,24.713 2.000,24.176 2.000 C 23.639 2.000,23.200 2.180,23.200 2.400 C 23.200 2.620,22.840 2.800,22.400 2.800 C 21.960 2.800,21.600 2.980,21.600 3.200 C 21.600 3.420,21.240 3.600,20.800 3.600 C 20.360 3.600,20.000 3.780,20.000 4.000 C 20.000 4.220,19.680 4.400,19.288 4.400 C 18.897 4.400,18.317 4.760,18.000 5.200 C 17.683 5.640,17.169 6.000,16.859 6.000 C 16.548 6.000,15.991 6.349,15.622 6.775 C 15.252 7.201,14.693 7.606,14.380 7.675 C 13.496 7.869,7.604 13.725,7.602 14.412 C 7.601 14.748,7.240 15.283,6.800 15.600 C 6.360 15.917,6.000 16.407,6.000 16.688 C 6.000 16.970,5.820 17.200,5.600 17.200 C 5.380 17.200,5.200 17.560,5.200 18.000 C 5.200 18.440,5.020 18.800,4.800 18.800 C 4.580 18.800,4.400 19.070,4.400 19.400 C 4.400 19.730,4.220 20.000,4.000 20.000 C 3.780 20.000,3.600 20.360,3.600 20.800 C 3.600 21.240,3.420 21.600,3.200 21.600 C 2.980 21.600,2.800 21.960,2.800 22.400 C 2.800 22.840,2.620 23.200,2.400 23.200 C 2.180 23.200,2.000 23.639,2.000 24.176 C 2.000 24.713,1.820 25.264,1.600 25.400 C 1.380 25.536,1.200 26.162,1.200 26.790 C 1.200 27.419,0.975 28.008,0.700 28.100 C 0.301 28.233,0.200 62.952,0.200 199.913 C 0.200 336.697,0.302 371.662,0.700 372.060 C 0.975 372.335,1.200 372.963,1.200 373.456 C 1.200 373.949,1.380 374.464,1.600 374.600 C 1.820 374.736,2.000 375.287,2.000 375.824 C 2.000 376.361,2.180 376.800,2.400 376.800 C 2.620 376.800,2.800 377.160,2.800 377.600 C 2.800 378.040,2.980 378.400,3.200 378.400 C 3.420 378.400,3.600 378.760,3.600 379.200 C 3.600 379.640,3.780 380.000,4.000 380.000 C 4.220 380.000,4.400 380.320,4.400 380.712 C 4.400 381.103,4.760 381.683,5.200 382.000 C 5.640 382.317,6.000 382.857,6.000 383.200 C 6.000 383.543,6.360 384.083,6.800 384.400 C 7.240 384.717,7.600 385.227,7.600 385.533 C 7.600 386.266,12.783 391.600,13.495 391.600 C 13.799 391.600,13.936 391.780,13.800 392.000 C 13.664 392.220,13.884 392.400,14.288 392.400 C 14.693 392.400,15.283 392.760,15.600 393.200 C 15.917 393.640,16.497 394.000,16.888 394.000 C 17.280 394.000,17.600 394.180,17.600 394.400 C 17.600 394.620,17.870 394.800,18.200 394.800 C 18.530 394.800,18.800 394.980,18.800 395.200 C 18.800 395.420,19.070 395.600,19.400 395.600 C 19.730 395.600,20.000 395.780,20.000 396.000 C 20.000 396.220,20.360 396.400,20.800 396.400 C 21.240 396.400,21.600 396.580,21.600 396.800 C 21.600 397.020,21.960 397.200,22.400 397.200 C 22.840 397.200,23.200 397.380,23.200 397.600 C 23.200 397.820,23.639 398.000,24.176 398.000 C 24.713 398.000,25.264 398.180,25.400 398.400 C 25.536 398.620,26.072 398.800,26.590 398.800 C 27.109 398.800,27.608 399.025,27.700 399.300 C 27.833 399.699,62.592 399.800,199.713 399.800 C 336.657 399.800,371.662 399.698,372.060 399.300 C 372.335 399.025,372.963 398.800,373.456 398.800 C 373.949 398.800,374.464 398.620,374.600 398.400 C 374.736 398.180,375.287 398.000,375.824 398.000 C 376.361 398.000,376.800 397.820,376.800 397.600 C 376.800 397.380,377.160 397.200,377.600 397.200 C 378.040 397.200,378.400 397.020,378.400 396.800 C 378.400 396.580,378.760 396.400,379.200 396.400 C 379.640 396.400,380.000 396.220,380.000 396.000 C 380.000 395.780,380.320 395.600,380.712 395.600 C 381.103 395.600,381.683 395.240,382.000 394.800 C 382.317 394.360,382.857 394.000,383.200 394.000 C 383.543 394.000,384.083 393.640,384.400 393.200 C 384.717 392.760,385.252 392.397,385.588 392.394 C 386.281 392.387,392.133 386.508,392.325 385.625 C 392.394 385.309,392.799 384.748,393.225 384.378 C 393.651 384.009,394.000 383.412,394.000 383.053 C 394.000 382.694,394.180 382.400,394.400 382.400 C 394.620 382.400,394.800 382.130,394.800 381.800 C 394.800 381.470,394.980 381.200,395.200 381.200 C 395.420 381.200,395.600 380.930,395.600 380.600 C 395.600 380.270,395.780 380.000,396.000 380.000 C 396.220 380.000,396.400 379.640,396.400 379.200 C 396.400 378.760,396.580 378.400,396.800 378.400 C 397.020 378.400,397.200 378.040,397.200 377.600 C 397.200 377.160,397.380 376.800,397.600 376.800 C 397.820 376.800,398.000 376.361,398.000 375.824 C 398.000 375.287,398.180 374.736,398.400 374.600 C 398.620 374.464,398.800 373.838,398.800 373.210 C 398.800 372.581,399.025 371.992,399.300 371.900 C 400.036 371.655,400.036 28.345,399.300 28.100 C 399.025 28.008,398.800 27.419,398.800 26.790 C 398.800 26.162,398.620 25.536,398.400 25.400 C 398.180 25.264,398.000 24.713,398.000 24.176 C 398.000 23.639,397.820 23.200,397.600 23.200 C 397.380 23.200,397.200 22.840,397.200 22.400 C 397.200 21.960,397.020 21.600,396.800 21.600 C 396.580 21.600,396.400 21.240,396.400 20.800 C 396.400 20.360,396.220 20.000,396.000 20.000 C 395.780 20.000,395.600 19.764,395.600 19.475 C 395.600 19.187,395.240 18.564,394.800 18.092 C 394.360 17.620,394.000 16.996,394.000 16.705 C 394.000 16.414,393.640 15.917,393.200 15.600 C 392.760 15.283,392.400 14.779,392.400 14.480 C 392.400 13.724,386.339 7.604,385.588 7.602 C 385.252 7.601,384.717 7.240,384.400 6.800 C 384.083 6.360,383.593 6.000,383.312 6.000 C 383.030 6.000,382.800 5.820,382.800 5.600 C 382.800 5.380,382.440 5.200,382.000 5.200 C 381.560 5.200,381.200 5.020,381.200 4.800 C 381.200 4.580,380.930 4.400,380.600 4.400 C 380.270 4.400,380.000 4.220,380.000 4.000 C 380.000 3.780,379.640 3.600,379.200 3.600 C 378.760 3.600,378.400 3.420,378.400 3.200 C 378.400 2.980,378.040 2.800,377.600 2.800 C 377.160 2.800,376.800 2.620,376.800 2.400 C 376.800 2.180,376.361 2.000,375.824 2.000 C 375.287 2.000,374.736 1.820,374.600 1.600 C 374.464 1.380,373.949 1.200,373.456 1.200 C 372.963 1.200,372.335 0.975,372.060 0.700 C 371.589 0.229,34.400 -0.173,29.300 0.291 M334.400 186.340 C 336.270 186.557,338.790 186.852,340.000 186.995 C 341.210 187.138,342.560 187.412,343.000 187.603 C 343.440 187.794,344.520 188.058,345.400 188.191 C 346.280 188.323,347.676 188.533,348.503 188.658 C 349.329 188.782,350.105 189.045,350.226 189.242 C 350.348 189.439,350.966 189.600,351.600 189.600 C 352.234 189.600,352.864 189.780,353.000 190.000 C 353.136 190.220,353.777 190.400,354.424 190.400 C 355.071 190.400,355.600 190.580,355.600 190.800 C 355.600 191.020,356.039 191.200,356.576 191.200 C 357.113 191.200,357.664 191.380,357.800 191.600 C 357.936 191.820,358.388 192.000,358.805 192.000 C 359.975 192.000,360.039 193.150,359.915 211.800 C 359.789 230.694,359.791 230.682,357.392 228.516 C 356.957 228.122,356.060 227.536,355.400 227.214 C 354.740 226.892,353.722 226.307,353.138 225.914 C 352.554 225.521,351.789 225.200,351.438 225.200 C 351.087 225.200,350.800 225.020,350.800 224.800 C 350.800 224.580,350.564 224.400,350.275 224.400 C 349.986 224.400,349.005 224.040,348.094 223.600 C 347.184 223.160,346.196 222.800,345.899 222.800 C 345.603 222.800,345.189 222.649,344.980 222.463 C 341.417 219.308,318.804 216.632,309.011 218.208 C 298.979 219.823,293.262 223.076,290.400 228.800 C 290.180 229.240,289.820 229.958,289.600 230.395 C 288.623 232.335,289.119 238.173,290.490 240.866 C 292.457 244.728,298.176 249.843,303.400 252.409 C 304.060 252.733,304.690 253.089,304.800 253.199 C 305.260 253.661,308.520 255.200,309.038 255.200 C 309.347 255.200,309.600 255.380,309.600 255.600 C 309.600 255.820,309.960 256.000,310.400 256.000 C 310.840 256.000,311.200 256.180,311.200 256.400 C 311.200 256.620,311.453 256.800,311.762 256.800 C 312.071 256.800,313.016 257.139,313.862 257.553 C 314.708 257.967,316.255 258.687,317.300 259.153 C 318.345 259.619,319.965 260.343,320.900 260.763 C 321.835 261.182,323.770 262.033,325.200 262.653 C 331.849 265.535,342.773 271.290,343.133 272.100 C 343.207 272.265,343.488 272.400,343.758 272.400 C 344.028 272.400,344.598 272.720,345.025 273.111 C 345.451 273.502,346.430 274.264,347.200 274.805 C 349.722 276.577,350.159 276.959,354.044 280.800 C 357.514 284.230,361.200 288.941,361.200 289.945 C 361.200 290.158,361.335 290.393,361.500 290.467 C 362.100 290.733,365.200 297.692,365.200 298.772 C 365.200 299.201,365.356 299.649,365.546 299.767 C 365.736 299.884,366.001 300.660,366.134 301.490 C 366.267 302.321,366.648 304.440,366.980 306.200 C 367.695 309.987,367.800 319.842,367.163 323.376 C 366.530 326.890,365.394 331.476,364.754 333.100 C 364.559 333.595,364.243 334.405,364.051 334.900 C 363.481 336.367,361.829 339.784,361.585 340.000 C 361.460 340.110,361.048 340.867,360.669 341.681 C 360.290 342.496,359.754 343.396,359.477 343.681 C 359.200 343.967,358.539 344.830,358.008 345.600 C 356.650 347.568,352.329 352.006,350.397 353.416 C 349.505 354.067,348.285 355.005,347.687 355.500 C 347.089 355.994,346.375 356.399,346.100 356.400 C 345.825 356.400,345.600 356.538,345.600 356.706 C 345.600 356.874,344.925 357.318,344.100 357.694 C 343.275 358.069,342.150 358.631,341.600 358.944 C 340.574 359.527,337.380 360.993,335.600 361.697 C 335.050 361.915,334.287 362.252,333.905 362.447 C 333.523 362.641,332.859 362.800,332.429 362.800 C 331.999 362.800,331.549 362.959,331.429 363.154 C 331.308 363.349,330.713 363.607,330.105 363.729 C 329.497 363.851,328.190 364.152,327.200 364.397 C 317.619 366.774,311.405 367.400,297.400 367.400 C 283.602 367.400,276.912 366.756,266.200 364.396 C 265.100 364.154,263.613 363.856,262.896 363.734 C 262.179 363.612,261.494 363.351,261.373 363.156 C 261.252 362.960,260.634 362.800,260.000 362.800 C 259.366 362.800,258.736 362.620,258.600 362.400 C 258.464 362.180,258.001 362.000,257.571 362.000 C 257.141 362.000,256.477 361.841,256.095 361.647 C 255.713 361.452,254.860 361.071,254.200 360.800 C 253.540 360.529,252.687 360.148,252.305 359.953 C 251.923 359.759,251.338 359.600,251.005 359.600 C 250.672 359.600,250.400 359.420,250.400 359.200 C 250.400 358.980,250.124 358.800,249.786 358.800 C 249.448 358.800,248.728 358.509,248.186 358.154 L 247.200 357.508 247.200 337.987 C 247.200 322.730,247.309 318.429,247.700 318.294 C 248.085 318.161,252.007 320.804,253.200 322.001 C 253.310 322.111,253.895 322.456,254.500 322.768 C 255.105 323.080,255.600 323.485,255.600 323.668 C 255.600 323.850,255.836 324.000,256.125 324.000 C 256.413 324.000,256.998 324.322,257.425 324.716 C 257.851 325.109,260.270 326.437,262.800 327.666 C 269.581 330.960,275.656 332.994,282.800 334.361 C 291.121 335.954,302.544 335.936,308.600 334.320 C 316.749 332.146,321.357 329.080,323.662 324.300 C 323.848 323.915,324.180 323.242,324.400 322.805 C 324.620 322.368,324.800 320.219,324.800 318.029 C 324.800 315.806,324.623 313.938,324.400 313.800 C 324.180 313.664,324.000 313.203,324.000 312.776 C 324.000 312.349,323.820 312.000,323.600 312.000 C 323.380 312.000,323.200 311.640,323.200 311.200 C 323.200 310.760,323.059 310.400,322.886 310.400 C 322.714 310.400,322.236 309.831,321.825 309.135 C 320.174 306.339,313.902 301.474,308.000 298.410 C 306.570 297.668,304.810 296.732,304.088 296.330 C 303.366 295.929,302.511 295.600,302.188 295.600 C 301.865 295.600,301.600 295.420,301.600 295.200 C 301.600 294.980,301.251 294.800,300.824 294.800 C 300.397 294.800,299.936 294.620,299.800 294.400 C 299.664 294.180,299.203 294.000,298.776 294.000 C 298.349 294.000,298.000 293.820,298.000 293.600 C 298.000 293.380,297.651 293.200,297.224 293.200 C 296.797 293.200,296.336 293.020,296.200 292.800 C 296.064 292.580,295.603 292.400,295.176 292.400 C 294.749 292.400,294.400 292.220,294.400 292.000 C 294.400 291.780,294.128 291.600,293.795 291.600 C 293.462 291.600,292.787 291.392,292.295 291.138 C 290.526 290.223,290.005 290.000,289.640 290.000 C 285.293 290.000,267.243 278.876,260.400 271.980 C 239.063 250.478,242.307 214.085,267.000 197.949 C 270.584 195.607,274.287 193.600,275.025 193.600 C 275.341 193.600,275.600 193.420,275.600 193.200 C 275.600 192.980,275.872 192.800,276.205 192.800 C 276.538 192.800,277.123 192.641,277.505 192.447 C 277.887 192.252,278.740 191.871,279.400 191.600 C 280.060 191.329,280.913 190.948,281.295 190.753 C 281.677 190.559,282.341 190.400,282.771 190.400 C 283.201 190.400,283.664 190.220,283.800 190.000 C 283.936 189.780,284.476 189.600,285.000 189.600 C 285.524 189.600,286.064 189.420,286.200 189.200 C 286.336 188.980,287.031 188.800,287.744 188.800 C 288.457 188.800,289.211 188.638,289.420 188.441 C 289.629 188.244,290.520 187.981,291.400 187.857 C 292.280 187.733,294.080 187.439,295.400 187.203 C 296.720 186.968,299.309 186.607,301.153 186.401 C 302.997 186.196,304.611 185.922,304.740 185.794 C 305.104 185.429,330.596 185.898,334.400 186.340 M232.304 205.900 L 232.200 222.200 207.301 222.303 L 182.402 222.406 182.301 293.703 L 182.200 365.000 162.101 365.104 L 142.002 365.207 141.901 293.904 L 141.800 222.600 117.000 222.400 L 92.200 222.200 92.096 205.900 L 91.991 189.600 162.200 189.600 L 232.409 189.600 232.304 205.900 " stroke="none" fill="#347bc4" fill-rule="evenodd"></path><path id="path2" d="M313.900 185.897 C 315.495 185.973,318.105 185.973,319.700 185.897 C 321.295 185.821,319.990 185.759,316.800 185.759 C 313.610 185.759,312.305 185.821,313.900 185.897 M301.300 186.676 C 301.685 186.776,302.315 186.776,302.700 186.676 C 303.085 186.575,302.770 186.493,302.000 186.493 C 301.230 186.493,300.915 186.575,301.300 186.676 M332.305 186.683 C 332.802 186.779,333.522 186.775,333.905 186.675 C 334.287 186.575,333.880 186.496,333.000 186.501 C 332.120 186.505,331.807 186.587,332.305 186.683 M232.182 206.000 C 232.182 214.690,232.235 218.245,232.300 213.900 C 232.364 209.555,232.364 202.445,232.300 198.100 C 232.235 193.755,232.182 197.310,232.182 206.000 M288.514 234.600 C 288.517 235.700,288.595 236.103,288.687 235.495 C 288.779 234.886,288.777 233.986,288.682 233.495 C 288.587 233.003,288.511 233.500,288.514 234.600 M319.600 306.200 C 320.346 306.970,321.047 307.600,321.157 307.600 C 321.267 307.600,320.746 306.970,320.000 306.200 C 319.254 305.430,318.553 304.800,318.443 304.800 C 318.333 304.800,318.854 305.430,319.600 306.200 M320.975 328.500 L 319.800 329.800 321.100 328.625 C 322.312 327.530,322.584 327.200,322.275 327.200 C 322.206 327.200,321.621 327.785,320.975 328.500 M289.705 335.887 C 290.314 335.979,291.214 335.977,291.705 335.882 C 292.197 335.787,291.700 335.711,290.600 335.714 C 289.500 335.717,289.097 335.795,289.705 335.887 M300.300 335.882 C 300.795 335.978,301.605 335.978,302.100 335.882 C 302.595 335.787,302.190 335.709,301.200 335.709 C 300.210 335.709,299.805 335.787,300.300 335.882 M151.872 365.100 C 157.192 365.163,166.012 365.163,171.472 365.100 C 176.933 365.037,172.580 364.985,161.800 364.985 C 151.020 364.985,146.553 365.037,151.872 365.100 M286.100 367.076 C 286.485 367.176,287.115 367.176,287.500 367.076 C 287.885 366.975,287.570 366.893,286.800 366.893 C 286.030 366.893,285.715 366.975,286.100 367.076 M307.700 367.076 C 308.085 367.176,308.715 367.176,309.100 367.076 C 309.485 366.975,309.170 366.893,308.400 366.893 C 307.630 366.893,307.315 366.975,307.700 367.076 " stroke="none" fill="#7ea8da" fill-rule="evenodd"></path><path id="path3" d="M305.000 186.420 C 303.858 186.588,304.973 186.626,307.600 186.507 C 310.130 186.394,312.275 186.233,312.367 186.150 C 312.642 185.902,307.151 186.103,305.000 186.420 M324.000 186.412 C 325.650 186.568,328.080 186.694,329.400 186.691 L 331.800 186.687 329.600 186.383 C 328.390 186.216,325.960 186.090,324.200 186.104 L 321.000 186.129 324.000 186.412 M298.200 187.200 L 297.000 187.505 298.200 187.513 C 298.860 187.517,299.850 187.376,300.400 187.200 L 301.400 186.880 300.400 186.887 C 299.850 186.891,298.860 187.032,298.200 187.200 M335.000 187.200 C 335.660 187.368,336.830 187.506,337.600 187.507 L 339.000 187.508 337.400 187.177 C 335.245 186.731,333.234 186.751,335.000 187.200 M293.600 188.000 L 292.600 188.320 293.600 188.354 C 294.150 188.373,294.870 188.213,295.200 188.000 C 295.964 187.506,295.142 187.506,293.600 188.000 M340.600 188.000 C 341.040 188.189,341.940 188.335,342.600 188.325 L 343.800 188.305 342.600 188.000 C 341.940 187.832,341.040 187.686,340.600 187.675 L 339.800 187.656 340.600 188.000 M289.600 188.800 L 288.600 189.120 289.600 189.154 C 290.150 189.173,290.870 189.013,291.200 188.800 C 291.964 188.306,291.142 188.306,289.600 188.800 M345.000 188.800 C 345.440 188.989,346.250 189.138,346.800 189.132 L 347.800 189.120 346.800 188.800 C 346.250 188.624,345.440 188.474,345.000 188.468 L 344.200 188.456 345.000 188.800 M286.600 189.600 C 285.829 189.931,285.831 189.945,286.676 189.972 C 287.158 189.987,287.664 189.820,287.800 189.600 C 288.092 189.127,287.701 189.127,286.600 189.600 M348.600 189.600 C 349.040 189.789,349.760 189.938,350.200 189.932 C 350.843 189.923,350.804 189.857,350.000 189.600 C 348.632 189.162,347.581 189.162,348.600 189.600 M92.183 190.101 C 92.077 190.376,92.038 197.621,92.095 206.201 L 92.200 221.800 117.099 221.903 L 141.998 222.006 142.101 293.303 L 142.203 364.600 142.202 293.200 L 142.200 221.800 117.300 221.697 L 92.400 221.594 92.400 205.798 L 92.400 190.002 162.100 189.900 L 231.800 189.798 162.087 189.699 C 106.542 189.620,92.336 189.702,92.183 190.101 M283.800 190.400 C 283.029 190.731,283.031 190.745,283.876 190.772 C 284.358 190.787,284.864 190.620,285.000 190.400 C 285.292 189.927,284.901 189.927,283.800 190.400 M351.800 190.400 C 351.936 190.620,352.442 190.787,352.924 190.772 C 353.769 190.745,353.771 190.731,353.000 190.400 C 351.899 189.927,351.508 189.927,351.800 190.400 M276.600 193.178 C 275.720 193.595,275.113 193.950,275.251 193.968 C 275.640 194.018,278.400 192.814,278.400 192.595 C 278.400 192.327,278.399 192.327,276.600 193.178 M359.200 210.720 L 359.400 229.000 359.504 211.024 C 359.561 201.137,359.471 192.911,359.304 192.744 C 359.137 192.577,359.090 200.666,359.200 210.720 M273.100 194.827 C 272.275 195.263,271.600 195.708,271.600 195.818 C 271.600 195.927,272.320 195.649,273.200 195.200 C 274.080 194.751,274.800 194.297,274.800 194.192 C 274.800 193.930,274.797 193.931,273.100 194.827 M267.574 198.124 C 263.815 200.702,262.400 201.825,262.400 202.227 C 262.400 202.399,262.805 202.163,263.300 201.703 C 263.795 201.242,265.809 199.771,267.775 198.433 C 269.741 197.095,271.181 196.011,270.975 196.024 C 270.769 196.037,269.238 196.982,267.574 198.124 M260.075 204.124 C 259.154 205.062,258.400 205.965,258.400 206.130 C 258.400 206.296,259.217 205.590,260.215 204.563 C 261.213 203.536,261.967 202.633,261.890 202.556 C 261.813 202.480,260.996 203.185,260.075 204.124 M255.866 209.025 C 254.186 211.165,252.170 214.400,252.516 214.400 C 252.608 214.400,253.542 213.095,254.591 211.500 C 255.641 209.905,256.869 208.195,257.320 207.700 C 257.771 207.205,258.021 206.800,257.876 206.800 C 257.730 206.800,256.826 207.801,255.866 209.025 M315.100 217.097 C 316.695 217.173,319.305 217.173,320.900 217.097 C 322.495 217.021,321.190 216.959,318.000 216.959 C 314.810 216.959,313.505 217.021,315.100 217.097 M307.400 217.600 L 306.200 217.905 307.400 217.913 C 308.060 217.917,309.050 217.776,309.600 217.600 L 310.600 217.280 309.600 217.287 C 309.050 217.291,308.060 217.432,307.400 217.600 M327.000 217.623 C 327.880 217.805,329.140 217.942,329.800 217.927 C 330.700 217.907,330.550 217.820,329.200 217.580 C 326.786 217.150,324.894 217.187,327.000 217.623 M304.000 218.400 C 303.176 218.664,303.141 218.726,303.800 218.754 C 304.240 218.773,304.870 218.613,305.200 218.400 C 305.901 217.947,305.414 217.947,304.000 218.400 M332.200 218.400 C 332.640 218.589,333.450 218.738,334.000 218.732 L 335.000 218.720 334.000 218.400 C 333.450 218.224,332.640 218.074,332.200 218.068 L 331.400 218.056 332.200 218.400 M300.200 219.617 C 299.320 220.055,298.960 220.301,299.400 220.163 C 299.840 220.026,300.785 219.744,301.500 219.538 C 302.215 219.331,302.800 219.081,302.800 218.981 C 302.800 218.594,301.731 218.855,300.200 219.617 M336.400 219.260 C 337.170 219.497,339.240 220.136,341.000 220.680 C 342.760 221.223,344.728 221.830,345.373 222.027 C 346.018 222.225,346.378 222.238,346.173 222.057 C 345.680 221.623,338.186 219.309,336.400 219.040 L 335.000 218.829 336.400 219.260 M249.400 220.800 C 249.250 221.273,249.217 221.750,249.327 221.860 C 249.437 221.970,249.650 221.673,249.800 221.200 C 249.950 220.727,249.983 220.250,249.873 220.140 C 249.763 220.030,249.550 220.327,249.400 220.800 M181.787 222.100 C 181.467 222.948,181.381 364.800,181.700 364.800 C 181.865 364.800,182.000 332.671,182.000 293.403 L 182.000 222.006 207.100 221.900 L 232.200 221.794 207.087 221.697 C 187.293 221.621,181.935 221.706,181.787 222.100 M294.678 222.613 C 294.060 223.156,293.700 223.594,293.878 223.586 C 294.356 223.564,296.668 221.602,296.200 221.615 C 295.980 221.620,295.295 222.070,294.678 222.613 M248.600 223.600 C 248.448 224.291,248.407 224.941,248.509 225.042 C 248.611 225.144,248.809 224.653,248.950 223.950 C 249.091 223.247,249.131 222.598,249.041 222.508 C 248.950 222.417,248.752 222.909,248.600 223.600 M348.000 223.070 C 348.770 223.428,350.615 224.312,352.100 225.034 C 353.585 225.756,354.797 226.223,354.793 226.073 C 354.789 225.923,353.844 225.366,352.693 224.835 C 351.542 224.305,349.891 223.540,349.025 223.135 C 348.159 222.731,347.259 222.404,347.025 222.409 C 346.791 222.414,347.230 222.711,348.000 223.070 M247.856 226.484 C 247.721 226.988,247.628 227.850,247.649 228.400 C 247.672 228.989,247.831 228.671,248.036 227.625 C 248.403 225.752,248.273 224.927,247.856 226.484 M290.471 227.043 C 289.205 228.997,289.537 229.085,290.896 227.156 C 291.499 226.300,291.859 225.602,291.696 225.605 C 291.533 225.608,290.982 226.255,290.471 227.043 M355.600 226.820 C 356.987 227.761,357.778 228.035,356.800 227.236 C 356.250 226.786,355.620 226.417,355.400 226.415 C 355.180 226.413,355.270 226.596,355.600 226.820 M247.054 231.856 C 246.724 234.269,246.768 242.159,247.123 244.155 C 247.275 245.010,247.400 242.175,247.400 237.855 C 247.400 229.125,247.408 229.272,247.054 231.856 M288.181 235.200 C 288.532 240.355,291.307 244.939,296.400 248.777 C 297.527 249.626,297.113 249.121,295.292 247.427 C 290.773 243.221,289.254 240.532,288.390 235.211 L 288.032 233.000 288.181 235.200 M247.687 247.200 C 247.683 247.750,247.824 248.650,248.000 249.200 C 248.431 250.544,248.431 249.092,248.000 247.400 C 247.726 246.322,247.694 246.302,247.687 247.200 M248.434 251.000 C 248.422 251.440,248.587 252.070,248.800 252.400 C 249.314 253.195,249.314 252.196,248.800 251.000 L 248.456 250.200 248.434 251.000 M300.400 251.567 C 301.363 252.352,302.000 252.608,302.000 252.210 C 302.000 252.106,301.415 251.735,300.700 251.386 L 299.400 250.752 300.400 251.567 M308.400 255.795 C 308.400 256.005,311.135 257.211,311.549 257.183 C 311.870 257.162,309.101 255.639,308.700 255.617 C 308.535 255.608,308.400 255.688,308.400 255.795 M250.800 257.747 C 250.800 258.180,252.788 262.000,253.013 262.000 C 253.123 262.000,252.739 261.055,252.159 259.900 C 251.043 257.679,250.800 257.294,250.800 257.747 M313.600 258.189 C 313.600 258.506,316.500 259.633,316.728 259.405 C 316.841 259.292,316.835 259.200,316.716 259.200 C 316.596 259.200,315.846 258.928,315.049 258.595 C 314.252 258.262,313.600 258.079,313.600 258.189 M317.200 259.789 C 317.200 260.106,320.100 261.233,320.328 261.005 C 320.441 260.892,320.435 260.800,320.316 260.800 C 320.196 260.800,319.446 260.528,318.649 260.195 C 317.852 259.862,317.200 259.679,317.200 259.789 M321.001 261.601 C 321.136 261.821,321.419 262.000,321.628 262.000 C 321.937 262.000,324.820 263.218,326.100 263.890 C 326.265 263.976,326.400 263.951,326.400 263.834 C 326.400 263.623,323.783 262.354,321.778 261.592 C 321.101 261.334,320.838 261.337,321.001 261.601 M253.438 262.900 C 254.322 264.448,257.238 268.314,258.039 269.000 C 258.553 269.440,258.242 268.900,257.347 267.800 C 256.452 266.700,255.219 265.035,254.607 264.100 C 253.599 262.561,252.743 261.682,253.438 262.900 M328.138 264.847 C 328.984 265.293,329.768 265.565,329.881 265.452 C 330.076 265.257,327.380 263.980,326.851 264.018 C 326.713 264.027,327.292 264.400,328.138 264.847 M336.800 268.979 C 336.800 269.089,337.340 269.459,338.000 269.800 C 338.660 270.141,339.200 270.331,339.200 270.221 C 339.200 270.111,338.660 269.741,338.000 269.400 C 337.340 269.059,336.800 268.869,336.800 268.979 M261.583 272.802 C 263.224 274.323,264.647 275.487,264.744 275.389 C 264.842 275.291,264.406 274.805,263.774 274.308 C 263.143 273.812,261.860 272.639,260.924 271.703 C 259.987 270.766,259.081 270.009,258.911 270.019 C 258.740 270.030,259.943 271.282,261.583 272.802 M346.005 274.680 C 346.008 274.856,346.638 275.407,347.405 275.904 C 349.203 277.068,349.200 276.800,347.400 275.427 C 346.630 274.840,346.002 274.503,346.005 274.680 M268.314 278.276 C 269.605 279.381,272.800 281.371,272.800 281.071 C 272.800 280.986,271.495 280.070,269.900 279.035 C 268.305 277.999,267.591 277.658,268.314 278.276 M351.526 279.234 C 354.025 281.347,357.504 285.237,358.688 287.242 C 359.065 287.879,359.525 288.400,359.711 288.400 C 359.897 288.400,359.454 287.545,358.725 286.500 C 357.161 284.257,350.212 277.200,349.568 277.200 C 349.322 277.200,350.204 278.115,351.526 279.234 M274.000 281.967 C 274.963 282.752,275.600 283.008,275.600 282.610 C 275.600 282.506,275.015 282.135,274.300 281.786 L 273.000 281.152 274.000 281.967 M276.800 283.567 C 277.763 284.352,278.400 284.608,278.400 284.210 C 278.400 284.106,277.815 283.735,277.100 283.386 L 275.800 282.752 276.800 283.567 M282.195 286.392 C 282.334 286.616,282.611 286.800,282.812 286.800 C 283.012 286.800,284.130 287.236,285.295 287.769 C 288.455 289.215,291.855 290.508,291.400 290.091 C 291.180 289.890,289.920 289.307,288.600 288.797 C 287.280 288.287,286.020 287.747,285.800 287.598 C 284.919 287.001,281.959 286.010,282.195 286.392 M360.887 290.700 C 360.972 290.865,361.452 291.870,361.954 292.933 C 362.456 293.997,362.954 294.779,363.060 294.673 C 363.286 294.447,361.296 290.400,360.960 290.400 C 360.835 290.400,360.803 290.535,360.887 290.700 M296.054 292.187 C 296.390 292.523,299.200 293.616,299.200 293.411 C 299.200 293.301,298.548 292.938,297.751 292.605 C 296.275 291.989,295.718 291.851,296.054 292.187 M364.012 297.600 C 364.012 297.930,364.187 298.470,364.400 298.800 C 364.745 299.333,364.788 299.333,364.788 298.800 C 364.788 298.470,364.613 297.930,364.400 297.600 C 364.055 297.067,364.012 297.067,364.012 297.600 M308.000 297.790 C 308.000 297.894,308.585 298.265,309.300 298.614 L 310.600 299.248 309.600 298.433 C 308.637 297.648,308.000 297.392,308.000 297.790 M311.400 299.843 C 312.356 300.582,314.400 301.685,314.400 301.463 C 314.400 301.223,311.259 299.198,310.909 299.213 C 310.739 299.220,310.960 299.503,311.400 299.843 M315.600 302.397 C 316.150 302.872,317.050 303.631,317.600 304.083 C 318.150 304.536,319.230 305.467,320.000 306.152 C 321.337 307.343,321.330 307.324,319.850 305.731 C 318.997 304.814,317.467 303.494,316.450 302.798 C 315.432 302.102,315.050 301.922,315.600 302.397 M365.656 303.400 C 365.656 303.840,365.811 304.560,366.000 305.000 L 366.344 305.800 366.344 305.000 C 366.344 304.560,366.189 303.840,366.000 303.400 L 365.656 302.600 365.656 303.400 M366.600 315.186 C 366.600 319.660,366.725 322.618,366.877 321.760 C 367.217 319.842,367.200 309.838,366.853 308.226 C 366.714 307.580,366.600 310.712,366.600 315.186 M322.558 309.500 C 323.304 310.545,324.195 312.210,324.538 313.200 C 324.881 314.190,325.170 314.706,325.181 314.346 C 325.218 313.090,322.224 307.602,321.501 307.601 C 321.336 307.600,321.812 308.455,322.558 309.500 M325.400 318.400 C 325.400 320.118,325.532 321.316,325.694 321.062 C 325.856 320.808,325.988 319.610,325.988 318.400 C 325.988 317.190,325.856 315.992,325.694 315.738 C 325.532 315.484,325.400 316.682,325.400 318.400 M247.694 338.257 L 247.788 357.800 247.994 338.441 L 248.200 319.083 249.400 320.066 C 251.041 321.411,253.200 322.894,253.200 322.675 C 253.200 322.417,248.915 319.219,248.201 318.945 C 247.671 318.741,247.611 321.009,247.694 338.257 M324.846 322.267 C 324.821 322.524,324.684 323.064,324.541 323.467 C 324.340 324.036,324.394 324.097,324.779 323.742 C 325.052 323.491,325.189 322.951,325.084 322.542 C 324.979 322.134,324.872 322.010,324.846 322.267 M256.800 325.140 C 257.870 326.025,263.892 329.274,265.819 330.007 C 267.766 330.747,266.769 330.138,262.586 328.030 C 260.394 326.925,257.970 325.637,257.200 325.167 C 255.859 324.349,255.842 324.348,256.800 325.140 M323.422 325.712 C 323.018 326.421,321.677 327.975,320.443 329.166 C 319.210 330.357,318.740 330.958,319.400 330.502 C 321.297 329.191,324.762 325.029,324.323 324.589 C 324.232 324.499,323.827 325.004,323.422 325.712 M365.822 325.822 C 365.672 326.625,365.628 327.362,365.726 327.460 C 365.824 327.557,366.027 326.981,366.178 326.178 C 366.328 325.375,366.372 324.638,366.274 324.540 C 366.176 324.443,365.973 325.019,365.822 325.822 M365.000 329.200 C 364.850 329.673,364.817 330.150,364.927 330.260 C 365.037 330.370,365.250 330.073,365.400 329.600 C 365.550 329.127,365.583 328.650,365.473 328.540 C 365.363 328.430,365.150 328.727,365.000 329.200 M316.400 332.033 L 315.400 332.848 316.700 332.214 C 317.415 331.865,318.000 331.494,318.000 331.390 C 318.000 330.992,317.363 331.248,316.400 332.033 M272.000 332.400 C 272.330 332.613,272.870 332.788,273.200 332.788 C 273.733 332.788,273.733 332.745,273.200 332.400 C 272.870 332.187,272.330 332.012,272.000 332.012 C 271.467 332.012,271.467 332.055,272.000 332.400 M274.600 333.200 C 275.040 333.389,275.670 333.544,276.000 333.544 C 276.378 333.544,276.304 333.417,275.800 333.200 C 275.360 333.011,274.730 332.856,274.400 332.856 C 274.022 332.856,274.096 332.983,274.600 333.200 M277.400 334.000 C 277.840 334.189,278.470 334.344,278.800 334.344 C 279.178 334.344,279.104 334.217,278.600 334.000 C 278.160 333.811,277.530 333.656,277.200 333.656 C 276.822 333.656,276.896 333.783,277.400 334.000 M311.600 334.000 C 311.067 334.345,311.067 334.388,311.600 334.388 C 311.930 334.388,312.470 334.213,312.800 334.000 C 313.333 333.655,313.333 333.612,312.800 333.612 C 312.470 333.612,311.930 333.787,311.600 334.000 M280.800 334.800 C 281.350 334.976,282.160 335.120,282.600 335.120 C 283.233 335.120,283.192 335.054,282.400 334.800 C 281.850 334.624,281.040 334.480,280.600 334.480 C 279.967 334.480,280.008 334.546,280.800 334.800 M308.600 334.800 L 307.800 335.144 308.600 335.166 C 309.040 335.178,309.670 335.013,310.000 334.800 C 310.795 334.286,309.796 334.286,308.600 334.800 M285.200 335.600 C 285.750 335.776,286.830 335.917,287.600 335.914 L 289.000 335.908 287.400 335.577 C 285.263 335.135,283.796 335.150,285.200 335.600 M304.000 335.600 L 302.600 335.895 304.000 335.907 C 304.770 335.915,305.850 335.776,306.400 335.600 L 307.400 335.280 306.400 335.293 C 305.850 335.300,304.770 335.438,304.000 335.600 M361.491 338.491 C 359.626 342.248,359.845 342.468,361.782 338.782 C 362.603 337.219,363.197 335.863,363.101 335.768 C 363.006 335.673,362.282 336.898,361.491 338.491 M293.900 336.295 C 295.055 336.376,296.945 336.376,298.100 336.295 C 299.255 336.214,298.310 336.148,296.000 336.148 C 293.690 336.148,292.745 336.214,293.900 336.295 M357.600 344.768 C 357.600 344.970,356.700 346.120,355.600 347.324 C 354.500 348.527,353.600 349.646,353.600 349.810 C 353.600 349.974,354.147 349.499,354.815 348.754 C 357.227 346.067,358.459 344.400,358.034 344.400 C 357.795 344.400,357.600 344.565,357.600 344.768 M352.164 350.846 C 351.744 351.314,350.320 352.515,349.000 353.513 C 346.129 355.686,345.358 356.418,347.000 355.412 C 349.275 354.018,353.410 350.477,353.112 350.179 C 353.011 350.078,352.585 350.378,352.164 350.846 M342.051 357.810 C 338.408 359.719,337.546 360.303,339.408 359.600 C 340.853 359.054,345.600 356.433,345.600 356.180 C 345.600 355.936,345.804 355.842,342.051 357.810 M249.372 358.266 C 251.043 359.171,253.200 360.045,253.200 359.817 C 253.200 359.592,248.918 357.592,248.488 357.616 C 248.330 357.625,248.727 357.918,249.372 358.266 M330.000 362.800 C 329.467 363.145,329.467 363.188,330.000 363.188 C 330.330 363.188,330.870 363.013,331.200 362.800 C 331.733 362.455,331.733 362.412,331.200 362.412 C 330.870 362.412,330.330 362.587,330.000 362.800 M264.600 363.600 C 265.040 363.789,265.760 363.944,266.200 363.944 L 267.000 363.944 266.200 363.600 C 265.760 363.411,265.040 363.256,264.600 363.256 L 263.800 363.256 264.600 363.600 M268.200 364.400 C 268.640 364.589,269.360 364.744,269.800 364.744 L 270.600 364.744 269.800 364.400 C 269.360 364.211,268.640 364.056,268.200 364.056 L 267.400 364.056 268.200 364.400 M323.800 364.400 C 322.781 364.838,323.832 364.838,325.200 364.400 C 326.004 364.143,326.043 364.077,325.400 364.068 C 324.960 364.062,324.240 364.211,323.800 364.400 M272.800 365.200 C 273.350 365.376,274.160 365.526,274.600 365.532 L 275.400 365.544 274.600 365.200 C 274.160 365.011,273.350 364.862,272.800 364.868 L 271.800 364.880 272.800 365.200 M319.600 365.200 C 318.256 365.631,319.708 365.631,321.400 365.200 C 322.478 364.926,322.498 364.894,321.600 364.887 C 321.050 364.883,320.150 365.024,319.600 365.200 M278.200 366.023 C 279.080 366.205,280.340 366.344,281.000 366.331 C 282.044 366.311,281.992 366.265,280.600 365.977 C 279.720 365.795,278.460 365.656,277.800 365.669 C 276.756 365.689,276.808 365.735,278.200 366.023 M314.000 366.000 L 312.600 366.295 314.000 366.300 C 314.770 366.303,315.940 366.168,316.600 366.000 L 317.800 365.695 316.600 365.700 C 315.940 365.703,314.770 365.838,314.000 366.000 M286.200 366.857 C 289.340 367.192,305.973 367.195,308.800 366.860 C 310.010 366.717,304.880 366.600,297.400 366.600 C 289.920 366.600,284.880 366.715,286.200 366.857 " stroke="none" fill="#9cbce4" fill-rule="evenodd"></path><path id="path4" d="M303.800 185.984 C 303.140 186.143,304.490 186.187,306.800 186.083 C 309.110 185.978,311.075 185.827,311.167 185.746 C 311.469 185.481,305.026 185.688,303.800 185.984 M322.600 185.802 C 322.820 185.878,324.980 186.012,327.400 186.099 C 329.820 186.186,331.350 186.127,330.800 185.969 C 329.829 185.688,321.800 185.525,322.600 185.802 M297.600 186.812 C 297.181 187.091,297.542 187.133,298.800 186.950 C 301.041 186.625,301.360 186.398,299.567 186.406 C 298.815 186.409,297.930 186.592,297.600 186.812 M334.433 186.546 C 334.525 186.626,335.590 186.800,336.800 186.932 C 338.237 187.088,338.722 187.048,338.200 186.814 C 337.443 186.475,334.079 186.236,334.433 186.546 M293.200 187.618 C 292.762 187.915,292.924 187.952,293.800 187.756 C 295.271 187.427,295.590 187.198,294.567 187.206 C 294.145 187.209,293.530 187.395,293.200 187.618 M340.433 187.343 C 340.876 187.722,343.217 187.951,342.996 187.594 C 342.862 187.377,342.193 187.200,341.510 187.200 C 340.826 187.200,340.342 187.264,340.433 187.343 M289.400 188.400 C 289.108 188.873,289.499 188.873,290.600 188.400 C 291.371 188.069,291.369 188.055,290.524 188.028 C 290.042 188.013,289.536 188.180,289.400 188.400 M359.600 211.080 C 359.490 221.024,359.537 229.023,359.704 228.856 C 359.872 228.689,359.961 220.552,359.904 210.776 L 359.800 193.000 359.600 211.080 M262.565 201.431 L 260.200 203.663 262.700 201.542 C 264.075 200.376,265.200 199.372,265.200 199.311 C 265.200 199.008,264.744 199.375,262.565 201.431 M315.100 217.497 C 316.695 217.573,319.305 217.573,320.900 217.497 C 322.495 217.421,321.190 217.359,318.000 217.359 C 314.810 217.359,313.505 217.421,315.100 217.497 M249.579 219.055 C 249.358 219.636,249.252 220.185,249.343 220.276 C 249.433 220.367,249.699 219.892,249.933 219.220 C 250.453 217.728,250.139 217.582,249.579 219.055 M306.021 218.379 C 305.646 218.616,306.070 218.665,307.221 218.518 C 308.199 218.392,309.075 218.225,309.167 218.145 C 309.542 217.819,306.555 218.040,306.021 218.379 M327.900 218.282 C 328.395 218.378,329.205 218.378,329.700 218.282 C 330.195 218.187,329.790 218.109,328.800 218.109 C 327.810 218.109,327.405 218.187,327.900 218.282 M302.800 219.218 C 302.362 219.515,302.524 219.552,303.400 219.356 C 304.871 219.027,305.190 218.798,304.167 218.806 C 303.745 218.809,303.130 218.995,302.800 219.218 M336.433 219.744 C 336.525 219.823,337.140 220.008,337.800 220.156 C 338.676 220.352,338.838 220.315,338.400 220.018 C 337.860 219.653,336.032 219.398,336.433 219.744 M207.200 221.995 L 182.200 222.200 182.099 293.377 C 182.019 349.686,181.894 364.628,181.499 364.908 C 181.130 365.168,181.157 365.218,181.600 365.097 C 182.130 364.952,182.212 356.618,182.301 293.667 L 182.402 222.400 207.177 222.400 C 223.263 222.400,232.039 222.260,232.200 222.000 C 232.336 221.780,232.392 221.643,232.324 221.695 C 232.256 221.748,220.950 221.883,207.200 221.995 M101.000 222.291 C 123.752 222.568,142.000 222.572,142.000 222.300 C 142.000 222.135,130.795 222.041,117.100 222.092 C 103.405 222.143,96.160 222.232,101.000 222.291 M247.850 224.450 C 247.709 225.153,247.669 225.802,247.759 225.892 C 247.850 225.983,248.048 225.491,248.200 224.800 C 248.352 224.109,248.393 223.459,248.291 223.358 C 248.189 223.256,247.991 223.747,247.850 224.450 M357.424 228.587 C 357.851 228.910,358.380 229.175,358.600 229.175 C 358.820 229.175,358.651 228.910,358.224 228.587 C 357.796 228.264,357.267 228.000,357.047 228.000 C 356.827 228.000,356.996 228.264,357.424 228.587 M288.928 234.800 C 288.928 236.230,289.001 236.815,289.089 236.100 C 289.178 235.385,289.178 234.215,289.089 233.500 C 289.001 232.785,288.928 233.370,288.928 234.800 M246.555 237.800 C 246.556 240.660,246.620 241.778,246.697 240.283 C 246.774 238.789,246.774 236.449,246.696 235.083 C 246.618 233.718,246.555 234.940,246.555 237.800 M292.800 244.712 C 292.800 244.904,293.250 245.483,293.800 246.000 C 294.350 246.517,294.800 246.810,294.800 246.652 C 294.800 246.493,294.350 245.914,293.800 245.364 C 293.250 244.814,292.800 244.520,292.800 244.712 M297.869 249.232 C 298.366 249.833,300.800 251.364,300.800 251.076 C 300.800 250.983,300.035 250.402,299.100 249.785 C 298.165 249.168,297.611 248.920,297.869 249.232 M248.816 253.854 C 248.807 254.104,249.063 254.914,249.384 255.654 C 249.706 256.394,249.976 256.796,249.984 256.546 C 249.993 256.296,249.737 255.486,249.416 254.746 C 249.094 254.006,248.824 253.604,248.816 253.854 M252.015 261.400 C 252.017 261.620,252.386 262.250,252.836 262.800 C 253.379 263.464,253.515 263.531,253.240 263.000 C 252.566 261.695,252.012 260.972,252.015 261.400 M329.200 264.800 C 329.970 265.222,330.780 265.566,331.000 265.566 C 331.220 265.566,330.770 265.222,330.000 264.800 C 329.230 264.378,328.420 264.034,328.200 264.034 C 327.980 264.034,328.430 264.378,329.200 264.800 M333.200 266.588 C 333.200 266.698,334.280 267.334,335.600 268.000 C 336.920 268.666,338.000 269.122,338.000 269.012 C 338.000 268.902,336.920 268.266,335.600 267.600 C 334.280 266.934,333.200 266.478,333.200 266.588 M260.400 272.200 C 261.595 273.410,262.663 274.400,262.773 274.400 C 262.883 274.400,261.995 273.410,260.800 272.200 C 259.605 270.990,258.537 270.000,258.427 270.000 C 258.317 270.000,259.205 270.990,260.400 272.200 M344.456 273.166 C 344.975 273.587,345.477 273.855,345.571 273.761 C 345.776 273.557,344.344 272.431,343.856 272.413 C 343.666 272.406,343.936 272.745,344.456 273.166 M266.144 277.109 C 266.460 277.621,268.800 279.353,268.800 279.075 C 268.800 278.976,268.139 278.391,267.332 277.775 C 266.524 277.159,265.989 276.859,266.144 277.109 M350.400 277.325 C 350.400 277.394,350.985 277.979,351.700 278.625 L 353.000 279.800 351.825 278.500 C 350.730 277.288,350.400 277.016,350.400 277.325 M271.000 280.591 C 272.140 281.542,276.470 284.063,276.652 283.881 C 276.736 283.798,275.948 283.254,274.902 282.672 C 273.856 282.091,272.370 281.234,271.600 280.769 C 270.830 280.304,270.560 280.224,271.000 280.591 M304.800 296.551 C 304.800 296.816,310.112 299.622,310.285 299.448 C 310.361 299.373,309.157 298.646,307.611 297.834 C 306.065 297.021,304.800 296.444,304.800 296.551 M312.200 300.672 C 312.420 300.885,313.590 301.728,314.800 302.546 C 316.390 303.621,316.648 303.724,315.730 302.917 C 314.545 301.874,311.322 299.825,312.200 300.672 M367.365 315.200 C 367.365 319.050,367.425 320.625,367.498 318.700 C 367.571 316.775,367.571 313.625,367.498 311.700 C 367.425 309.775,367.365 311.350,367.365 315.200 M324.881 318.200 C 324.882 320.538,324.936 320.769,325.212 319.600 C 325.394 318.830,325.394 317.570,325.212 316.800 C 324.935 315.631,324.880 315.861,324.881 318.200 M248.000 318.133 C 248.000 318.243,248.720 318.903,249.600 319.600 C 250.480 320.297,251.200 320.777,251.200 320.667 C 251.200 320.557,250.480 319.897,249.600 319.200 C 248.720 318.503,248.000 318.023,248.000 318.133 M247.290 337.876 C 247.241 348.698,247.335 357.636,247.500 357.738 C 247.773 357.907,247.768 343.142,247.489 325.200 C 247.429 321.350,247.340 327.054,247.290 337.876 M254.394 323.182 C 254.941 323.602,255.468 323.866,255.565 323.769 C 255.791 323.542,254.329 322.427,253.800 322.422 C 253.580 322.420,253.847 322.761,254.394 323.182 M366.460 325.267 C 366.427 325.854,366.296 326.664,366.170 327.067 C 365.952 327.760,365.965 327.761,366.395 327.090 C 366.646 326.699,366.777 325.889,366.686 325.290 L 366.520 324.200 366.460 325.267 M365.646 328.867 C 365.621 329.234,365.496 329.864,365.370 330.267 C 365.152 330.962,365.163 330.963,365.597 330.287 C 365.848 329.896,365.973 329.266,365.873 328.887 C 365.711 328.268,365.688 328.266,365.646 328.867 M318.356 330.141 C 317.342 330.834,316.172 331.631,315.756 331.914 C 315.340 332.197,315.941 331.945,317.091 331.355 C 318.241 330.765,319.484 329.949,319.853 329.541 C 320.733 328.569,320.554 328.641,318.356 330.141 M312.616 333.064 C 311.745 333.378,310.935 333.731,310.817 333.850 C 310.451 334.216,312.942 333.520,314.000 332.961 C 315.278 332.285,314.647 332.332,312.616 333.064 M276.833 333.343 C 276.925 333.421,277.630 333.601,278.400 333.742 C 279.385 333.923,279.622 333.882,279.200 333.606 C 278.658 333.250,276.437 333.003,276.833 333.343 M280.033 334.144 C 280.125 334.224,281.010 334.396,282.000 334.527 C 283.202 334.686,283.534 334.647,283.000 334.410 C 282.236 334.072,279.686 333.843,280.033 334.144 M308.400 334.418 C 307.962 334.715,308.124 334.752,309.000 334.556 C 310.471 334.227,310.790 333.998,309.767 334.006 C 309.345 334.009,308.730 334.195,308.400 334.418 M284.433 334.944 C 284.525 335.024,285.680 335.189,287.000 335.312 C 288.491 335.451,289.021 335.411,288.400 335.207 C 287.412 334.884,284.111 334.665,284.433 334.944 M305.105 335.083 C 305.602 335.179,306.322 335.175,306.705 335.075 C 307.087 334.975,306.680 334.896,305.800 334.901 C 304.920 334.905,304.607 334.987,305.105 335.083 M294.100 335.894 C 295.145 335.976,296.855 335.976,297.900 335.894 C 298.945 335.812,298.090 335.744,296.000 335.744 C 293.910 335.744,293.055 335.812,294.100 335.894 M359.445 342.988 C 359.080 343.544,358.922 344.000,359.095 344.000 C 359.484 344.000,360.519 342.386,360.282 342.149 C 360.186 342.053,359.810 342.431,359.445 342.988 M353.544 350.207 C 352.083 351.633,351.008 352.800,351.155 352.800 C 351.303 352.800,352.583 351.630,354.000 350.200 C 355.417 348.770,356.492 347.603,356.388 347.607 C 356.285 347.611,355.005 348.781,353.544 350.207 M261.400 363.200 C 261.536 363.420,262.042 363.587,262.524 363.572 C 263.369 363.545,263.371 363.531,262.600 363.200 C 261.499 362.727,261.108 362.727,261.400 363.200 M264.400 363.982 C 264.730 364.205,265.345 364.391,265.767 364.394 C 266.790 364.402,266.471 364.173,265.000 363.844 C 264.124 363.648,263.962 363.685,264.400 363.982 M327.600 364.000 C 326.776 364.264,326.741 364.326,327.400 364.354 C 327.840 364.373,328.470 364.213,328.800 364.000 C 329.501 363.547,329.014 363.547,327.600 364.000 M268.000 364.794 C 268.330 365.011,269.035 365.191,269.567 365.194 C 270.851 365.202,270.525 364.975,268.800 364.658 C 267.815 364.477,267.578 364.518,268.000 364.794 M324.200 364.800 C 323.093 365.082,323.077 365.109,324.000 365.147 C 324.550 365.169,325.270 365.013,325.600 364.800 C 326.281 364.360,325.929 364.360,324.200 364.800 M272.200 365.597 C 272.964 365.928,275.914 366.155,275.567 365.856 C 275.475 365.777,274.500 365.609,273.400 365.482 C 272.113 365.333,271.685 365.374,272.200 365.597 M320.200 365.600 L 318.600 365.886 320.000 365.937 C 320.770 365.965,321.670 365.813,322.000 365.600 C 322.655 365.177,322.562 365.177,320.200 365.600 M279.107 366.690 C 279.826 366.779,280.906 366.777,281.507 366.686 C 282.108 366.595,281.520 366.522,280.200 366.524 C 278.880 366.526,278.388 366.601,279.107 366.690 M313.300 366.687 C 313.905 366.778,314.895 366.778,315.500 366.687 C 316.105 366.595,315.610 366.520,314.400 366.520 C 313.190 366.520,312.695 366.595,313.300 366.687 M283.700 367.076 C 284.085 367.176,284.715 367.176,285.100 367.076 C 285.485 366.975,285.170 366.893,284.400 366.893 C 283.630 366.893,283.315 366.975,283.700 367.076 M291.900 367.499 C 295.035 367.567,300.165 367.567,303.300 367.499 C 306.435 367.432,303.870 367.376,297.600 367.376 C 291.330 367.376,288.765 367.432,291.900 367.499 " stroke="none" fill="#5892d4" fill-rule="evenodd"></path></g></svg>